<?xml version="1.0" encoding="utf-8"?>
<!-- Generator: Adobe Illustrator 16.0.0, SVG Export Plug-In . SVG Version: 6.00 Build 0)  -->
<!DOCTYPE svg PUBLIC "-//W3C//DTD SVG 1.1//EN" "http://www.w3.org/Graphics/SVG/1.1/DTD/svg11.dtd">
<svg version="1.1" id="Layer_1" xmlns="http://www.w3.org/2000/svg" xmlns:xlink="http://www.w3.org/1999/xlink" x="0px" y="0px"
	 width="65.709px" height="43.114px" viewBox="0 0 65.709 43.114" enable-background="new 0 0 65.709 43.114" xml:space="preserve">
<g>
	<path fill-rule="evenodd" clip-rule="evenodd" fill="#002447" d="M4.154,0.02h57.367c2.291,0,4.16,1.874,4.16,4.163v34.774
		c0,2.291-1.869,4.159-4.16,4.159H4.154c-2.284,0-4.16-1.868-4.16-4.159V4.183C-0.006,1.894,1.87,0.02,4.154,0.02z"/>
	<path fill-rule="evenodd" clip-rule="evenodd" fill="#153D6C" d="M4.154,0.02h57.371c2.287,0,4.156,1.874,4.156,4.163v0.553
		L4.254,43.117h-0.1c-2.284,0-4.16-1.868-4.16-4.159V4.183C-0.006,1.894,1.87,0.02,4.154,0.02z"/>
	<path fill-rule="evenodd" clip-rule="evenodd" fill="#009CD8" d="M58.464,19.31c-0.888-0.002-1.335-0.002-2.238-0.006
		c-0.878-1.592-1.775-3.173-2.686-4.75c-0.114,1.583-0.234,3.163-0.355,4.743c-1.323,0-1.99-0.002-3.331-0.006
		c-0.221-0.565-0.332-0.845-0.551-1.411c-1.376-0.001-2.076-0.007-3.473-0.007c-0.282,0.565-0.431,0.845-0.715,1.407
		c-0.787,0-1.182,0-1.97-0.003c-0.823-0.001-1.858-0.164-2.426-0.703c-0.579-0.537-0.867-1.268-0.826-2.417
		c0.032-0.935,0.247-1.792,1.015-2.466c0.579-0.504,1.466-0.732,2.655-0.732c0.666,0,0.996,0.004,1.663,0.004
		c-0.026,0.54-0.037,0.813-0.063,1.354c-0.646-0.004-0.971-0.004-1.623-0.007c-0.624,0-0.988,0.084-1.339,0.375
		c-0.305,0.264-0.526,0.766-0.554,1.427c-0.025,0.678,0.109,1.168,0.411,1.486c0.247,0.25,0.72,0.327,1.165,0.331
		c0.306,0,0.459,0,0.762,0c0.883-1.655,1.765-3.31,2.654-4.966c1.02,0.001,1.528,0.001,2.536,0.001
		c0.83,1.985,1.635,3.983,2.417,5.986c0.146-1.993,0.288-3.989,0.421-5.981c1.007,0,1.513,0.002,2.505,0.002
		c0.847,1.463,1.675,2.94,2.495,4.421c0.121-1.47,0.237-2.945,0.348-4.417c0.657,0.002,0.98,0.002,1.628,0.002
		C58.826,15.088,58.646,17.199,58.464,19.31L58.464,19.31L58.464,19.31z M38.95,19.27c-0.698-0.003-1.045-0.003-1.743-0.003
		c0.062-2.105,0.113-4.209,0.161-6.315c0.709,0.002,1.066,0.002,1.776,0.002C39.087,15.06,39.018,17.165,38.95,19.27L38.95,19.27z
		 M36.323,14.646c-0.021,1.005-0.805,1.523-1.256,1.676c0.378,0.129,0.7,0.348,0.847,0.537c0.236,0.316,0.273,0.596,0.256,1.159
		c-0.01,0.5-0.017,0.747-0.031,1.245c-0.688-0.002-1.036-0.002-1.722-0.002c0.006-0.319,0.006-0.479,0.01-0.799
		c0.003-0.38,0.059-0.93-0.252-1.235c-0.247-0.223-0.63-0.271-1.257-0.274c-0.734,0-1.106-0.002-1.847-0.006
		c-0.006,0.923-0.006,1.382-0.011,2.309c-0.688,0-1.031,0-1.711-0.003c0-2.106-0.005-4.208-0.023-6.31
		c1.346,0,2.686,0.002,4.025,0.005c0.892,0,1.555,0.022,2.116,0.304C36.013,13.532,36.34,13.941,36.323,14.646L36.323,14.646z
		 M28.166,19.249c-1.892-0.001-3.778-0.005-5.667-0.009c-0.054-2.103-0.106-4.204-0.17-6.305c1.929,0.004,3.86,0.004,5.789,0.004
		c0.005,0.522,0.012,0.781,0.017,1.307c-1.35-0.004-2.702-0.006-4.051-0.007c0.011,0.453,0.016,0.677,0.029,1.131
		c1.312,0.002,2.626,0.005,3.932,0.007c0.006,0.517,0.011,0.776,0.011,1.294c-1.303-0.003-2.611-0.005-3.918-0.011
		c0.011,0.507,0.017,0.762,0.026,1.27c1.333,0.002,2.662,0.004,3.997,0.007C28.16,18.462,28.166,18.724,28.166,19.249L28.166,19.249
		z M21.242,19.236c-0.688,0-1.029-0.004-1.717-0.004c-0.053-1.651-0.116-3.301-0.18-4.95c-0.76,1.642-1.507,3.29-2.238,4.945
		c-0.583,0-0.872,0-1.45,0c-0.867-1.663-1.733-3.315-2.625-4.963c0.089,1.653,0.174,3.305,0.253,4.956
		c-1.319-0.002-1.975-0.002-3.268-0.005c-0.278-0.573-0.416-0.856-0.688-1.425c-1.325-0.002-1.976-0.005-3.264-0.009
		c-0.209,0.569-0.308,0.854-0.514,1.425c-0.666,0-0.996-0.004-1.654-0.004c0.763-2.104,1.539-4.198,2.35-6.286
		c0.923,0,1.391,0,2.335,0.003c1.045,1.972,2.07,3.963,3.074,5.96c-0.104-1.989-0.215-3.971-0.331-5.954c1.06,0,1.595,0,2.677,0
		c0.805,1.411,1.598,2.833,2.381,4.254c0.599-1.418,1.208-2.836,1.829-4.249c1.128,0.001,1.695,0.001,2.836,0.001
		C21.121,15.034,21.184,17.135,21.242,19.236L21.242,19.236L21.242,19.236z M48.826,16.565c-0.399-1.013-0.599-1.517-1.014-2.528
		c-0.521,1.009-0.785,1.515-1.304,2.52C47.437,16.558,47.899,16.563,48.826,16.565L48.826,16.565z M34.038,15.526
		c0.227-0.103,0.363-0.323,0.367-0.598c0-0.269-0.134-0.467-0.361-0.56c-0.201-0.103-0.521-0.113-0.824-0.115
		c-0.858-0.002-1.288-0.002-2.143-0.002c0,0.557,0,0.837,0,1.397c0.838,0.003,1.259,0.003,2.105,0.007
		C33.519,15.655,33.796,15.651,34.038,15.526L34.038,15.526z M8.678,16.465c-0.495-1.007-0.741-1.51-1.234-2.5
		c-0.369,0.991-0.546,1.489-0.91,2.497L8.678,16.465z"/>
	<path fill-rule="evenodd" clip-rule="evenodd" fill="#FFFFFF" d="M6.565,20.469c0.207-0.573,0.311-0.858,0.514-1.425
		c0.542,0,0.81,0,1.353,0.004c0.276,0.567,0.416,0.854,0.686,1.421c1.798,0.003,3.595,0.005,5.39,0.009
		c-0.015-0.435-0.025-0.65-0.047-1.086c0.216,0.438,0.328,0.655,0.542,1.092c1.141,0.001,1.712,0.001,2.869,0.005
		c0.179-0.442,0.271-0.664,0.456-1.105c0.016,0.441,0.021,0.66,0.036,1.102c4.699,0.006,9.394,0.015,14.095,0.021
		c0.005-0.929,0.01-1.391,0.021-2.315c0.108,0,0.162,0,0.278,0.002c0.189,0.005,0.246,0.021,0.246,0.305
		c-0.008,0.801-0.015,1.204-0.031,2.008c2.449,0.002,4.895,0.006,7.344,0.011c0.011-0.215,0.011-0.323,0.02-0.538
		c0.579,0.281,1.487,0.542,2.685,0.542c1.223,0.002,1.832,0.002,3.047,0.004c0.295-0.561,0.441-0.843,0.734-1.401
		c0.578,0,0.861,0,1.436,0c0.219,0.564,0.326,0.846,0.541,1.403c1.901,0.002,3.803,0.006,5.704,0.006
		c0.043-0.53,0.064-0.793,0.104-1.327c0.301,0.534,0.449,0.797,0.742,1.33c1.472,0.004,2.943,0.008,4.411,0.01
		c0.265-2.948,0.515-5.892,0.737-8.841h-0.068H60.34h-0.069h-0.068h-0.068h-0.068h-0.073h-0.066h-0.072h-0.066h-0.068h-0.068h-0.068
		h-0.068H59.44h-0.067h-0.068h-0.067h-0.068h-0.07h-0.067h-0.068h-0.074h-0.067h-0.067h-0.069h-0.068h-0.068H58.48h-0.069h-0.074
		h-0.065h-0.07h-0.068h-0.067h-0.068h-0.068h-0.073h-0.07h-0.067H57.65h-0.068h-0.068h-0.07H57.37h-0.066h-0.068h-0.067h-0.068
		h-0.07H56.96h-0.068h-0.068h-0.071h-0.069h-0.067h-0.069h-0.068H56.41h-0.067h-0.073h-0.068h-0.069h-0.068
		c-0.025,0.424-0.042,0.634-0.074,1.054c-0.22-0.42-0.331-0.63-0.557-1.054H55.36h-0.074h-0.073h-0.074h-0.072h-0.074h-0.073h-0.073
		h-0.072h-0.08h-0.074h-0.072h-0.07h-0.079h-0.073H54.25h-0.073h-0.072h-0.075h-0.072h-0.072H53.81h-0.074h-0.073h-0.073h-0.073
		h-0.073H53.37h-0.075h-0.072h-0.073h-0.073H53h-0.071h-0.075h-0.075h-0.074h-0.071h-0.074h-0.073h-0.073h-0.074h-0.074h-0.071
		h-0.075h-0.073h-0.073h-0.073h-0.08h-0.073h-0.072h-0.068h-0.078h-0.074h-0.074h-0.073h-0.073h-0.072h-0.075h-0.072h-0.076h-0.073
		h-0.074h-0.071c-0.02,0.42-0.037,0.63-0.062,1.049c-0.212-0.418-0.32-0.628-0.537-1.049h-0.105h-0.099h-0.104h-0.101h-0.104h-0.105
		h-0.101h-0.105h-0.099h-0.105h-0.105h-0.1h-0.104h-0.1h-0.106h-0.099h-0.105h-0.104h-0.102h-0.104h-0.1h-0.105h-0.104h-0.102
		h-0.104h-0.1h-0.105h-0.099h-0.104h-0.107h-0.098h-0.104h-0.102h-0.105h-0.104h-0.099h-0.106h-0.099h-0.104h-0.1h-0.106h-0.101
		h-0.104h-0.104h-0.101h-0.104h-0.099h-0.104h-0.107h-0.099h-0.106h-0.101h-0.104h-0.1h-0.105h-0.106h-0.098H44.15h-0.099h-0.107
		h-0.099h-0.104h-0.104h-0.102c-1.119,0-2.106,0.137-2.916,0.515c0.007-0.205,0.01-0.306,0.016-0.515h-0.073h-0.073h-0.073h-0.072
		h-0.07h-0.074h-0.072h-0.072h-0.074h-0.073h-0.066h-0.075h-0.075h-0.073h-0.073h-0.073h-0.074h-0.067h-0.075h-0.071h-0.075h-0.072
		h-0.068h-0.073h-0.073h-0.073h-0.073h-0.074h-0.075h-0.067h-0.073h-0.074h-0.073h-0.073h-0.073h-0.069h-0.073h-0.071h-0.075h-0.073
		h-0.074h-0.068h-0.074h-0.074h-0.072h-0.074h-0.073h-0.067h-0.074H37h-0.071h-0.074h-0.068h-0.073h-0.074h-0.074h-0.073h-0.076
		h-0.073h-0.073h-0.068h-0.074h-0.072h-0.073c0,0.205-0.008,0.307-0.008,0.514c-0.502-0.389-1.201-0.514-1.978-0.514h-0.526h-0.788
		h-0.531H31.89h-0.525h-0.792h-0.264h-0.262h-0.525h-0.263h-0.532h-0.262h-0.262h-0.526h-0.263h-0.531h-0.262h-0.262h-0.264h-0.262
		h-0.264h-0.262h-0.53h-0.263h-0.525h-0.53h-0.262h-0.262h-0.527h-0.262h-0.262h-0.532h-0.262h-0.262h-0.262h-0.262h-0.532h-0.263
		h-0.526H18.19h-0.263h-0.262h-0.262h-0.264c-0.398,0.885-0.592,1.334-0.988,2.229c-0.488-0.898-0.735-1.345-1.233-2.229h-0.08
		h-0.079h-0.078h-0.08h-0.074h-0.078h-0.077h-0.08h-0.079h-0.079h-0.078h-0.079h-0.08h-0.079h-0.081h-0.078h-0.077h-0.078h-0.081
		h-0.078h-0.078h-0.081H13.11h-0.078h-0.08h-0.074H12.8h-0.079h-0.077h-0.078h-0.08h-0.079h-0.079H12.25h-0.081h-0.078h-0.078h-0.08
		h-0.08h-0.077h-0.079H11.62h-0.081H11.46h-0.079H11.31h-0.08h-0.08h-0.078h-0.079h-0.078h-0.078h-0.079h-0.079H10.6h-0.079h-0.079
		h-0.078h-0.079h-0.081h-0.078h-0.078H9.97H9.897c0.025,0.4,0.036,0.604,0.062,1.009c-0.243-0.405-0.363-0.608-0.61-1.009H7.427
		H7.358H7.295H7.232H7.17H7.102H7.039H6.975H6.913H6.849H6.78H6.718H6.654H6.591H6.522H6.461H6.397H6.334H6.266H6.205H6.139H6.077
		H6.014H5.946H5.881H5.82H5.757H5.686H5.625H5.563H5.498H5.429H5.369H5.306H5.242c-0.536,1.363-1.057,2.727-1.576,4.091
		l-1.785,4.666C3.444,20.462,5.006,20.465,6.565,20.469L6.565,20.469z M58.464,19.31c-0.888-0.002-1.335-0.002-2.238-0.006
		c-0.878-1.592-1.775-3.173-2.686-4.75c-0.114,1.583-0.234,3.163-0.355,4.743c-1.323,0-1.99-0.002-3.331-0.006
		c-0.221-0.565-0.332-0.845-0.551-1.411c-1.376-0.001-2.076-0.007-3.473-0.007c-0.282,0.565-0.431,0.845-0.715,1.407
		c-0.787,0-1.182,0-1.97-0.003c-0.823-0.001-1.858-0.164-2.426-0.703c-0.579-0.537-0.867-1.268-0.826-2.417
		c0.032-0.935,0.247-1.792,1.015-2.466c0.579-0.504,1.466-0.732,2.655-0.732c0.666,0,0.996,0.004,1.663,0.004
		c-0.026,0.54-0.037,0.813-0.063,1.354c-0.646-0.004-0.971-0.004-1.623-0.007c-0.624,0-0.988,0.084-1.339,0.375
		c-0.305,0.264-0.526,0.766-0.554,1.427c-0.025,0.678,0.109,1.168,0.411,1.486c0.247,0.25,0.72,0.327,1.165,0.331
		c0.306,0,0.459,0,0.762,0c0.883-1.655,1.765-3.31,2.654-4.966c1.02,0.001,1.528,0.001,2.536,0.001
		c0.83,1.985,1.635,3.983,2.417,5.986c0.146-1.993,0.288-3.989,0.421-5.981c1.007,0,1.513,0.002,2.505,0.002
		c0.847,1.463,1.675,2.94,2.495,4.421c0.121-1.47,0.237-2.945,0.348-4.417c0.657,0.002,0.98,0.002,1.628,0.002
		C58.826,15.088,58.646,17.199,58.464,19.31L58.464,19.31L58.464,19.31z M38.95,19.27c-0.698-0.003-1.045-0.003-1.743-0.003
		c0.062-2.105,0.113-4.209,0.161-6.315c0.709,0.002,1.066,0.002,1.776,0.002C39.087,15.06,39.018,17.165,38.95,19.27L38.95,19.27z
		 M36.323,14.646c-0.021,1.005-0.805,1.523-1.256,1.676c0.378,0.129,0.7,0.348,0.847,0.537c0.236,0.316,0.273,0.596,0.256,1.159
		c-0.01,0.5-0.017,0.747-0.031,1.245c-0.688-0.002-1.036-0.002-1.722-0.002c0.006-0.319,0.006-0.479,0.01-0.799
		c0.003-0.38,0.059-0.93-0.252-1.235c-0.247-0.223-0.63-0.271-1.257-0.274c-0.734,0-1.106-0.002-1.847-0.006
		c-0.006,0.923-0.006,1.382-0.011,2.309c-0.688,0-1.031,0-1.711-0.003c0-2.106-0.005-4.208-0.023-6.31
		c1.346,0,2.686,0.002,4.025,0.005c0.892,0,1.555,0.022,2.116,0.304C36.013,13.532,36.34,13.941,36.323,14.646L36.323,14.646z
		 M28.166,19.249c-1.892-0.001-3.778-0.005-5.667-0.009c-0.054-2.103-0.106-4.204-0.17-6.305c1.929,0.004,3.86,0.004,5.789,0.004
		c0.005,0.522,0.012,0.781,0.017,1.307c-1.35-0.004-2.702-0.006-4.051-0.007c0.011,0.453,0.016,0.677,0.029,1.131
		c1.312,0.002,2.626,0.005,3.932,0.007c0.006,0.517,0.011,0.776,0.011,1.294c-1.303-0.003-2.611-0.005-3.918-0.011
		c0.011,0.507,0.017,0.762,0.026,1.27c1.333,0.002,2.662,0.004,3.997,0.007C28.16,18.462,28.166,18.724,28.166,19.249L28.166,19.249
		z M21.242,19.236c-0.688,0-1.029-0.004-1.717-0.004c-0.053-1.651-0.116-3.301-0.18-4.95c-0.76,1.642-1.507,3.29-2.238,4.945
		c-0.583,0-0.872,0-1.45,0c-0.867-1.663-1.733-3.315-2.625-4.963c0.089,1.653,0.174,3.305,0.253,4.956
		c-1.319-0.002-1.975-0.002-3.268-0.005c-0.278-0.573-0.416-0.856-0.688-1.425c-1.325-0.002-1.976-0.005-3.264-0.009
		c-0.209,0.569-0.308,0.854-0.514,1.425c-0.666,0-0.996-0.004-1.654-0.004c0.763-2.104,1.539-4.198,2.35-6.286
		c0.923,0,1.391,0,2.335,0.003c1.045,1.972,2.07,3.963,3.074,5.96c-0.104-1.989-0.215-3.971-0.331-5.954c1.06,0,1.595,0,2.677,0
		c0.805,1.411,1.598,2.833,2.381,4.254c0.599-1.418,1.208-2.836,1.829-4.249c1.128,0.001,1.695,0.001,2.836,0.001
		C21.121,15.034,21.184,17.135,21.242,19.236L21.242,19.236L21.242,19.236z M48.826,16.565c-0.927-0.002-1.389-0.008-2.317-0.008
		c0.519-1.005,0.782-1.511,1.304-2.52C48.227,15.048,48.426,15.553,48.826,16.565L48.826,16.565z M34.038,15.526
		c-0.242,0.125-0.519,0.129-0.856,0.129c-0.846-0.003-1.268-0.003-2.105-0.007c0-0.56,0-0.84,0-1.397c0.855,0,1.285,0,2.143,0.002
		c0.303,0.002,0.623,0.013,0.824,0.115c0.227,0.093,0.361,0.291,0.361,0.56C34.401,15.203,34.265,15.423,34.038,15.526
		L34.038,15.526z M8.678,16.465l-2.144-0.004c0.363-1.007,0.541-1.506,0.91-2.497C7.937,14.955,8.183,15.458,8.678,16.465z"/>
	<path fill-rule="evenodd" clip-rule="evenodd" fill="#0C72B8" d="M36.024,25.934c0,1.578-1.528,2.194-2.891,2.132
		c-0.823,0-1.238,0-2.062,0c0.015,0.854,0.02,1.276,0.038,2.124c-1.277,0-1.915,0-3.191,0.004c-0.83-0.836-1.247-1.252-2.089-2.094
		c-0.808,0.844-1.213,1.262-2.011,2.096c-2.134,0-4.272,0.002-6.404,0.004c-0.137-2.118-0.267-4.24-0.4-6.355
		c2.213,0,4.422,0,6.628,0c0.856,0.837,1.282,1.254,2.129,2.089c0.814-0.835,1.225-1.253,2.053-2.089c1.79,0,3.578,0,5.368,0
		C34.521,23.786,36.024,24.386,36.024,25.934L36.024,25.934z M41.171,23.848h0.021l0,0c0.599,0.02,1.066,0.084,1.492,0.292
		c0.521,0.289,0.834,0.686,0.812,1.407c-0.024,1.01-0.776,1.527-1.214,1.689c0.364,0.123,0.657,0.346,0.794,0.53
		c0.226,0.312,0.254,0.598,0.241,1.158c-0.009,0.502-0.021,0.754-0.028,1.257c-0.652,0-0.984,0-1.643,0
		c0.012-0.317,0.012-0.479,0.018-0.792c0.01-0.381,0.063-0.95-0.237-1.242c-0.235-0.229-0.604-0.281-1.203-0.281
		c-0.708,0.002-1.061,0.002-1.765,0.002c-0.009,0.928-0.013,1.391-0.02,2.317c-0.664,0-0.989,0-1.651,0
		c0.006-2.115,0.016-4.23,0.027-6.342c1.288,0,2.578,0,3.865,0C40.856,23.844,41.019,23.844,41.171,23.848L41.171,23.848z
		 M58.909,28.806v-0.003c-0.644,0-1.191,0-2.025,0.003v0.004h-0.011c-0.027,0.542-0.043,0.817-0.062,1.36c1.244,0,1.859,0,3.087,0
		c1.593,0,2.501-0.647,2.586-2.01c0.037-0.653-0.106-1.037-0.396-1.342c-0.335-0.348-0.914-0.487-1.775-0.507
		c-0.341-0.007-0.509-0.015-0.851-0.023c-0.273,0-0.451-0.015-0.62-0.069c-0.197-0.07-0.335-0.23-0.325-0.469
		c0.012-0.203,0.084-0.351,0.268-0.456c0.164-0.104,0.351-0.116,0.647-0.116c1.171,0,1.753,0,2.908-0.002
		c0.037-0.534,0.054-0.803,0.085-1.338c-1.266,0-1.906,0-3.193,0c-1.68,0-2.333,0.991-2.401,1.878
		c-0.058,0.716,0.228,1.17,0.662,1.461l0.016,0.005l0.006,0.008c0.361,0.234,0.835,0.359,1.312,0.422V27.61
		c0.441,0.061,0.889,0.066,1.271,0.066c0.274-0.004,0.441,0.039,0.557,0.14c0.104,0.084,0.179,0.232,0.168,0.414
		c-0.01,0.175-0.096,0.318-0.211,0.416c-0.14,0.121-0.35,0.157-0.649,0.157L58.909,28.806L58.909,28.806z M22.935,28.88
		c0.707-0.742,1.07-1.116,1.795-1.863c-0.75-0.739-1.129-1.11-1.887-1.854c-1.375,0-2.747,0-4.123,0.004
		c0.025,0.465,0.043,0.695,0.068,1.162c1.43-0.002,2.15-0.002,3.594-0.006c0.025,0.521,0.037,0.781,0.062,1.296
		c-1.438,0.004-2.16,0.004-3.583,0.006c0.032,0.504,0.042,0.759,0.074,1.261C20.271,28.885,21.599,28.883,22.935,28.88L22.935,28.88
		z M29.461,29.62c-0.043-1.702-0.082-3.397-0.119-5.093c-1.005,1.004-1.502,1.509-2.484,2.51
		C27.903,28.073,28.429,28.587,29.461,29.62L29.461,29.62z M33.197,26.777c0.641,0,1.037-0.293,1.037-0.843
		c-0.006-0.552-0.427-0.78-1.031-0.777c-0.872,0-1.307,0-2.18,0c0.012,0.651,0.016,0.974,0.025,1.621
		C31.91,26.777,32.336,26.777,33.197,26.777L33.197,26.777z M44.469,23.844c1.829-0.004,3.656-0.004,5.486-0.004
		c-0.023,0.522-0.036,0.784-0.059,1.308c-1.277,0.002-2.555,0.002-3.83,0.002c-0.017,0.46-0.026,0.69-0.042,1.149
		c1.497,0,2.242,0,3.719-0.002c-0.021,0.521-0.031,0.775-0.056,1.293c-1.473,0-2.218,0.004-3.711,0.004
		c-0.014,0.504-0.025,0.759-0.043,1.263c1.525,0,2.281,0,3.789,0c-0.026,0.527-0.035,0.794-0.058,1.319
		c-1.796,0.004-3.593,0.004-5.388,0.004C44.333,28.066,44.401,25.955,44.469,23.844L44.469,23.844z M41.308,26.444
		c0.215-0.115,0.346-0.336,0.352-0.607c0.01-0.27-0.116-0.465-0.33-0.567c-0.194-0.112-0.495-0.117-0.789-0.117
		c-0.818,0.002-1.228,0.002-2.054,0.002c-0.004,0.57-0.009,0.854-0.015,1.425c0.808,0,1.208,0,2.016,0
		C40.809,26.579,41.082,26.566,41.308,26.444L41.308,26.444z M55.905,26.825c0.289,0.305,0.427,0.688,0.39,1.341
		c-0.079,1.363-0.988,2.005-2.58,2.009c-1.229,0-1.848,0-3.092,0.002c0.025-0.545,0.036-0.818,0.062-1.364
		c1.245,0,1.861,0,3.088-0.002c0.3,0,0.517-0.041,0.658-0.158c0.11-0.098,0.198-0.242,0.209-0.414
		c0.011-0.187-0.068-0.332-0.168-0.418c-0.113-0.097-0.284-0.144-0.557-0.144c-1.307,0.015-3.414-0.107-3.272-1.952
		c0.074-0.891,0.72-1.88,2.405-1.88c1.287,0,1.928-0.004,3.193-0.004c-0.035,0.537-0.051,0.804-0.082,1.343
		c-1.158,0-1.738,0.004-2.913,0.004c-0.291,0-0.481,0.009-0.649,0.111c-0.178,0.102-0.253,0.252-0.264,0.455
		c-0.015,0.239,0.128,0.399,0.327,0.471c0.161,0.056,0.347,0.071,0.613,0.071c0.348,0.01,0.517,0.012,0.858,0.021
		C54.992,26.334,55.569,26.477,55.905,26.825z"/>
	<path fill-rule="evenodd" clip-rule="evenodd" fill="#FFFFFF" d="M36.024,25.934c0,1.578-1.528,2.194-2.891,2.132
		c-0.823,0-1.238,0-2.062,0c0.015,0.854,0.02,1.276,0.038,2.124c-1.277,0-1.915,0-3.191,0.004c-0.83-0.836-1.247-1.252-2.089-2.094
		c-0.808,0.844-1.213,1.262-2.011,2.096c-2.134,0-4.272,0.002-6.404,0.004c-0.137-2.118-0.267-4.24-0.4-6.355
		c2.213,0,4.422,0,6.628,0c0.856,0.837,1.282,1.254,2.129,2.089c0.814-0.835,1.225-1.253,2.053-2.089c1.79,0,3.578,0,5.368,0
		C34.521,23.786,36.024,24.386,36.024,25.934L36.024,25.934z M58.909,28.806v-0.003c-0.644,0-1.191,0-2.025,0.003v0.004h-0.011
		c-0.027,0.542-0.043,0.817-0.062,1.36c1.244,0,1.859,0,3.087,0c1.593,0,2.501-0.647,2.586-2.01
		c0.037-0.653-0.106-1.037-0.396-1.342c-0.335-0.348-0.914-0.487-1.775-0.507c-0.341-0.007-0.509-0.015-0.851-0.023
		c-0.273,0-0.451-0.015-0.62-0.069c-0.197-0.07-0.335-0.23-0.325-0.469c0.012-0.203,0.084-0.351,0.268-0.456
		c0.164-0.104,0.351-0.116,0.647-0.116c1.171,0,1.753,0,2.908-0.002c0.037-0.534,0.054-0.803,0.085-1.338c-1.266,0-1.906,0-3.193,0
		c-1.68,0-2.333,0.991-2.401,1.878c-0.058,0.716,0.228,1.17,0.662,1.461l0.016,0.005l0.006,0.008
		c0.361,0.234,0.835,0.359,1.312,0.422V27.61c0.441,0.061,0.889,0.066,1.271,0.066c0.274-0.004,0.441,0.039,0.557,0.14
		c0.104,0.084,0.179,0.232,0.168,0.414c-0.01,0.175-0.096,0.318-0.211,0.416c-0.14,0.121-0.35,0.157-0.649,0.157L58.909,28.806
		L58.909,28.806z M59.074,22.609c-0.653,0.058-1.162,0.234-1.546,0.493c0.012-0.204,0.023-0.309,0.031-0.512
		c-1.449-0.003-2.9-0.003-4.348-0.003c-0.708,0-1.55,0.163-1.96,0.515c0.012-0.207,0.017-0.311,0.026-0.517
		c-2.689,0-5.379,0-8.068-0.003c-0.004,0.207-0.004,0.309-0.011,0.516c-0.642-0.426-1.738-0.516-2.247-0.52
		c-1.808,0-3.62,0-5.434-0.002c0,0.206,0,0.314,0,0.519c-0.513-0.45-1.675-0.519-2.377-0.519c-2.028,0-4.061-0.002-6.09-0.002
		c-0.535,0.544-0.802,0.816-1.338,1.361c-0.538-0.545-0.805-0.817-1.344-1.365c-2.968,0-5.936-0.002-8.904-0.005
		c0.193,2.954,0.387,5.911,0.582,8.861c2.841,0,5.679,0,8.517,0c0.531-0.542,0.797-0.814,1.333-1.364
		c0.542,0.55,0.815,0.822,1.355,1.364c1.775,0.004,3.55,0.004,5.328,0.006c-0.012-0.827-0.018-1.243-0.032-2.071
		c0.215,0,0.319,0,0.529-0.004c0.714,0.01,1.556-0.016,2.296-0.312c0,0.958,0,1.431,0.005,2.381c1.466,0,2.931,0,4.392,0
		c0.009-0.921,0.016-1.382,0.03-2.301c0.085,0,0.127-0.004,0.211-0.004c0.273,0,0.299,0.011,0.295,0.262
		c-0.012,0.815-0.017,1.229-0.025,2.043c4.377,0,8.749,0,13.126,0c0.813,0,1.669-0.203,2.158-0.567l-0.026,0.567
		c1.341,0,2.674,0,4.013,0c0.07,0,0.144,0,0.216-0.003h0.18c2.053-0.002,3.698-0.98,3.822-3.183c0.044-0.664-0.05-1.275-0.373-1.81
		h0.163l0.075-1.172c0.025-0.446,0.053-0.894,0.085-1.341l0.078-1.329h-1.33c-1.067,0-2.13,0-3.193,0
		C59.2,22.59,59.132,22.594,59.074,22.609L59.074,22.609z M22.935,28.88c0.707-0.742,1.07-1.116,1.795-1.863
		c-0.75-0.739-1.129-1.11-1.887-1.854c-1.375,0-2.747,0-4.123,0.004c0.025,0.465,0.043,0.695,0.068,1.162
		c1.43-0.002,2.15-0.002,3.594-0.006c0.025,0.521,0.037,0.781,0.062,1.296c-1.438,0.004-2.16,0.004-3.583,0.006
		c0.032,0.504,0.042,0.759,0.074,1.261C20.271,28.885,21.599,28.883,22.935,28.88L22.935,28.88z M29.461,29.62
		c-0.043-1.702-0.082-3.397-0.119-5.093c-1.005,1.004-1.502,1.509-2.484,2.51C27.903,28.073,28.429,28.587,29.461,29.62
		L29.461,29.62z M33.197,26.777c0.641,0,1.037-0.293,1.037-0.843c-0.006-0.552-0.427-0.78-1.031-0.777c-0.872,0-1.307,0-2.18,0
		c0.012,0.651,0.016,0.974,0.025,1.621C31.91,26.777,32.336,26.777,33.197,26.777L33.197,26.777z M44.469,23.844
		c1.829-0.004,3.656-0.004,5.486-0.004c-0.023,0.522-0.036,0.784-0.059,1.308c-1.277,0.002-2.555,0.002-3.83,0.002
		c-0.017,0.46-0.026,0.69-0.042,1.149c1.497,0,2.242,0,3.726-0.002c-0.027,0.521-0.038,0.775-0.062,1.293
		c-1.473,0-2.218,0.004-3.711,0.004c-0.014,0.504-0.025,0.759-0.043,1.263c1.525,0,2.281,0,3.789,0
		c-0.026,0.527-0.035,0.794-0.058,1.319c-1.796,0.004-3.593,0.004-5.388,0.004C44.333,28.066,44.401,25.955,44.469,23.844
		L44.469,23.844z M42.284,27.237c0.364,0.123,0.657,0.346,0.794,0.53c0.226,0.312,0.254,0.598,0.241,1.158
		c-0.009,0.502-0.021,0.754-0.028,1.257c-0.652,0-0.984,0-1.643,0c0.012-0.317,0.012-0.479,0.018-0.792
		c0.01-0.381,0.063-0.95-0.237-1.242c-0.235-0.229-0.604-0.281-1.203-0.281c-0.708,0.002-1.061,0.002-1.765,0.002
		c-0.009,0.928-0.013,1.391-0.02,2.317c-0.664,0-0.989,0-1.651,0c0.006-2.115,0.016-4.23,0.027-6.342c1.288,0,2.578,0,3.865,0
		c0.847,0,1.46,0.032,2.003,0.296c0.521,0.289,0.834,0.686,0.812,1.407C43.473,26.557,42.721,27.075,42.284,27.237L42.284,27.237z
		 M41.308,26.444c-0.227,0.122-0.499,0.135-0.82,0.135c-0.808,0-1.208,0-2.016,0c0.006-0.57,0.011-0.854,0.015-1.425
		c0.826,0,1.235,0,2.054-0.002c0.294,0,0.595,0.005,0.789,0.117c0.214,0.103,0.34,0.298,0.33,0.567
		C41.654,26.108,41.523,26.329,41.308,26.444L41.308,26.444z M55.905,26.825c0.289,0.305,0.427,0.688,0.39,1.341
		c-0.079,1.363-0.988,2.005-2.58,2.009c-1.229,0-1.848,0-3.092,0.002c0.025-0.545,0.036-0.818,0.062-1.364
		c1.245,0,1.861,0,3.088-0.002c0.3,0,0.517-0.041,0.658-0.158c0.11-0.098,0.198-0.242,0.209-0.414
		c0.011-0.187-0.068-0.332-0.168-0.418c-0.113-0.097-0.284-0.144-0.557-0.144c-1.307,0.015-3.414-0.107-3.272-1.952
		c0.074-0.891,0.72-1.88,2.405-1.88c1.287,0,1.928-0.004,3.193-0.004c-0.035,0.537-0.051,0.804-0.082,1.343
		c-1.158,0-1.738,0.004-2.913,0.004c-0.291,0-0.481,0.009-0.649,0.111c-0.178,0.102-0.253,0.252-0.264,0.455
		c-0.015,0.239,0.128,0.399,0.327,0.471c0.161,0.056,0.347,0.071,0.613,0.071c0.348,0.01,0.517,0.012,0.858,0.021
		C54.992,26.334,55.569,26.477,55.905,26.825z"/>
</g>
</svg>
