<?xml version="1.0" encoding="utf-8"?>
<!-- Generator: Adobe Illustrator 16.0.0, SVG Export Plug-In . SVG Version: 6.00 Build 0)  -->
<!DOCTYPE svg PUBLIC "-//W3C//DTD SVG 1.1//EN" "http://www.w3.org/Graphics/SVG/1.1/DTD/svg11.dtd">
<svg version="1.1" id="Layer_1" xmlns="http://www.w3.org/2000/svg" xmlns:xlink="http://www.w3.org/1999/xlink" x="0px" y="0px"
	 width="65.709px" height="43.114px" viewBox="0 0 65.709 43.114" enable-background="new 0 0 65.709 43.114" xml:space="preserve">
<g>
	<path fill-rule="evenodd" clip-rule="evenodd" fill="#E3E4E4" d="M4.184,0h57.333c2.289,0,4.16,1.869,4.16,4.158v34.757
		c0,2.289-1.871,4.158-4.16,4.158H4.184c-2.281,0-4.156-1.869-4.156-4.158V4.158C0.028,1.869,1.903,0,4.184,0z"/>
	<path fill-rule="evenodd" clip-rule="evenodd" fill="#F0F0F0" d="M4.184,0h57.339c2.283,0,4.158,1.869,4.158,4.158v0.551
		L4.287,43.073H4.184c-2.281,0-4.156-1.869-4.156-4.158V4.158C0.028,1.869,1.903,0,4.184,0z"/>
	<path fill-rule="evenodd" clip-rule="evenodd" fill="#D81E27" d="M37.012,21.535c0,7.107-5.759,12.859-12.862,12.859
		c-7.103,0-12.861-5.752-12.861-12.859c0-7.101,5.759-12.86,12.861-12.86C31.253,8.675,37.012,14.434,37.012,21.535z"/>
	<path fill-rule="evenodd" clip-rule="evenodd" fill="#F79E1C" d="M54.421,21.535c0,7.107-5.761,12.859-12.864,12.859
		c-7.102,0-12.859-5.752-12.859-12.859c0-7.101,5.758-12.86,12.859-12.86C48.661,8.675,54.421,14.434,54.421,21.535z"/>
</g>
</svg>
