<?xml version="1.0" encoding="utf-8"?>
<!-- Generator: Adobe Illustrator 16.0.0, SVG Export Plug-In . SVG Version: 6.00 Build 0)  -->
<!DOCTYPE svg PUBLIC "-//W3C//DTD SVG 1.1//EN" "http://www.w3.org/Graphics/SVG/1.1/DTD/svg11.dtd">
<svg version="1.1" id="Layer_1" xmlns="http://www.w3.org/2000/svg" xmlns:xlink="http://www.w3.org/1999/xlink" x="0px" y="0px"
	 width="65.709px" height="43.114px" viewBox="0 0 65.709 43.114" enable-background="new 0 0 65.709 43.114" xml:space="preserve">
<g>
	<path fill-rule="evenodd" clip-rule="evenodd" fill="#DB2659" d="M14.228,7.739l29.179-7.632l5.121,18.937l11.208-2.898
		L48.982,30.247l-0.11,0.027c0,0-0.979,0.268-1.29,0.09s0.355-1.424,0.712-2.27c0.355-0.846,1.023-2.891,1.602-4.047
		c0.578-1.158,1.424-2.092,1.646-2.182c0.223-0.088,0.356-0.889,0.268-1.244c-0.089-0.357,0-0.758-0.356-0.758
		c-0.355,0-0.622,1.068-1.111,1.691c-0.49,0.623-1.602,2.73-2.536,4.658c-0.935,1.93-2.768,4.145-3.681,5.053
		c-0.979,0.773-0.189-0.725-0.102-1.17c0.09-0.445,0.668-1.691,0.668-1.691s0.801-0.889-0.223-0.578
		c-1.022,0.312-1.957,1.824-1.957,1.824s-2.536,3.158-3.425,3.781c-0.89,0.623-0.668-0.355-0.489-1.334
		c0.177-0.979,1.289-2.135,1.289-2.135l0.445-0.18c0,0-0.267,0.98-0.045,0.936c0.223-0.045,0.489-0.445,0.534-0.801
		c0.044-0.357,0-1.824-0.267-1.646c-0.268,0.178-1.69,1.469-2.136,2.002c-0.444,0.535-2.046,2.535-2.625,3.471
		c-0.578,0.934-0.177-0.49-0.177-0.49s0.223-0.801,0.267-1.156s-0.445-0.178-0.445-0.178l-0.667,0.666c0,0-0.134,0.135-0.134,0.668
		s-0.667,1.289-1.335,1.691c-0.666,0.4-0.399-0.357-0.399-0.357s0.223-0.934,0.89-2.045s1.379-1.201,1.779-1.381
		c0.4-0.178,0.222-0.443,0.089-0.666c-0.134-0.223-0.573-0.061-0.712,0.045c-0.305,0.24-5.258,4.379-5.472,5.115
		c-0.215,0.736,0.489,0.18,0.489,0.18l1.958-2.129l0.089-0.098l-0.045,0.49c0,0-0.578,1.023-0.445,1.736
		c0.146,0.572,0.579,0.447,0.891,0.428c0.312-0.043,0.934-0.918,1.335-1.23c0.399-0.311,0.443,0.045,0.577,0.312
		c0.134,0.266,0.712-0.09,0.712-0.09s1.335-1.824,1.646-2.225s0.712-0.4,0.712-0.4s-0.178,0.535,0.267,1.246
		c0.443,0.711,1.245,0.178,1.735-0.133c0.488-0.312,2.046-2.27,2.402-2.76c0.355-0.488,0.845-0.578,0.845-0.578
		s-0.267,1.559-0.178,1.959s0.757,0.488,1.556-0.268c0.801-0.756,2.481-3.225,2.481-3.225s-0.434,1.223-0.301,2.156
		c0.134,0.936,0.931,0.666,1.275,0.559c0.279-0.186,0.592-0.352,0.853-0.488l-9.078,11.906l-12.397-5.43
		c0.399-1.188,1.773-5.283,1.824-5.436c1.364-0.428,2.687-0.846,2.687-0.846c0.131-0.318,0.276-0.77,0.571-1.299
		c0.294-0.531-0.413-0.414-0.413-0.414s-1.205,0.889-1.735,1.066c-0.733,0.379-0.446-0.416-0.446-0.416s1.062-2.182,1.415-3.068
		c0.354-0.883,1.356-0.883,2.182-1.238c0.826-0.352,6.428-2.121,7.371-2.475c0.943-0.355,0.768-1.77,0.768-1.77
		s-1.003,0.531-1.77,0.768c-0.767,0.234-5.956,2.238-6.546,2.533c-0.589,0.297-0.294-0.234-0.294-0.646
		c0-0.414-0.295-0.236-0.295-0.236s-0.708,0.354-1.18,0.471s-0.767,0.943-0.767,0.943s-4.658,2.123-5.66,3.303
		c-1.003,1.18,0.589,0.648,0.589,0.648s4.481-2.652,4.128-2.004s-1.888,4.244-1.888,4.244s-1.474,1.002-2.004,1.416
		c-0.531,0.412-0.295,1.238-0.295,1.238s2.123-1.709,1.886-1.18c-0.196,0.443-0.884,3.098-1.107,3.969L8.141,29.383l10.821-2.9
		L14.228,7.739L14.228,7.739z M36.626,29.069c0,0,1.191-1.418,1.362-1.871c0.169-0.453,0.907-0.512,0.851,0
		c-0.058,0.51-1.248,1.531-1.248,1.531s-0.568,0.682-0.852,0.682S36.626,29.069,36.626,29.069L36.626,29.069z M44.886,26.709
		c0,0-0.374,0.055-0.321-0.586c0.055-0.641,0.215-0.533,0.534-0.803c0.321-0.266,0.588-0.639,0.588-0.105
		c0,0.535-0.053,0.801-0.32,1.121S44.886,26.709,44.886,26.709L44.886,26.709z"/>
	<path fill="#5D6A88" d="M5.974,17.646l6.523-1.691c1.184-0.307,2.18-0.453,2.985-0.436c0.85-0.014,1.556,0.113,2.119,0.385
		c0.564,0.271,0.988,0.688,1.272,1.252c0.118,0.234,0.211,0.504,0.279,0.811c0.453,2.258-1.161,3.863-4.842,4.816l-2.288,0.594
		l0.738,3.121L8.3,27.653L5.974,17.646L5.974,17.646z M10.989,18.817l0.482,2.23l1.928-0.5c0.556-0.145,0.972-0.387,1.248-0.729
		c0.277-0.342,0.323-0.695,0.141-1.059c-0.276-0.547-1.101-0.643-2.475-0.287L10.989,18.817L10.989,18.817z M20.381,13.909
		l4.557-1.182l7.205,8.744l-4.443,1.15l-0.856-1.189l-4.463,1.156l-0.184,1.461l-4.349,1.129L20.381,13.909L20.381,13.909z
		 M22.758,20.282l2.817-0.729l-2.239-3.217L22.758,20.282L22.758,20.282z M37.584,16.526l-0.513-2.162l6.106-1.584l1.268,5.527
		l-2.836,0.736l-0.421-0.92c-0.801,1.07-2.064,1.83-3.792,2.277c-1.739,0.451-3.27,0.46-4.592,0.029
		c-1.323-0.432-2.259-1.195-2.81-2.289l-0.276-0.59l-0.123-0.543c-0.365-1.572-0.062-3.021,0.912-4.344
		c0.499-0.678,1.159-1.264,1.979-1.756c0.821-0.492,1.805-0.887,2.951-1.186c0.618-0.16,1.162-0.27,1.632-0.328
		c0.47-0.057,0.983-0.07,1.541-0.037c0.963,0.045,1.802,0.266,2.516,0.664s1.252,0.959,1.614,1.68l0.026,0.051l-4.235,1.1
		c-0.536-0.754-1.403-0.977-2.601-0.666c-1.967,0.51-2.507,2-1.619,4.469c0.581,1.152,1.647,1.529,3.197,1.127
		c0.479-0.123,0.929-0.355,1.35-0.695c0.42-0.34,0.645-0.695,0.672-1.064L37.584,16.526L37.584,16.526z M49.829,5.993
		c2.004-0.52,3.682-0.542,5.031-0.069c0.642,0.227,1.224,0.548,1.745,0.962c0.244,0.201,0.463,0.421,0.654,0.661
		c0.192,0.24,0.367,0.515,0.524,0.828l0.249,0.496l0.128,0.422c0.252,0.926,0.206,1.875-0.139,2.848
		c-0.343,0.971-1.015,1.852-2.014,2.641c-1,0.789-2.249,1.379-3.749,1.768c-2.029,0.525-3.726,0.547-5.089,0.062
		c-1.363-0.486-2.32-1.275-2.871-2.369l-0.127-0.381l-0.16-0.443l-0.133-0.393c-0.194-0.979-0.127-1.908,0.201-2.781
		c0.329-0.875,0.991-1.703,1.986-2.488C47.062,6.973,48.315,6.384,49.829,5.993L49.829,5.993z M50.358,8.444
		c-1.94,0.504-2.5,1.969-1.677,4.395c0.607,1.207,1.611,1.629,3.01,1.266c1.11-0.289,1.782-0.877,2.019-1.766
		c0.235-0.891,0.137-1.766-0.296-2.625c-0.284-0.564-0.683-0.963-1.192-1.199C51.71,8.278,51.089,8.257,50.358,8.444L50.358,8.444z"
		/>
</g>
</svg>
