<?xml version="1.0" encoding="utf-8"?>
<!-- Generator: Adobe Illustrator 16.0.0, SVG Export Plug-In . SVG Version: 6.00 Build 0)  -->
<!DOCTYPE svg PUBLIC "-//W3C//DTD SVG 1.1//EN" "http://www.w3.org/Graphics/SVG/1.1/DTD/svg11.dtd">
<svg version="1.1" id="Layer_1" xmlns="http://www.w3.org/2000/svg" xmlns:xlink="http://www.w3.org/1999/xlink" x="0px" y="0px"
	 width="174.751px" height="43.114px" viewBox="0 0 174.751 43.114" enable-background="new 0 0 174.751 43.114"
	 xml:space="preserve">
<g>
	<text transform="matrix(1 0 0 1 12.4102 25.6997)"><tspan x="0" y="0" fill="#029ACD" font-family="'Avenir-BlackOblique'" font-size="20.872">Pago</tspan><tspan x="49.403" y="0" fill="#E09732" font-family="'Avenir-BlackOblique'" font-size="20.872">Mis</tspan><tspan x="83.57" y="0" fill="#029ACD" font-family="'Avenir-BlackOblique'" font-size="20.872">Cuentas</tspan></text>
	<path fill="#029ACD" d="M9,24.667c0-0.553-0.448-1-1-1H3c-0.552,0-1,0.447-1,1l0,0c0,0.553,0.448,1,1,1h5
		C8.552,25.667,9,25.219,9,24.667L9,24.667z"/>
	<path fill="#029ACD" d="M10,18.161c0-0.91-0.985-1.494-1.896-1.494H1.402C0.491,16.667,0,17.25,0,18.161v0.701
		c0,0.912,0.491,1.805,1.402,1.805h6.701c0.911,0,1.896-0.893,1.896-1.805V18.161z"/>
	<path fill="#029ACD" d="M11,12.667c0-0.552-0.448-1-1-1H5c-0.552,0-1,0.448-1,1l0,0c0,0.552,0.448,1,1,1h5
		C10.552,13.667,11,13.219,11,12.667L11,12.667z"/>
</g>
</svg>
