<?xml version="1.0" encoding="utf-8"?>
<!-- Generator: Adobe Illustrator 16.0.0, SVG Export Plug-In . SVG Version: 6.00 Build 0)  -->
<!DOCTYPE svg PUBLIC "-//W3C//DTD SVG 1.1//EN" "http://www.w3.org/Graphics/SVG/1.1/DTD/svg11.dtd">
<svg version="1.1" id="Layer_1" xmlns="http://www.w3.org/2000/svg" xmlns:xlink="http://www.w3.org/1999/xlink" x="0px" y="0px"
	 width="65.709px" height="43.114px" viewBox="0 0 65.709 43.114" enable-background="new 0 0 65.709 43.114" xml:space="preserve">
<g>
	<path fill-rule="evenodd" clip-rule="evenodd" fill="#E3E4E4" d="M4.19,0.015h57.337c2.29,0,4.159,1.872,4.159,4.159v34.759
		c0,2.29-1.869,4.159-4.159,4.159H4.19c-2.288,0-4.159-1.869-4.159-4.159V4.174C0.031,1.887,1.902,0.015,4.19,0.015z"/>
	<path fill-rule="evenodd" clip-rule="evenodd" fill="#F0F0F0" d="M4.19,0.015h57.339c2.284,0,4.16,1.872,4.16,4.159v0.553
		L4.286,43.092H4.19c-2.288,0-4.159-1.869-4.159-4.159V4.174C0.031,1.887,1.902,0.015,4.19,0.015z"/>
	<g>
		<path fill-rule="evenodd" clip-rule="evenodd" fill="#0F5A8F" d="M46.32,15.408c-0.211-0.412-0.53-0.747-0.939-1.004
			c-0.414-0.26-0.913-0.441-1.48-0.545c-0.574-0.106-1.245-0.159-2.011-0.159h-3.565c-0.369,0-0.734,0.291-0.815,0.649
			l-2.413,10.448c-0.083,0.356,0.152,0.647,0.515,0.647h1.71c0.367,0,0.736-0.291,0.818-0.647l0.583-2.532
			c0.088-0.354,0.448-0.649,0.819-0.649h0.488c2.09,0,3.711-0.43,4.872-1.284c1.161-0.86,1.744-1.983,1.744-3.38
			C46.646,16.334,46.541,15.821,46.32,15.408L46.32,15.408L46.32,15.408z M42.635,18.822c-0.516,0.374-1.23,0.564-2.159,0.564
			h-0.421c-0.365,0-0.599-0.293-0.516-0.652l0.515-2.216c0.081-0.355,0.447-0.648,0.812-0.648h0.561
			c0.656,0,1.148,0.109,1.485,0.333c0.326,0.216,0.493,0.557,0.493,1.014C43.405,17.911,43.146,18.446,42.635,18.822z"/>
	</g>
	<g>
		<path fill-rule="evenodd" clip-rule="evenodd" fill="#0F5A8F" d="M51.002,25.445h2.148c0.367,0,0.732-0.291,0.819-0.647
			l1.241-5.378c0.031-0.127,0.057-0.273,0.076-0.442c0.016-0.171,0.027-0.308,0.027-0.41c0-0.767-0.327-1.326-0.973-1.687
			c-0.65-0.364-1.664-0.546-3.05-0.546c-0.688,0-1.377,0.052-2.067,0.157c-0.694,0.105-1.204,0.204-1.536,0.288L47.4,18.246
			c-0.069,0.357-0.01,0.654,0.133,0.654c0.278-0.103,0.704-0.232,1.266-0.392c0.563-0.158,1.076-0.237,1.541-0.237
			c0.687,0,1.205,0.07,1.546,0.22c0.345,0.148,0.521,0.405,0.521,0.771c0,0.088-0.012,0.167-0.027,0.242
			c-0.016,0.072-0.033,0.125-0.036,0.153c-0.978,0.058-1.89,0.15-2.732,0.271c-0.835,0.122-1.557,0.317-2.168,0.592
			c-0.645,0.29-1.133,0.678-1.464,1.165s-0.495,1.079-0.495,1.78c0,0.663,0.232,1.202,0.699,1.615c0.463,0.414,1.06,0.62,1.796,0.62
			c0.456,0,0.813-0.032,1.07-0.098c0.257-0.063,0.531-0.157,0.825-0.281c0.217-0.096,0.452-0.226,0.704-0.392
			c0.248-0.166,0.467-0.307,0.644-0.426L51.002,25.445L51.002,25.445L51.002,25.445z M51.541,23.14
			c-0.28,0.197-0.579,0.363-0.894,0.491c-0.315,0.133-0.615,0.197-0.891,0.197c-0.425,0-0.75-0.064-0.969-0.188
			c-0.227-0.123-0.336-0.334-0.336-0.641c0-0.344,0.085-0.622,0.25-0.834c0.17-0.206,0.41-0.37,0.727-0.486
			c0.31-0.109,0.684-0.193,1.128-0.253c0.436-0.056,0.909-0.104,1.412-0.148L51.541,23.14z"/>
	</g>
	<path fill-rule="evenodd" clip-rule="evenodd" fill="#0F5A8F" d="M60.772,13.794l-2.44,11.005
		c-0.078,0.354-0.444,0.648-0.812,0.648h-1.527c-0.368,0-0.603-0.294-0.516-0.648l2.283-10.357c0.088-0.354,0.456-0.648,0.82-0.648
		H60.772z"/>
	<g>
		<path fill-rule="evenodd" clip-rule="evenodd" fill="#16295A" d="M16.188,15.426c-0.213-0.41-0.524-0.746-0.94-1.001
			c-0.421-0.261-0.91-0.44-1.479-0.548c-0.577-0.104-1.245-0.157-2.012-0.157H8.193c-0.374,0-0.736,0.292-0.819,0.649l-2.41,10.447
			c-0.083,0.356,0.147,0.648,0.52,0.648h1.709c0.365,0,0.733-0.292,0.816-0.645l0.583-2.535c0.083-0.357,0.45-0.65,0.821-0.65H9.9
			c2.089,0,3.712-0.425,4.872-1.283c1.162-0.857,1.744-1.982,1.744-3.383C16.517,16.354,16.403,15.84,16.188,15.426L16.188,15.426
			L16.188,15.426z M12.497,18.842c-0.508,0.374-1.228,0.564-2.149,0.564H9.925c-0.366,0-0.603-0.293-0.519-0.651l0.514-2.217
			c0.085-0.359,0.451-0.65,0.82-0.65h0.555c0.652,0,1.147,0.113,1.481,0.335c0.33,0.218,0.499,0.557,0.499,1.013
			C13.275,17.93,13.019,18.466,12.497,18.842z"/>
	</g>
	<g>
		<path fill-rule="evenodd" clip-rule="evenodd" fill="#16295A" d="M20.872,25.464h2.148c0.367,0,0.733-0.292,0.816-0.645
			l1.244-5.383c0.035-0.127,0.058-0.274,0.071-0.443c0.021-0.167,0.03-0.305,0.03-0.407c0.001-0.764-0.323-1.327-0.974-1.69
			c-0.646-0.363-1.663-0.543-3.047-0.543c-0.692,0-1.378,0.05-2.068,0.161c-0.692,0.106-1.207,0.202-1.533,0.286l-0.289,1.464
			c-0.074,0.361-0.009,0.656,0.132,0.656c0.282-0.105,0.698-0.237,1.265-0.394c0.565-0.156,1.077-0.236,1.542-0.236
			c0.682,0,1.201,0.072,1.545,0.22c0.348,0.149,0.52,0.405,0.52,0.771c0,0.086-0.013,0.167-0.025,0.239
			c-0.02,0.073-0.032,0.127-0.037,0.159c-0.979,0.058-1.885,0.146-2.729,0.265c-0.839,0.125-1.561,0.323-2.169,0.596
			c-0.645,0.29-1.135,0.678-1.465,1.164c-0.332,0.487-0.499,1.081-0.499,1.78c0,0.663,0.233,1.203,0.701,1.615
			c0.466,0.412,1.064,0.62,1.795,0.62c0.46,0,0.816-0.034,1.074-0.098c0.257-0.065,0.533-0.157,0.825-0.278
			c0.215-0.098,0.451-0.229,0.703-0.395c0.25-0.168,0.468-0.309,0.64-0.427L20.872,25.464L20.872,25.464L20.872,25.464z
			 M21.407,23.156c-0.281,0.201-0.577,0.366-0.894,0.498c-0.316,0.129-0.613,0.191-0.891,0.191c-0.423,0-0.75-0.06-0.971-0.184
			c-0.218-0.121-0.331-0.338-0.331-0.643c0-0.344,0.082-0.623,0.246-0.834c0.173-0.206,0.415-0.367,0.731-0.487
			c0.314-0.108,0.685-0.192,1.123-0.252c0.444-0.057,0.914-0.105,1.412-0.146L21.407,23.156z"/>
	</g>
	<path fill-rule="evenodd" clip-rule="evenodd" fill="#16295A" d="M33.871,16.339c-0.366,0-0.851,0.297-1.071,0.652l-3.021,5.174
		L28.953,17c-0.083-0.359-0.449-0.652-0.819-0.652H26.61c-0.368,0-0.603,0.293-0.52,0.652l1.324,8.533
		c0.023,0.186,0.049,0.342,0.07,0.472l-1.644,2.751c-0.218,0.355-0.102,0.649,0.264,0.649h1.771c0.368,0,0.845-0.294,1.066-0.649
		l7.365-12.417H33.871z"/>
</g>
</svg>
