<?xml version="1.0" encoding="utf-8"?>
<!-- Generator: Adobe Illustrator 16.0.0, SVG Export Plug-In . SVG Version: 6.00 Build 0)  -->
<!DOCTYPE svg PUBLIC "-//W3C//DTD SVG 1.1//EN" "http://www.w3.org/Graphics/SVG/1.1/DTD/svg11.dtd">
<svg version="1.1" id="Layer_1" xmlns="http://www.w3.org/2000/svg" xmlns:xlink="http://www.w3.org/1999/xlink" x="0px" y="0px"
	 width="65.709px" height="43.114px" viewBox="0 0 65.709 43.114" enable-background="new 0 0 65.709 43.114" xml:space="preserve">
<g>
	<path fill-rule="evenodd" clip-rule="evenodd" fill="#253D83" d="M4.161,0h57.387c2.291,0,4.161,1.873,4.161,4.162v34.792
		c0,2.289-1.87,4.16-4.161,4.16H4.161C1.875,43.114,0,41.243,0,38.954V4.162C0,1.873,1.875,0,4.161,0z"/>
	<path fill-rule="evenodd" clip-rule="evenodd" fill="#294795" d="M4.161,0h57.394c2.284,0,4.159,1.873,4.159,4.162v0.555
		L4.261,43.114h-0.1C1.875,43.114,0,41.243,0,38.954V4.162C0,1.873,1.875,0,4.161,0z"/>
	<rect y="9.492" fill-rule="evenodd" clip-rule="evenodd" fill="#FFFFFF" width="65.709" height="24.136"/>
	<path fill-rule="evenodd" clip-rule="evenodd" fill="#253D83" d="M21.823,13.573l-4.057,10.932l-0.43-2.223v-0.002l-1.451-7.359
		c-0.247-1.02-0.976-1.314-1.877-1.352H7.331l-0.036,0.275c1.609,0.411,3.045,1.007,4.306,1.75l3.706,13.995h4.382l6.516-16.017
		H21.823z"/>
	<polygon fill-rule="evenodd" clip-rule="evenodd" fill="#253D83" points="25.292,29.596 27.882,13.561 32.023,13.561 
		29.432,29.596 	"/>
	<path fill-rule="evenodd" clip-rule="evenodd" fill="#253D83" d="M44.449,13.959c-0.813-0.329-2.106-0.681-3.708-0.681
		c-4.094,0-6.975,2.176-7.001,5.29c-0.025,2.312,2.061,3.595,3.628,4.363c1.611,0.783,2.151,1.289,2.148,1.99
		c-0.017,1.069-1.288,1.56-2.482,1.56c-1.653,0-2.531-0.238-3.887-0.84l-0.542-0.253l-0.577,3.587
		c0.966,0.451,2.752,0.836,4.613,0.858c4.346,0,7.172-2.154,7.209-5.479c0.017-1.826-1.088-3.213-3.483-4.357
		c-1.44-0.741-2.338-1.235-2.321-1.989c0.005-0.665,0.75-1.377,2.373-1.377c1.358-0.029,2.329,0.286,3.102,0.616l0.368,0.187
		L44.449,13.959z"/>
	<path fill-rule="evenodd" clip-rule="evenodd" fill="#253D83" d="M49.962,23.911c0.347-0.921,1.648-4.48,1.648-4.48
		c-0.024,0.043,0.336-0.932,0.554-1.532l0.272,1.386c0,0,0.8,3.825,0.963,4.625C52.758,23.911,50.771,23.911,49.962,23.911
		L49.962,23.911z M55.064,13.577H51.87c-0.993,0-1.734,0.287-2.176,1.329L43.55,29.6h4.353c0,0,0.71-1.978,0.866-2.41
		c0.479,0,4.699,0.007,5.303,0.007c0.125,0.562,0.504,2.403,0.504,2.403h3.841L55.064,13.577z"/>
	<path fill-rule="evenodd" clip-rule="evenodd" fill="#E0A126" d="M65.714,33.627H0v5.327c0,2.288,1.875,4.159,4.161,4.159h57.394
		c2.284,0,4.159-1.871,4.159-4.159V33.627z"/>
</g>
</svg>
