<?xml version="1.0" encoding="utf-8"?>
<!-- Generator: Adobe Illustrator 16.0.0, SVG Export Plug-In . SVG Version: 6.00 Build 0)  -->
<!DOCTYPE svg PUBLIC "-//W3C//DTD SVG 1.1//EN" "http://www.w3.org/Graphics/SVG/1.1/DTD/svg11.dtd">
<svg version="1.1" id="Layer_1" xmlns="http://www.w3.org/2000/svg" xmlns:xlink="http://www.w3.org/1999/xlink" x="0px" y="0px"
	 width="65.754px" height="65.754px" viewBox="0 0 65.754 65.754" enable-background="new 0 0 65.754 65.754" xml:space="preserve">
<g>
	<g>
	</g>
	<g>
		<path fill="#FFFFFF" d="M48.056,47.705c-4.348,0-12.369-3.883-19.96-9.663c-8.077-6.15-13.734-12.888-14.078-16.766
			c-0.083-0.937,0.139-1.698,0.658-2.263c0.603-0.656,1.561-0.988,2.846-0.988c4.348,0,12.369,3.883,19.96,9.664
			c8.076,6.15,13.733,12.886,14.077,16.765c0.083,0.938-0.139,1.699-0.658,2.264C50.299,47.373,49.341,47.705,48.056,47.705z
			 M17.522,19.076c-0.979,0-1.677,0.218-2.072,0.648c-0.312,0.338-0.441,0.83-0.385,1.459c0.314,3.546,5.934,10.134,13.667,16.022
			c7.422,5.651,15.188,9.448,19.324,9.448c0.979,0,1.677-0.218,2.072-0.647c0.311-0.339,0.44-0.829,0.385-1.459
			c-0.314-3.546-5.935-10.135-13.667-16.022C29.423,22.873,21.657,19.076,17.522,19.076z"/>
	</g>
	<g>
		<path fill="#FFFFFF" d="M32.758,54.377h-0.003c-2.068,0-3.954-2.299-5.311-6.508c-1.298-4.025-2.007-9.354-1.999-15.026
			c0.009-5.669,0.736-11,2.046-15.022c1.37-4.204,3.262-6.517,5.329-6.517c2.071,0.002,3.958,2.324,5.314,6.532
			c1.298,4.025,2.008,9.366,1.999,15.038c-0.01,5.67-0.735,10.984-2.046,15.006C36.717,52.084,34.824,54.377,32.758,54.377z
			 M32.822,12.358c-3.04,0-6.306,8.237-6.325,20.498c-0.009,5.563,0.495,10.789,1.759,14.712c1.188,3.686,3.121,5.801,4.121,5.803
			v0.526v-0.526c3,0,6.494-8.236,6.515-20.498c0.008-5.564-0.588-10.789-1.854-14.712C35.85,14.475,34.374,12.361,32.822,12.358z"/>
	</g>
	<g>
		<path fill="#FFFFFF" d="M17.563,47.765c-1.271,0-2.221-0.329-2.822-0.978c-0.522-0.562-0.748-1.324-0.668-2.262
			c0.327-3.88,5.952-10.639,13.999-16.819c7.587-5.826,15.602-9.741,19.945-9.741c1.271,0,2.22,0.329,2.82,0.977
			c0.523,0.563,0.748,1.325,0.669,2.263c-0.326,3.88-5.952,10.639-13.998,16.819C29.919,43.85,21.905,47.765,17.563,47.765z
			 M48.016,19.017c-4.13,0-11.887,3.827-19.304,9.523c-7.704,5.918-13.293,12.527-13.591,16.073
			c-0.053,0.631,0.079,1.122,0.392,1.459c0.394,0.425,1.084,0.641,2.051,0.641c4.128,0,11.886-3.827,19.303-9.523
			c7.703-5.917,13.292-12.526,13.591-16.073c0.054-0.631-0.078-1.122-0.392-1.459C49.671,19.232,48.981,19.017,48.016,19.017z"/>
	</g>
	<g>
		<circle fill="#FFFFFF" cx="33.065" cy="33.029" r="3.416"/>
	</g>
	<g>
		<circle fill="#CDCDCD" cx="17.25" cy="47.26" r="2.603"/>
	</g>
	<g>
		<circle fill="#CDCDCD" cx="36.188" cy="14.474" r="2.603"/>
	</g>
	<g>
		<circle fill="#CDCDCD" cx="49.614" cy="47.062" r="2.603"/>
	</g>
</g>
</svg>
