<?xml version="1.0" encoding="utf-8"?>
<!-- Generator: Adobe Illustrator 16.0.0, SVG Export Plug-In . SVG Version: 6.00 Build 0)  -->
<!DOCTYPE svg PUBLIC "-//W3C//DTD SVG 1.1//EN" "http://www.w3.org/Graphics/SVG/1.1/DTD/svg11.dtd">
<svg version="1.1" id="Layer_1" xmlns="http://www.w3.org/2000/svg" xmlns:xlink="http://www.w3.org/1999/xlink" x="0px" y="0px"
	 width="74.933px" height="74.934px" viewBox="0 0 74.933 74.934" enable-background="new 0 0 74.933 74.934" xml:space="preserve">
<g>
	<path fill="#FFFFFF" d="M39.966,14.881v7.925c0,1.118-0.227,2.33-1.346,2.33h-1.664c-1.117,0-2.99-1.212-2.99-2.33v-8.069
		c-3,1.121-5.768,4.43-5.768,8.339c0,3.262,1.768,6.104,4.768,7.608v28.663l4.738,2.618l4.262-2.618V30.58
		c2-1.529,3.967-4.318,3.967-7.505C45.933,19.322,43.966,16.123,39.966,14.881z M37.849,56.967c-1.086,0-1.965-0.88-1.965-1.965
		c0-1.084,0.879-1.963,1.965-1.963c1.084,0,1.963,0.879,1.963,1.963C39.812,56.087,38.933,56.967,37.849,56.967z"/>
</g>
</svg>
