<?xml version="1.0" encoding="utf-8"?>
<!-- Generator: Adobe Illustrator 16.0.0, SVG Export Plug-In . SVG Version: 6.00 Build 0)  -->
<!DOCTYPE svg PUBLIC "-//W3C//DTD SVG 1.1//EN" "http://www.w3.org/Graphics/SVG/1.1/DTD/svg11.dtd">
<svg version="1.1" id="Layer_1" xmlns="http://www.w3.org/2000/svg" xmlns:xlink="http://www.w3.org/1999/xlink" x="0px" y="0px"
	 width="65.754px" height="65.754px" viewBox="0 0 65.754 65.754" enable-background="new 0 0 65.754 65.754" xml:space="preserve">
<g>
	<path fill="#FFFFFF" d="M35.377,12.951v6.967c0,0.982-0.433,1.459-1.416,1.459h-1.464c-0.982,0-3.12-0.477-3.12-1.459v-7.095
		c-2,0.986-4.631,3.895-4.631,7.332c0,2.868,1.631,5.367,4.631,6.689v25.201l3.71,2.302l3.29-2.302V26.753
		c2-1.345,3.867-3.797,3.867-6.598C40.244,16.855,38.377,14.042,35.377,12.951z M33.282,49.952c-0.954,0-1.727-0.773-1.727-1.728
		c0-0.953,0.773-1.727,1.727-1.727c0.952,0,1.727,0.773,1.727,1.727C35.009,49.179,34.234,49.952,33.282,49.952z"/>
</g>
</svg>
