<?xml version="1.0" encoding="utf-8"?>
<!-- Generator: Adobe Illustrator 16.0.0, SVG Export Plug-In . SVG Version: 6.00 Build 0)  -->
<!DOCTYPE svg PUBLIC "-//W3C//DTD SVG 1.1//EN" "http://www.w3.org/Graphics/SVG/1.1/DTD/svg11.dtd">
<svg version="1.1" id="Layer_1" xmlns="http://www.w3.org/2000/svg" xmlns:xlink="http://www.w3.org/1999/xlink" x="0px" y="0px"
	 width="65.754px" height="65.754px" viewBox="0 0 65.754 65.754" enable-background="new 0 0 65.754 65.754" xml:space="preserve">
<g>
	<path fill="#FFFFFF" d="M24.851,41.812c0,1.452,1.18,2.633,2.632,2.633c1.454,0,2.632-1.181,2.632-2.633
		c0-1.453-1.178-2.633-2.632-2.633C26.03,39.179,24.851,40.358,24.851,41.812z M38.013,41.812c0,1.452,1.18,2.633,2.632,2.633
		c1.455,0,2.632-1.181,2.632-2.633c0-1.453-1.177-2.633-2.632-2.633C39.192,39.179,38.013,40.358,38.013,41.812z M29.518,35.588
		l14.57-4.162c0.278-0.08,0.505-0.382,0.505-0.671v-7.239h-18.56v-2.237c0-0.289-0.234-0.527-0.525-0.527h-4.082
		c-0.288,0-0.524,0.238-0.524,0.527v2.106h2.557l2.591,11.92l0.25,1.242v1.974c0,0.29,0.237,0.526,0.525,0.526h17.245
		c0.287,0,0.523-0.236,0.523-0.526v-1.974H29.788C28.275,36.547,28.244,35.954,29.518,35.588L29.518,35.588z"/>
</g>
</svg>
