<?xml version="1.0" encoding="utf-8"?>
<!-- Generator: Adobe Illustrator 16.0.0, SVG Export Plug-In . SVG Version: 6.00 Build 0)  -->
<!DOCTYPE svg PUBLIC "-//W3C//DTD SVG 1.1//EN" "http://www.w3.org/Graphics/SVG/1.1/DTD/svg11.dtd">
<svg version="1.1" id="Layer_1" xmlns="http://www.w3.org/2000/svg" xmlns:xlink="http://www.w3.org/1999/xlink" x="0px" y="0px"
	 width="65.754px" height="65.754px" viewBox="0 0 65.754 65.754" enable-background="new 0 0 65.754 65.754" xml:space="preserve">
<g>
	<path fill="#FFFFFF" d="M44.565,27.045c-0.14,0-0.278,0.004-0.416,0.011c-1.907-3.943-5.945-6.663-10.62-6.663
		c-4.7,0-8.757,2.751-10.652,6.731c-0.373-0.051-0.753-0.08-1.139-0.08c-4.676,0-8.467,4.112-8.467,8.787
		c0,4.676,3.791,8.786,8.467,8.786c2.032,0,9.417,0,11.792,0c2.197,0,9.156,0,11.036,0c4.677,0,8.467-4.11,8.467-8.786
		C53.032,31.157,49.242,27.045,44.565,27.045z"/>
</g>
</svg>
