<?xml version="1.0" encoding="utf-8"?>
<!-- Generator: Adobe Illustrator 16.0.0, SVG Export Plug-In . SVG Version: 6.00 Build 0)  -->
<!DOCTYPE svg PUBLIC "-//W3C//DTD SVG 1.1//EN" "http://www.w3.org/Graphics/SVG/1.1/DTD/svg11.dtd">
<svg version="1.1" id="Layer_1" xmlns="http://www.w3.org/2000/svg" xmlns:xlink="http://www.w3.org/1999/xlink" x="0px" y="0px"
	 width="74.933px" height="74.934px" viewBox="0 0 74.933 74.934" enable-background="new 0 0 74.933 74.934" xml:space="preserve">
<g>
	<path fill="#FFFFFF" d="M50.491,31.078c-0.157,0-0.315,0.005-0.471,0.013c-2.162-4.468-6.737-7.549-12.033-7.549
		c-5.325,0-9.922,3.117-12.068,7.626c-0.422-0.058-0.853-0.09-1.291-0.09c-5.298,0-9.593,4.233-9.593,9.53
		c0,5.297,4.295,9.527,9.593,9.527c2.303,0,10.669,0,13.359,0c2.49,0,10.374,0,12.504,0c5.298,0,9.592-4.23,9.592-9.527
		C60.083,35.311,55.789,31.078,50.491,31.078z"/>
</g>
</svg>
