<?xml version="1.0" encoding="utf-8"?>
<!-- Generator: Adobe Illustrator 16.0.0, SVG Export Plug-In . SVG Version: 6.00 Build 0)  -->
<!DOCTYPE svg PUBLIC "-//W3C//DTD SVG 1.1//EN" "http://www.w3.org/Graphics/SVG/1.1/DTD/svg11.dtd">
<svg version="1.1" id="Layer_1" xmlns="http://www.w3.org/2000/svg" xmlns:xlink="http://www.w3.org/1999/xlink" x="0px" y="0px"
	 width="65.754px" height="65.754px" viewBox="0 0 65.754 65.754" enable-background="new 0 0 65.754 65.754" xml:space="preserve">
<g>
	<g>
		<path fill="#FFFFFF" d="M14.479,33.02c-0.04-0.298-0.149-0.567-0.322-0.808c-0.251-0.322-0.643-0.484-1.175-0.484
			c-0.755,0-1.272,0.35-1.55,1.05c-0.147,0.371-0.22,0.863-0.22,1.479c0,0.586,0.073,1.057,0.22,1.413
			c0.267,0.666,0.772,0.998,1.512,0.998c0.526,0,0.898-0.133,1.119-0.396c0.22-0.264,0.354-0.607,0.402-1.026h2.286
			c-0.053,0.636-0.299,1.237-0.74,1.804c-0.703,0.916-1.743,1.375-3.122,1.375c-1.38,0-2.395-0.383-3.044-1.146
			c-0.65-0.763-0.976-1.753-0.976-2.97c0-1.373,0.359-2.44,1.079-3.204c0.717-0.763,1.708-1.145,2.973-1.145
			c1.073,0,1.953,0.226,2.639,0.676c0.684,0.45,1.089,1.245,1.215,2.385H14.479z"/>
		<path fill="#FFFFFF" d="M25.829,33.469c-0.679,0.527-1.646,0.791-2.905,0.791h-2.41v3.891h-2.405V27.331h4.972
			c1.147,0,2.062,0.279,2.744,0.837c0.68,0.558,1.022,1.422,1.022,2.591C26.846,32.037,26.506,32.938,25.829,33.469z M23.983,29.57
			c-0.308-0.241-0.738-0.36-1.29-0.36h-2.18v3.187h2.18c0.552,0,0.981-0.131,1.29-0.39c0.305-0.259,0.458-0.671,0.458-1.233
			C24.44,30.211,24.288,29.81,23.983,29.57z"/>
		<path fill="#FFFFFF" d="M31.564,33.284c0.415-0.048,0.715-0.11,0.894-0.183c0.322-0.126,0.483-0.325,0.483-0.594
			c0-0.328-0.124-0.554-0.372-0.679c-0.246-0.125-0.607-0.187-1.085-0.187c-0.537,0-0.917,0.122-1.139,0.366
			c-0.16,0.181-0.269,0.426-0.319,0.734h-2.163c0.048-0.7,0.259-1.274,0.632-1.726c0.593-0.705,1.615-1.056,3.061-1.056
			c0.943,0,1.779,0.174,2.51,0.521c0.731,0.347,1.099,1.003,1.099,1.967v3.67c0,0.256,0.003,0.563,0.014,0.925
			c0.017,0.274,0.061,0.461,0.135,0.558c0.072,0.098,0.183,0.179,0.329,0.243v0.308h-2.437c-0.067-0.161-0.115-0.313-0.141-0.455
			s-0.047-0.303-0.063-0.483c-0.31,0.312-0.669,0.579-1.075,0.799c-0.485,0.261-1.033,0.39-1.644,0.39
			c-0.779,0-1.424-0.207-1.933-0.62c-0.507-0.414-0.763-0.998-0.763-1.758c0-0.983,0.409-1.695,1.228-2.136
			c0.448-0.241,1.108-0.411,1.978-0.514L31.564,33.284z M32.933,34.26c-0.144,0.083-0.287,0.15-0.434,0.202
			c-0.146,0.052-0.346,0.1-0.601,0.144l-0.51,0.089c-0.479,0.077-0.822,0.173-1.031,0.286c-0.353,0.189-0.528,0.487-0.528,0.888
			c0,0.357,0.106,0.616,0.322,0.773c0.216,0.159,0.478,0.239,0.787,0.239c0.489,0,0.94-0.131,1.353-0.396
			c0.411-0.264,0.625-0.746,0.641-1.445V34.26z"/>
		<path fill="#FFFFFF" d="M43.594,30.609c0.56,0.433,0.841,1.15,0.841,2.154v5.387H42.14v-4.867c0-0.419-0.061-0.744-0.179-0.969
			c-0.218-0.411-0.634-0.616-1.249-0.616c-0.754,0-1.271,0.301-1.551,0.903c-0.147,0.318-0.22,0.724-0.22,1.219v4.329h-2.238v-7.986
			h2.167v1.168c0.286-0.412,0.559-0.708,0.815-0.889c0.458-0.322,1.039-0.484,1.744-0.484
			C42.312,29.959,43.032,30.175,43.594,30.609z"/>
		<path fill="#FFFFFF" d="M51.663,30.312c0.596,0.25,1.091,0.645,1.479,1.184c0.351,0.476,0.579,1.027,0.684,1.654
			c0.061,0.368,0.085,0.896,0.073,1.589h-6.237c0.035,0.802,0.333,1.365,0.896,1.688c0.342,0.2,0.753,0.301,1.234,0.301
			c0.511,0,0.925-0.122,1.243-0.366c0.174-0.133,0.328-0.315,0.461-0.551h2.288c-0.061,0.475-0.339,0.956-0.831,1.445
			c-0.77,0.779-1.842,1.169-3.223,1.169c-1.141,0-2.145-0.33-3.016-0.985c-0.871-0.656-1.307-1.725-1.307-3.203
			c0-1.386,0.393-2.45,1.179-3.188c0.786-0.74,1.809-1.11,3.062-1.11C50.394,29.937,51.063,30.062,51.663,30.312z M48.312,32.12
			c-0.316,0.304-0.515,0.717-0.597,1.237h3.858c-0.04-0.555-0.238-0.976-0.597-1.264c-0.357-0.287-0.8-0.431-1.328-0.431
			C49.074,31.662,48.628,31.814,48.312,32.12z"/>
		<path fill="#FFFFFF" d="M56.884,38.15h-2.24V27.331h2.24V38.15z"/>
	</g>
</g>
</svg>
