<?xml version="1.0" encoding="utf-8"?>
<!-- Generator: Adobe Illustrator 16.0.0, SVG Export Plug-In . SVG Version: 6.00 Build 0)  -->
<!DOCTYPE svg PUBLIC "-//W3C//DTD SVG 1.1//EN" "http://www.w3.org/Graphics/SVG/1.1/DTD/svg11.dtd">
<svg version="1.1" id="Layer_1" xmlns="http://www.w3.org/2000/svg" xmlns:xlink="http://www.w3.org/1999/xlink" x="0px" y="0px"
	 width="65.754px" height="65.754px" viewBox="0 0 65.754 65.754" enable-background="new 0 0 65.754 65.754" xml:space="preserve">
<g>
	<g>
		<g>
			<path fill="#FFFFFF" d="M16.994,32.918c-0.037-0.261-0.132-0.499-0.285-0.71c-0.222-0.284-0.568-0.427-1.035-0.427
				c-0.668,0-1.123,0.308-1.368,0.925c-0.13,0.327-0.194,0.762-0.194,1.303c0,0.519,0.063,0.933,0.194,1.247
				c0.236,0.588,0.679,0.88,1.333,0.88c0.463,0,0.792-0.116,0.985-0.351c0.195-0.23,0.312-0.534,0.354-0.905h2.016
				c-0.045,0.561-0.262,1.093-0.651,1.593c-0.619,0.808-1.538,1.21-2.752,1.21c-1.216,0-2.111-0.335-2.684-1.009
				c-0.575-0.675-0.861-1.547-0.861-2.62c0-1.209,0.317-2.15,0.951-2.825c0.632-0.671,1.507-1.008,2.621-1.008
				c0.948,0,1.723,0.199,2.327,0.595c0.604,0.396,0.96,1.099,1.072,2.102H16.994z"/>
			<path fill="#FFFFFF" d="M27,33.314c-0.596,0.467-1.451,0.699-2.561,0.699h-2.127v3.431h-2.119v-9.539h4.385
				c1.01,0,1.816,0.245,2.416,0.738c0.602,0.492,0.904,1.252,0.904,2.283C27.898,32.053,27.598,32.848,27,33.314z M25.372,29.879
				c-0.271-0.213-0.649-0.318-1.136-0.318h-1.924v2.81h1.924c0.486,0,0.865-0.115,1.136-0.344c0.27-0.229,0.405-0.592,0.405-1.087
				C25.777,30.444,25.642,30.089,25.372,29.879z"/>
			<path fill="#FFFFFF" d="M32.057,33.153c0.367-0.043,0.631-0.097,0.789-0.162c0.283-0.113,0.425-0.287,0.425-0.523
				c0-0.291-0.108-0.491-0.326-0.599c-0.217-0.112-0.536-0.165-0.959-0.165c-0.472,0-0.808,0.107-1.003,0.322
				c-0.14,0.159-0.235,0.376-0.281,0.648h-1.905c0.042-0.617,0.228-1.124,0.556-1.522c0.525-0.621,1.425-0.931,2.7-0.931
				c0.83,0,1.568,0.153,2.213,0.459c0.646,0.307,0.968,0.886,0.968,1.734v3.237c0,0.225,0.005,0.496,0.013,0.814
				c0.014,0.242,0.054,0.406,0.12,0.493c0.062,0.086,0.16,0.157,0.289,0.214v0.271h-2.147c-0.06-0.142-0.102-0.276-0.125-0.401
				c-0.023-0.124-0.041-0.268-0.054-0.427c-0.275,0.276-0.592,0.511-0.949,0.706c-0.427,0.228-0.91,0.343-1.449,0.343
				c-0.688,0-1.256-0.183-1.704-0.548c-0.448-0.364-0.672-0.881-0.672-1.549c0-0.868,0.36-1.494,1.082-1.884
				c0.396-0.212,0.977-0.362,1.745-0.453L32.057,33.153z M33.265,34.013c-0.127,0.074-0.255,0.133-0.384,0.18
				c-0.128,0.045-0.305,0.085-0.53,0.126l-0.449,0.078c-0.421,0.066-0.724,0.152-0.908,0.252c-0.311,0.167-0.466,0.429-0.466,0.781
				c0,0.316,0.095,0.543,0.285,0.685c0.189,0.141,0.421,0.211,0.693,0.211c0.43,0,0.829-0.118,1.192-0.352
				c0.363-0.232,0.553-0.657,0.567-1.274V34.013z"/>
			<path fill="#FFFFFF" d="M42.664,30.793c0.494,0.383,0.742,1.015,0.742,1.899v4.751h-2.023v-4.291
				c0-0.371-0.054-0.657-0.159-0.854c-0.192-0.362-0.559-0.543-1.101-0.543c-0.664,0-1.121,0.266-1.367,0.796
				c-0.13,0.279-0.193,0.638-0.193,1.074v3.818h-1.974v-7.042h1.912v1.03c0.252-0.364,0.491-0.625,0.717-0.785
				c0.404-0.284,0.917-0.427,1.539-0.427C41.534,30.221,42.169,30.411,42.664,30.793z"/>
			<path fill="#FFFFFF" d="M49.779,30.532c0.527,0.222,0.962,0.568,1.306,1.043c0.31,0.42,0.511,0.907,0.602,1.46
				c0.053,0.323,0.075,0.79,0.064,1.399h-5.5c0.03,0.708,0.294,1.204,0.79,1.489c0.302,0.177,0.664,0.266,1.089,0.266
				c0.449,0,0.814-0.108,1.096-0.324c0.153-0.116,0.289-0.279,0.405-0.486h2.018c-0.053,0.42-0.299,0.845-0.732,1.276
				c-0.677,0.686-1.624,1.028-2.841,1.028c-1.005,0-1.891-0.288-2.659-0.868c-0.768-0.578-1.154-1.52-1.154-2.823
				c0-1.223,0.348-2.16,1.041-2.811c0.693-0.654,1.595-0.979,2.699-0.979C48.661,30.201,49.253,30.312,49.779,30.532z
				 M46.826,32.125c-0.28,0.269-0.454,0.632-0.526,1.092h3.4c-0.034-0.491-0.21-0.861-0.524-1.116
				c-0.315-0.253-0.706-0.38-1.172-0.38C47.497,31.722,47.104,31.856,46.826,32.125z"/>
			<path fill="#FFFFFF" d="M54.383,37.443h-1.974v-9.539h1.974V37.443z"/>
		</g>
	</g>
</g>
</svg>
