<?xml version="1.0" encoding="utf-8"?>
<!-- Generator: Adobe Illustrator 16.0.0, SVG Export Plug-In . SVG Version: 6.00 Build 0)  -->
<!DOCTYPE svg PUBLIC "-//W3C//DTD SVG 1.1//EN" "http://www.w3.org/Graphics/SVG/1.1/DTD/svg11.dtd">
<svg version="1.1" id="Layer_1" xmlns="http://www.w3.org/2000/svg" xmlns:xlink="http://www.w3.org/1999/xlink" x="0px" y="0px"
	 width="74.933px" height="74.934px" viewBox="0 0 74.933 74.934" enable-background="new 0 0 74.933 74.934" xml:space="preserve">
<g>
	<g>
		<g>
			<path fill="#FFFFFF" d="M19.207,37.609c-0.042-0.299-0.15-0.57-0.325-0.812c-0.255-0.325-0.649-0.488-1.184-0.488
				c-0.764,0-1.285,0.352-1.564,1.059c-0.148,0.373-0.223,0.871-0.223,1.49c0,0.592,0.074,1.065,0.223,1.426
				c0.271,0.672,0.777,1.006,1.524,1.006c0.53,0,0.905-0.133,1.128-0.4c0.223-0.265,0.357-0.61,0.404-1.035h2.306
				c-0.053,0.641-0.3,1.25-0.745,1.821c-0.708,0.923-1.758,1.384-3.147,1.384c-1.391,0-2.415-0.384-3.07-1.154
				c-0.656-0.771-0.984-1.769-0.984-2.996c0-1.383,0.362-2.459,1.088-3.23c0.723-0.768,1.723-1.153,2.998-1.153
				c1.083,0,1.971,0.228,2.66,0.681c0.69,0.453,1.1,1.257,1.227,2.404H19.207z"/>
			<path fill="#FFFFFF" d="M30.65,38.062c-0.683,0.533-1.659,0.799-2.929,0.799h-2.433v3.924h-2.424v-10.91h5.016
				c1.155,0,2.077,0.28,2.764,0.844c0.688,0.562,1.032,1.433,1.032,2.611C31.676,36.62,31.334,37.529,30.65,38.062z M28.788,34.134
				c-0.309-0.244-0.742-0.364-1.298-0.364h-2.201v3.213h2.201c0.556,0,0.989-0.132,1.298-0.393c0.31-0.262,0.465-0.677,0.465-1.244
				C29.252,34.779,29.097,34.374,28.788,34.134z"/>
			<path fill="#FFFFFF" d="M36.434,37.878c0.42-0.05,0.722-0.111,0.901-0.186c0.324-0.129,0.487-0.327,0.487-0.599
				c0-0.332-0.124-0.561-0.374-0.685c-0.248-0.128-0.613-0.188-1.097-0.188c-0.54,0-0.924,0.123-1.147,0.369
				c-0.16,0.182-0.269,0.43-0.322,0.74h-2.179c0.048-0.705,0.261-1.285,0.637-1.741c0.599-0.71,1.629-1.064,3.088-1.064
				c0.949,0,1.792,0.175,2.53,0.525s1.107,1.013,1.107,1.983v3.701c0,0.258,0.005,0.568,0.014,0.932
				c0.017,0.278,0.062,0.466,0.137,0.564c0.073,0.099,0.185,0.18,0.332,0.244v0.311h-2.457c-0.068-0.162-0.115-0.316-0.143-0.459
				c-0.025-0.143-0.046-0.306-0.062-0.488c-0.314,0.315-0.677,0.584-1.085,0.807c-0.488,0.262-1.041,0.393-1.657,0.393
				c-0.787,0-1.438-0.209-1.95-0.627c-0.512-0.416-0.769-1.007-0.769-1.771c0-0.992,0.413-1.709,1.237-2.154
				c0.452-0.242,1.117-0.414,1.996-0.518L36.434,37.878z M37.816,38.861c-0.146,0.084-0.293,0.152-0.439,0.205
				c-0.146,0.052-0.35,0.098-0.606,0.145L36.255,39.3c-0.48,0.077-0.827,0.175-1.037,0.288c-0.355,0.191-0.533,0.49-0.533,0.895
				c0,0.361,0.108,0.621,0.325,0.782c0.218,0.161,0.482,0.241,0.794,0.241c0.492,0,0.947-0.135,1.363-0.401
				c0.414-0.267,0.631-0.753,0.648-1.458V38.861z"/>
			<path fill="#FFFFFF" d="M48.564,35.18c0.566,0.438,0.85,1.16,0.85,2.172v5.434h-2.314v-4.907c0-0.425-0.061-0.751-0.182-0.978
				c-0.221-0.414-0.639-0.621-1.258-0.621c-0.761,0-1.282,0.304-1.564,0.91c-0.148,0.32-0.221,0.73-0.221,1.229v4.367h-2.258v-8.054
				h2.187v1.179c0.288-0.416,0.562-0.715,0.819-0.897c0.463-0.325,1.05-0.488,1.76-0.488C47.271,34.524,47.998,34.742,48.564,35.18z
				"/>
			<path fill="#FFFFFF" d="M56.703,34.88c0.603,0.254,1.1,0.649,1.492,1.193c0.354,0.479,0.584,1.036,0.688,1.669
				c0.062,0.37,0.086,0.904,0.074,1.601h-6.291c0.037,0.81,0.338,1.377,0.904,1.703c0.346,0.202,0.76,0.304,1.246,0.304
				c0.514,0,0.932-0.124,1.253-0.371c0.176-0.133,0.331-0.318,0.465-0.556h2.306c-0.061,0.479-0.342,0.966-0.837,1.459
				c-0.774,0.784-1.857,1.177-3.249,1.177c-1.149,0-2.164-0.33-3.041-0.992c-0.879-0.662-1.32-1.738-1.32-3.229
				c0-1.399,0.398-2.471,1.189-3.216c0.794-0.747,1.825-1.119,3.089-1.119C55.423,34.502,56.099,34.629,56.703,34.88z
				 M53.324,36.703c-0.318,0.307-0.519,0.723-0.602,1.249h3.891c-0.041-0.562-0.242-0.985-0.601-1.276
				c-0.36-0.289-0.808-0.434-1.341-0.434C54.091,36.242,53.642,36.395,53.324,36.703z"/>
			<path fill="#FFFFFF" d="M61.966,42.785h-2.258v-10.91h2.258V42.785z"/>
		</g>
	</g>
</g>
</svg>
