<?xml version="1.0" encoding="utf-8"?>
<!-- Generator: Adobe Illustrator 16.0.0, SVG Export Plug-In . SVG Version: 6.00 Build 0)  -->
<!DOCTYPE svg PUBLIC "-//W3C//DTD SVG 1.1//EN" "http://www.w3.org/Graphics/SVG/1.1/DTD/svg11.dtd">
<svg version="1.1" id="Layer_1" xmlns="http://www.w3.org/2000/svg" xmlns:xlink="http://www.w3.org/1999/xlink" x="0px" y="0px"
	 width="74.933px" height="74.934px" viewBox="0 0 74.933 74.934" enable-background="new 0 0 74.933 74.934" xml:space="preserve">
<g>
	<g>
		<path fill="#FFFFFF" d="M50.966,43.09v-2.41c0,0.229-0.829,0.447-1.292,0.656c-3.152,1.41-7.308,2.223-11.713,2.223
			c-4.407,0-8.553-0.812-11.703-2.223c-0.465-0.209-1.292-0.428-1.292-0.656v2.41c3,1.844,7.016,3.27,13,3.27
			S47.966,44.934,50.966,43.09z"/>
		<path fill="#FFFFFF" d="M37.966,38.596c-4.405,0-8.556-0.812-11.706-2.223c-0.465-0.208-1.294-0.427-1.294-0.655v1.997
			c3,1.844,7.016,3.27,13,3.27s10-1.426,13-3.27v-1.997c0,0.229-0.829,0.447-1.292,0.655C46.522,37.783,42.375,38.596,37.966,38.596
			z"/>
		<path fill="#FFFFFF" d="M37.966,36.023c5.984,0,10-1.428,13-3.271v-7.617H50.9c-0.76-3-6.26-5.143-12.934-5.143
			s-12.172,2.143-12.933,5.143h-0.067v7.617C27.966,34.596,31.982,36.023,37.966,36.023z"/>
		<path fill="#FFFFFF" d="M50.966,46.055c0,0.229-0.829,0.449-1.292,0.656c-3.152,1.41-7.308,2.223-11.713,2.223
			c-4.407,0-8.553-0.812-11.703-2.223c-0.465-0.207-1.292-0.427-1.292-0.656v3.023c0,0.199-0.081,0.399-0.081,0.605
			c0,3.234,5.856,5.859,13.087,5.859c7.232,0,13.078-2.625,13.078-5.859c0-0.206-0.084-0.406-0.084-0.605V46.055z"/>
	</g>
</g>
</svg>
