<?xml version="1.0" encoding="utf-8"?>
<!-- Generator: Adobe Illustrator 16.0.0, SVG Export Plug-In . SVG Version: 6.00 Build 0)  -->
<!DOCTYPE svg PUBLIC "-//W3C//DTD SVG 1.1//EN" "http://www.w3.org/Graphics/SVG/1.1/DTD/svg11.dtd">
<svg version="1.1" id="Layer_1" xmlns="http://www.w3.org/2000/svg" xmlns:xlink="http://www.w3.org/1999/xlink" x="0px" y="0px"
	 width="65.754px" height="65.754px" viewBox="0 0 65.754 65.754" enable-background="new 0 0 65.754 65.754" xml:space="preserve">
<g>
	<g>
		<path fill="#FFFFFF" d="M45.072,37.779v-2.111c0,0.2-0.902,0.392-1.309,0.575c-2.758,1.234-6.485,1.946-10.345,1.946
			c-3.858,0-7.974-0.712-10.732-1.946c-0.407-0.184-1.615-0.375-1.615-0.575v2.111c3,1.614,6.759,2.863,12,2.863
			C38.312,40.643,42.072,39.394,45.072,37.779z"/>
		<path fill="#FFFFFF" d="M33.338,33.843c-3.859,0-7.933-0.712-10.692-1.946c-0.407-0.183-1.574-0.374-1.574-0.574v1.749
			c3,1.614,6.759,2.863,12,2.863c5.241,0,9-1.249,12-2.863v-1.749c0,0.2-0.902,0.392-1.309,0.574
			C41.006,33.131,37.197,33.843,33.338,33.843z"/>
		<path fill="#FFFFFF" d="M33.072,31.59c5.241,0,9-1.25,12-2.864v-8.108h-0.409c-0.665-2-5.481-4.504-11.325-4.504
			c-5.845,0-10.66,2.504-11.326,4.504h-0.939v8.108C24.072,30.34,27.832,31.59,33.072,31.59z"/>
		<path fill="#FFFFFF" d="M45.072,40.375c0,0.2-0.902,0.393-1.309,0.574c-2.758,1.235-6.485,1.947-10.345,1.947
			c-3.858,0-7.974-0.712-10.732-1.947c-0.407-0.182-1.615-0.374-1.615-0.574v2.648c0,0.174,0.369,0.349,0.369,0.529
			c0,2.832,5.348,5.132,11.682,5.132c6.334,0,11.738-2.3,11.738-5.132c0-0.181,0.211-0.355,0.211-0.529V40.375z"/>
	</g>
</g>
</svg>
