<?xml version="1.0" encoding="utf-8"?>
<!-- Generator: Adobe Illustrator 16.0.0, SVG Export Plug-In . SVG Version: 6.00 Build 0)  -->
<!DOCTYPE svg PUBLIC "-//W3C//DTD SVG 1.1//EN" "http://www.w3.org/Graphics/SVG/1.1/DTD/svg11.dtd">
<svg version="1.1" id="Layer_1" xmlns="http://www.w3.org/2000/svg" xmlns:xlink="http://www.w3.org/1999/xlink" x="0px" y="0px"
	 width="65.754px" height="65.754px" viewBox="0 0 65.754 65.754" enable-background="new 0 0 65.754 65.754" xml:space="preserve">
<g>
	<g>
		<path fill="#FFFFFF" d="M24.135,51.206c-3.33,0-6.372-2.467-6.372-6.536v-7.069c0-1.521-0.699-2.754-2.137-2.754v-2.96
			c1.438,0,2.137-1.233,2.137-2.754v-7.03c0-4.068,3.042-6.577,6.372-6.577h2.466v3.495h-2.466c-1.439,0-2.589,1.192-2.589,3.041
			v7.605c0,1.726-0.534,3.123-1.892,3.699c1.357,0.575,1.892,1.973,1.892,3.699v7.563c0,1.851,1.15,3.083,2.589,3.083h2.466v3.494
			H24.135z"/>
		<path fill="#FFFFFF" d="M38.562,47.712h2.507c1.397,0,2.59-1.232,2.59-3.083v-7.563c0-1.727,0.534-3.124,1.891-3.699
			c-1.356-0.576-1.891-1.974-1.891-3.699v-7.605c0-1.849-1.192-3.041-2.59-3.041h-2.507v-3.495h2.507
			c3.289,0,6.372,2.509,6.372,6.577v7.03c0,1.521,0.698,2.754,2.137,2.754v2.96c-1.438,0-2.137,1.233-2.137,2.754v7.069
			c0,4.069-3.083,6.536-6.372,6.536h-2.507V47.712z"/>
	</g>
</g>
</svg>
