<?xml version="1.0" encoding="utf-8"?>
<!-- Generator: Adobe Illustrator 16.0.0, SVG Export Plug-In . SVG Version: 6.00 Build 0)  -->
<!DOCTYPE svg PUBLIC "-//W3C//DTD SVG 1.1//EN" "http://www.w3.org/Graphics/SVG/1.1/DTD/svg11.dtd">
<svg version="1.1" id="Layer_1" xmlns="http://www.w3.org/2000/svg" xmlns:xlink="http://www.w3.org/1999/xlink" x="0px" y="0px"
	 width="74.933px" height="74.934px" viewBox="0 0 74.933 74.934" enable-background="new 0 0 74.933 74.934" xml:space="preserve">
<g>
	<g>
		<path fill="#FFFFFF" d="M27.51,58.341c-3.792,0-7.256-2.809-7.256-7.443v-8.051c0-1.732-0.796-3.137-2.435-3.137v-3.371
			c1.639,0,2.435-1.404,2.435-3.137v-8.006c0-4.633,3.464-7.49,7.256-7.49h2.809v3.98H27.51c-1.639,0-2.949,1.357-2.949,3.463v8.662
			c0,1.965-0.608,3.557-2.153,4.213c1.545,0.654,2.153,2.246,2.153,4.213v8.613c0,2.107,1.311,3.512,2.949,3.512h2.809v3.979H27.51z
			"/>
		<path fill="#FFFFFF" d="M43.941,54.362h2.855c1.592,0,2.949-1.404,2.949-3.512v-8.613c0-1.967,0.608-3.559,2.153-4.213
			c-1.545-0.656-2.153-2.248-2.153-4.213v-8.662c0-2.105-1.357-3.463-2.949-3.463h-2.855v-3.98h2.855
			c3.745,0,7.256,2.857,7.256,7.49v8.006c0,1.732,0.796,3.137,2.435,3.137v3.371c-1.639,0-2.435,1.404-2.435,3.137v8.051
			c0,4.635-3.511,7.443-7.256,7.443h-2.855V54.362z"/>
	</g>
</g>
</svg>
