<?xml version="1.0" encoding="utf-8"?>
<!-- Generator: Adobe Illustrator 16.0.0, SVG Export Plug-In . SVG Version: 6.00 Build 0)  -->
<!DOCTYPE svg PUBLIC "-//W3C//DTD SVG 1.1//EN" "http://www.w3.org/Graphics/SVG/1.1/DTD/svg11.dtd">
<svg version="1.1" id="Layer_1" xmlns="http://www.w3.org/2000/svg" xmlns:xlink="http://www.w3.org/1999/xlink" x="0px" y="0px"
	 width="65.754px" height="65.754px" viewBox="0 0 65.754 65.754" enable-background="new 0 0 65.754 65.754" xml:space="preserve">
<g>
	<path fill="#FFFFFF" d="M30.966,43.326c-3.442-0.295-5.965-1.605-7.767-3.409l2.556-3.637c1.212,1.278,3.015,2.426,5.21,2.817
		v-5.079c-3.375-0.819-7.047-2.097-7.047-6.554c0-3.31,2.623-6.128,7.047-6.587V17.83h3.08v3.113
		c2.655,0.295,4.916,1.278,6.686,2.917l-2.589,3.473c-1.181-1.081-2.622-1.769-4.097-2.129v4.522
		c3.408,0.853,7.212,2.163,7.212,6.653c0,3.638-2.394,6.455-7.212,6.947v2.949h-3.08V43.326z M30.966,28.972v-3.966
		c-1.443,0.198-2.262,0.984-2.262,2.098C28.704,28.054,29.622,28.546,30.966,28.972z M34.046,34.772v4.391
		c1.672-0.327,2.458-1.277,2.458-2.325C36.504,35.755,35.489,35.232,34.046,34.772z"/>
</g>
</svg>
