<?xml version="1.0" encoding="utf-8"?>
<!-- Generator: Adobe Illustrator 16.0.0, SVG Export Plug-In . SVG Version: 6.00 Build 0)  -->
<!DOCTYPE svg PUBLIC "-//W3C//DTD SVG 1.1//EN" "http://www.w3.org/Graphics/SVG/1.1/DTD/svg11.dtd">
<svg version="1.1" id="Layer_1" xmlns="http://www.w3.org/2000/svg" xmlns:xlink="http://www.w3.org/1999/xlink" x="0px" y="0px"
	 width="74.933px" height="74.934px" viewBox="0 0 74.933 74.934" enable-background="new 0 0 74.933 74.934" xml:space="preserve">
<path fill="#FFFFFF" d="M50.702,24.231c-5.987-5.987-15.695-5.987-21.683,0c-5.135,5.134-5.852,12.999-2.18,18.913l-7.098,7.098
	l4.95,4.95l7.098-7.099c5.914,3.673,13.779,2.955,18.914-2.18C56.69,39.927,56.69,30.22,50.702,24.231z M47.365,42.578
	c-4.144,4.145-10.865,4.146-15.01,0c-4.145-4.145-4.145-10.866,0-15.011c4.146-4.146,10.867-4.146,15.012-0.001
	C51.512,31.712,51.512,38.433,47.365,42.578z"/>
</svg>
