<?xml version="1.0" encoding="utf-8"?>
<!-- Generator: Adobe Illustrator 16.0.0, SVG Export Plug-In . SVG Version: 6.00 Build 0)  -->
<!DOCTYPE svg PUBLIC "-//W3C//DTD SVG 1.1//EN" "http://www.w3.org/Graphics/SVG/1.1/DTD/svg11.dtd">
<svg version="1.1" id="Layer_1" xmlns="http://www.w3.org/2000/svg" xmlns:xlink="http://www.w3.org/1999/xlink" x="0px" y="0px"
	 width="65.754px" height="65.754px" viewBox="0 0 65.754 65.754" enable-background="new 0 0 65.754 65.754" xml:space="preserve">
<g>
	<path fill="#FFFFFF" d="M44.622,21.005c-5.31-5.311-13.92-5.311-19.231,0c-4.554,4.553-5.19,11.529-1.934,16.774l-6.295,6.295
		l4.39,4.391l6.295-6.296c5.245,3.258,12.221,2.621,16.775-1.934C49.933,34.926,49.933,26.316,44.622,21.005z M41.663,37.277
		c-3.676,3.676-9.637,3.677-13.313,0s-3.676-9.638,0-13.314c3.678-3.677,9.637-3.677,13.314-0.001
		C45.341,27.639,45.341,33.601,41.663,37.277z"/>
</g>
</svg>
