<?xml version="1.0" encoding="utf-8"?>
<!-- Generator: Adobe Illustrator 16.0.0, SVG Export Plug-In . SVG Version: 6.00 Build 0)  -->
<!DOCTYPE svg PUBLIC "-//W3C//DTD SVG 1.1//EN" "http://www.w3.org/Graphics/SVG/1.1/DTD/svg11.dtd">
<svg version="1.1" id="Layer_1" xmlns="http://www.w3.org/2000/svg" xmlns:xlink="http://www.w3.org/1999/xlink" x="0px" y="0px"
	 width="65.754px" height="65.754px" viewBox="0 0 65.754 65.754" enable-background="new 0 0 65.754 65.754" xml:space="preserve">
<path fill="#FFFFFF" d="M50.141,15.051c-0.201-0.585-0.834-0.895-1.414-0.691c-0.581,0.204-0.885,0.844-0.683,1.431
	c1.71,4.96-1.684,8.665-4.267,10.648l-1.048-1.513c-0.35-0.503-1.137-0.925-1.746-0.935l-5.861,0.027
	c-0.609-0.009-1.517,0.272-2.019,0.626L15.83,36.886c-0.835,0.592-1.042,1.759-0.454,2.607l7.852,11.346
	c0.585,0.849,1.526,0.746,2.363,0.154l17.272-12.241c0.502-0.354,1.073-1.122,1.275-1.706l1.837-5.846
	c0.198-0.583,0.077-1.474-0.272-1.98l-0.639-0.923C48.536,25.613,52.141,20.862,50.141,15.051L50.141,15.051z M42.104,32.434
	c-1.339,0.951-3.184,0.619-4.121-0.737c-0.937-1.354-0.611-3.221,0.729-4.171c1.061-0.754,2.442-0.699,3.436,0.034
	c-0.501,0.304-0.843,0.479-0.907,0.51c-0.554,0.264-0.791,0.933-0.529,1.495c0.189,0.406,0.587,0.646,1.006,0.646
	c0.157,0,0.319-0.035,0.472-0.109c0.354-0.169,0.739-0.374,1.139-0.615c0.179,1.103-0.257,2.261-1.221,2.945L42.104,32.434z"/>
</svg>
