<?xml version="1.0" encoding="utf-8"?>
<!-- Generator: Adobe Illustrator 16.0.0, SVG Export Plug-In . SVG Version: 6.00 Build 0)  -->
<!DOCTYPE svg PUBLIC "-//W3C//DTD SVG 1.1//EN" "http://www.w3.org/Graphics/SVG/1.1/DTD/svg11.dtd">
<svg version="1.1" id="Layer_1" xmlns="http://www.w3.org/2000/svg" xmlns:xlink="http://www.w3.org/1999/xlink" x="0px" y="0px"
	 width="65.754px" height="65.754px" viewBox="0 0 65.754 65.754" enable-background="new 0 0 65.754 65.754" xml:space="preserve">
<g>
	<path fill="#FFFFFF" d="M25.724,39.658c-1.174-1.269-1.762-3.04-1.762-5.314c0-2.64,0.897-5.113,2.691-7.417
		c1.793-2.304,3.996-3.456,6.606-3.456c1.531,0,2.72,0.423,3.565,1.269c0.642,0.656,1.071,1.408,1.291,2.254l0.788-2.758h4.134
		l-2.801,9.495c-0.217,0.773-0.376,1.345-0.469,1.717c-0.096,0.372-0.144,0.696-0.144,0.974c0,0.438,0.146,0.85,0.438,1.235
		c0.292,0.388,0.759,0.579,1.4,0.579c1.254,0,2.511-0.819,3.773-2.46c1.262-1.641,1.893-3.817,1.893-6.53
		c0-4.01-1.721-6.89-5.162-8.64c-2.158-1.108-4.588-1.663-7.284-1.663c-4.96,0-8.941,1.517-11.946,4.55
		c-2.712,2.742-4.067,6.03-4.067,9.865c0,4.258,1.588,7.635,4.768,10.127c2.814,2.204,6.25,3.305,10.304,3.305
		c2.771,0,5.359-0.511,7.767-1.531c1.312-0.54,2.668-1.305,4.067-2.298l0.525-0.371l1.596,2.45c-2.07,1.604-4.312,2.825-6.727,3.664
		c-2.413,0.838-4.919,1.257-7.513,1.257c-6.054,0-10.741-1.88-14.066-5.643c-2.756-3.121-4.134-6.818-4.134-11.091
		c0-4.784,1.719-8.838,5.163-12.163c3.615-3.515,8.246-5.271,13.889-5.271c4.596,0,8.4,1.203,11.421,3.609
		c3.179,2.538,4.768,5.906,4.768,10.106c0,3.311-1.005,6.15-3.018,8.521c-2.013,2.369-4.31,3.554-6.892,3.554
		c-1.342,0-2.373-0.379-3.095-1.137c-0.724-0.759-1.084-1.538-1.084-2.341c0-0.102,0.005-0.216,0.011-0.339
		c0.008-0.125,0.019-0.259,0.034-0.406c-0.555,1.051-1.175,1.89-1.858,2.517c-1.242,1.123-2.729,1.684-4.464,1.684
		C28.366,41.561,26.897,40.927,25.724,39.658z M36.17,27.256c-0.469-0.525-1.095-0.788-1.882-0.788
		c-1.518,0-2.822,0.944-3.916,2.832c-1.094,1.89-1.64,3.716-1.64,5.481c0,1.064,0.244,1.925,0.732,2.579
		c0.489,0.658,1.177,0.985,2.068,0.985c1.559,0,2.84-1.186,3.837-3.555c1-2.37,1.501-4.233,1.501-5.589
		C36.87,28.429,36.635,27.781,36.17,27.256z"/>
</g>
</svg>
