<?xml version="1.0" encoding="utf-8"?>
<!-- Generator: Adobe Illustrator 16.0.0, SVG Export Plug-In . SVG Version: 6.00 Build 0)  -->
<!DOCTYPE svg PUBLIC "-//W3C//DTD SVG 1.1//EN" "http://www.w3.org/Graphics/SVG/1.1/DTD/svg11.dtd">
<svg version="1.1" id="Layer_1" xmlns="http://www.w3.org/2000/svg" xmlns:xlink="http://www.w3.org/1999/xlink" x="0px" y="0px"
	 width="65.754px" height="65.754px" viewBox="0 0 65.754 65.754" enable-background="new 0 0 65.754 65.754" xml:space="preserve">
<g>
	<g>
		<path fill="#FFFFFF" d="M18.2,26.625l1.778,7.662l2.131-7.662h1.381l2.137,7.677l1.778-7.677h1.4l-2.478,9.432h-1.342l-2.176-7.82
			l-2.189,7.82h-1.342l-2.465-9.432H18.2z"/>
		<path fill="#FFFFFF" d="M30.016,26.625h1.291v3.896h4.848v-3.896h1.29v9.432h-1.29v-4.411h-4.848v4.411h-1.291V26.625z"/>
		<path fill="#FFFFFF" d="M39.448,26.625h1.829l2.712,7.974l2.692-7.974H48.5v9.432h-1.22V30.49c0-0.192,0.003-0.51,0.013-0.957
			c0.008-0.445,0.013-0.921,0.013-1.432l-2.693,7.955h-1.267l-2.717-7.955v0.289c0,0.231,0.006,0.584,0.02,1.056
			c0.013,0.474,0.02,0.822,0.02,1.043v5.567h-1.22V26.625z"/>
	</g>
</g>
</svg>
