<?xml version="1.0" encoding="utf-8"?>
<!-- Generator: Adobe Illustrator 16.0.0, SVG Export Plug-In . SVG Version: 6.00 Build 0)  -->
<!DOCTYPE svg PUBLIC "-//W3C//DTD SVG 1.1//EN" "http://www.w3.org/Graphics/SVG/1.1/DTD/svg11.dtd">
<svg version="1.1" id="Layer_1" xmlns="http://www.w3.org/2000/svg" xmlns:xlink="http://www.w3.org/1999/xlink" x="0px" y="0px"
	 width="65.754px" height="65.754px" viewBox="0 0 65.754 65.754" enable-background="new 0 0 65.754 65.754" xml:space="preserve">
<g>
	<g>
		<path fill="#FFFFFF" d="M11.12,25.779l2.676,11.53l3.207-11.53h2.079l3.216,11.553l2.676-11.553h2.108l-3.73,14.194h-2.021
			l-3.274-11.768l-3.295,11.77h-2.021L9.031,25.78h2.089V25.779z"/>
		<path fill="#FFFFFF" d="M28.903,25.779h1.943v5.863h7.295v-5.863h1.945v14.194h-1.945v-6.638h-7.295v6.638h-1.943V25.779z"/>
		<path fill="#FFFFFF" d="M43.099,25.779h2.754l4.08,12l4.054-12h2.736v14.194h-1.839v-8.377c0-0.289,0.007-0.768,0.021-1.439
			c0.013-0.671,0.022-1.387,0.022-2.155l-4.054,11.972h-1.908L44.877,28v0.436c0,0.347,0.01,0.879,0.029,1.588
			c0.021,0.714,0.029,1.237,0.029,1.571v8.379H43.1L43.099,25.779L43.099,25.779z"/>
	</g>
</g>
</svg>
