<?xml version="1.0" encoding="utf-8"?>
<!-- Generator: Adobe Illustrator 16.0.0, SVG Export Plug-In . SVG Version: 6.00 Build 0)  -->
<!DOCTYPE svg PUBLIC "-//W3C//DTD SVG 1.1//EN" "http://www.w3.org/Graphics/SVG/1.1/DTD/svg11.dtd">
<svg version="1.1" id="Layer_1" xmlns="http://www.w3.org/2000/svg" xmlns:xlink="http://www.w3.org/1999/xlink" x="0px" y="0px"
	 width="65.754px" height="65.754px" viewBox="0 0 65.754 65.754" enable-background="new 0 0 65.754 65.754" xml:space="preserve">
<g>
	<path fill="#FFFFFF" d="M8.825,26.416l2.486,10.183l2.521-10.183h2.437l2.534,10.123l2.643-10.123h2.171l-3.752,12.922h-2.256
		l-2.631-10.002l-2.545,10.002h-2.257L6.449,26.416H8.825z"/>
	<path fill="#FFFFFF" d="M26.669,26.416l2.486,10.183l2.521-10.183h2.436l2.535,10.123l2.643-10.123h2.17l-3.752,12.922h-2.256
		l-2.63-10.002l-2.545,10.002h-2.257l-3.728-12.922H26.669z"/>
	<path fill="#FFFFFF" d="M44.514,26.416L47,36.599l2.521-10.183h2.436l2.535,10.123l2.643-10.123h2.17l-3.752,12.922h-2.256
		l-2.631-10.002l-2.545,10.002h-2.256l-3.729-12.922H44.514z"/>
</g>
</svg>
