<?xml version="1.0" encoding="utf-8"?>
<!-- Generator: Adobe Illustrator 16.0.0, SVG Export Plug-In . SVG Version: 6.00 Build 0)  -->
<!DOCTYPE svg PUBLIC "-//W3C//DTD SVG 1.1//EN" "http://www.w3.org/Graphics/SVG/1.1/DTD/svg11.dtd">
<svg version="1.1" id="Layer_1" xmlns="http://www.w3.org/2000/svg" xmlns:xlink="http://www.w3.org/1999/xlink" x="0px" y="0px"
	 width="180px" height="180px" viewBox="0 0 180 180" enable-background="new 0 0 180 180" xml:space="preserve">
<g>
	<linearGradient id="SVGID_1_" gradientUnits="userSpaceOnUse" x1="109.8477" y1="97.5518" x2="170.0719" y2="132.3223">
		<stop  offset="0" style="stop-color:#B2B2B2;stop-opacity:0.6"/>
		<stop  offset="1" style="stop-color:#E5E5E5;stop-opacity:0.1"/>
	</linearGradient>
	<path fill="url(#SVGID_1_)" d="M180.404,87.882l-48.73-28.134L91.755,128.89l-1.593,7.644l49.893,28.865
		c24.334-16.17,40.377-43.825,40.377-75.232C180.432,89.402,180.421,88.641,180.404,87.882z"/>
	<g>
		<path fill="#EB8182" d="M132.761,60.39c-9.907-9.097-25.978-9.097-35.879,0l-6.72,6.172l-6.727-6.172
			c-9.907-9.097-25.966-9.097-35.873,0c-11.148,10.228-11.148,26.806,0,37.044l42.6,39.099l42.599-39.099
			C143.906,87.2,143.906,70.618,132.761,60.39z"/>
		<path fill="#DC7878" d="M90.16,136.533l42.6-39.099c11.146-10.234,11.146-26.816,0-37.044c-9.907-9.097-25.978-9.097-35.88,0
			l-6.72,6.172"/>
	</g>
	<path fill="none" stroke="#FFFFFF" stroke-width="0.5248" stroke-miterlimit="10" d="M45.262,90.416"/>
	
		<line fill="none" stroke="#FFFFFF" stroke-width="6.8227" stroke-linecap="square" stroke-linejoin="bevel" stroke-miterlimit="10" x1="111.289" y1="80.211" x2="90.55" y2="98.713"/>
	
		<line fill="none" stroke="#FFFFFF" stroke-width="6.8227" stroke-linecap="square" stroke-linejoin="bevel" stroke-miterlimit="10" x1="79.603" y1="86.789" x2="90.241" y2="98.713"/>
</g>
</svg>
