<?xml version="1.0" encoding="utf-8"?>
<!-- Generator: Adobe Illustrator 16.0.0, SVG Export Plug-In . SVG Version: 6.00 Build 0)  -->
<!DOCTYPE svg PUBLIC "-//W3C//DTD SVG 1.1//EN" "http://www.w3.org/Graphics/SVG/1.1/DTD/svg11.dtd">
<svg version="1.1" id="Layer_1" xmlns="http://www.w3.org/2000/svg" xmlns:xlink="http://www.w3.org/1999/xlink" x="0px" y="0px"
	 width="180px" height="180px" viewBox="0 0 180 180" enable-background="new 0 0 180 180" xml:space="preserve">
<g>
	<linearGradient id="SVGID_1_" gradientUnits="userSpaceOnUse" x1="109.208" y1="96.8359" x2="168.869" y2="131.2812">
		<stop  offset="0" style="stop-color:#B2B2B2;stop-opacity:0.6"/>
		<stop  offset="1" style="stop-color:#E5E5E5;stop-opacity:0.1"/>
	</linearGradient>
	<path fill="url(#SVGID_1_)" d="M179.047,87.233l-48.175-27.919l-39.465,68.613l-1.575,7.585l49.326,28.646
		c24.057-16.047,39.917-43.492,39.917-74.658C179.075,88.741,179.065,87.987,179.047,87.233z"/>
	<g>
		<path fill="#EB8182" d="M131.946,59.952c-9.794-9.027-25.681-9.027-35.47,0l-6.645,6.125l-6.649-6.125
			c-9.795-9.027-25.67-9.027-35.465,0c-11.021,10.149-11.021,26.602,0,36.761l42.114,38.799l42.114-38.799
			C142.966,86.556,142.966,70.101,131.946,59.952z"/>
		<path fill="#DC7878" d="M89.831,135.512l42.115-38.799c11.021-10.157,11.021-26.612,0-36.761c-9.794-9.027-25.681-9.027-35.471,0
			l-6.644,6.125"/>
	</g>
	<path fill="none" stroke="#FFFFFF" stroke-width="0.5248" stroke-miterlimit="10" d="M45.444,89.747"/>
	
		<line fill="none" stroke="#FFFFFF" stroke-width="6.8227" stroke-linecap="square" stroke-linejoin="bevel" stroke-miterlimit="10" x1="69.334" y1="79.622" x2="89.836" y2="97.98"/>
	
		<line fill="none" stroke="#FFFFFF" stroke-width="6.8227" stroke-linecap="square" stroke-linejoin="bevel" stroke-miterlimit="10" x1="100.353" y1="86.149" x2="89.836" y2="97.98"/>
</g>
</svg>
