<?xml version="1.0" encoding="utf-8"?>
<!-- Generator: Adobe Illustrator 16.0.0, SVG Export Plug-In . SVG Version: 6.00 Build 0)  -->
<!DOCTYPE svg PUBLIC "-//W3C//DTD SVG 1.1//EN" "http://www.w3.org/Graphics/SVG/1.1/DTD/svg11.dtd">
<svg version="1.1" id="Layer_1" xmlns="http://www.w3.org/2000/svg" xmlns:xlink="http://www.w3.org/1999/xlink" x="0px" y="0px"
	 width="180px" height="180px" viewBox="0 0 180 180" enable-background="new 0 0 180 180" xml:space="preserve">
<g>
	<g>
		<path fill="#FFFFFF" d="M131.015,130.069c-11.747,0-33.422-10.495-53.936-26.114c-21.825-16.617-37.112-34.824-38.04-45.303
			c-0.224-2.532,0.375-4.59,1.779-6.117c1.629-1.772,4.217-2.67,7.691-2.67c11.747,0,33.423,10.494,53.937,26.113
			c21.825,16.618,37.111,34.824,38.039,45.304c0.226,2.531-0.374,4.589-1.777,6.116C137.078,129.171,134.49,130.069,131.015,130.069
			z M48.509,52.707c-2.647,0-4.531,0.589-5.6,1.751c-0.84,0.915-1.19,2.241-1.04,3.943c0.848,9.581,16.034,27.384,36.931,43.293
			c20.058,15.272,41.041,25.534,52.215,25.534c2.648,0,4.531-0.591,5.601-1.753c0.841-0.913,1.19-2.24,1.04-3.942
			c-0.85-9.581-16.035-27.385-36.932-43.294C80.667,62.967,59.683,52.707,48.509,52.707z"/>
	</g>
	<g>
		<path fill="#FFFFFF" d="M89.678,148.5h-0.009c-5.587,0-10.683-6.416-14.351-17.789c-3.506-10.877-5.425-25.377-5.4-40.703
			c0.025-15.319,1.988-29.776,5.528-40.642c3.702-11.361,8.815-17.635,14.399-17.635c5.599,0.008,10.694,6.266,14.361,17.639
			c3.507,10.876,5.427,25.303,5.401,40.628c-0.024,15.32-1.988,29.88-5.529,40.747C100.376,142.106,95.263,148.5,89.678,148.5z
			 M89.851,34.555c-8.214,0-17.039,22.256-17.092,55.389c-0.024,15.036,1.845,29.155,5.263,39.756
			c3.211,9.958,6.868,15.673,11.062,15.68L88.5,146.8v-1.42c9,0,17.625-22.258,17.676-55.39c0.025-15.036-1.55-29.155-4.968-39.757
			C97.997,40.275,94.045,34.56,89.851,34.555z"/>
	</g>
	<g>
		<path fill="#FFFFFF" d="M48.618,130.229c-3.435,0-6.001-0.888-7.625-2.64c-1.412-1.522-2.019-3.579-1.806-6.114
			c0.882-10.481,16.083-28.746,37.827-45.447c20.501-15.745,42.16-26.322,53.895-26.322c3.434,0,5.999,0.888,7.622,2.639
			c1.413,1.522,2.021,3.579,1.808,6.114c-0.883,10.484-16.085,28.749-37.828,45.447C82.01,119.65,60.352,130.229,48.618,130.229z
			 M130.908,52.547c-11.157,0-32.121,10.342-52.165,25.733c-20.817,15.991-35.919,33.851-36.726,43.434
			c-0.144,1.703,0.212,3.03,1.058,3.942c1.065,1.149,2.93,1.731,5.542,1.731c11.156,0,32.119-10.342,52.161-25.735
			c20.817-15.987,35.92-33.847,36.727-43.432c0.144-1.705-0.212-3.032-1.059-3.943C135.383,53.129,133.519,52.547,130.908,52.547z"
			/>
	</g>
	<g>
		<circle fill="#FFFFFF" cx="90.509" cy="90.412" r="9.229"/>
	</g>
	<g>
		<circle fill="#CDCDCD" cx="47.772" cy="128.866" r="7.033"/>
	</g>
	<g>
		<circle fill="#CDCDCD" cx="98.948" cy="40.27" r="7.033"/>
	</g>
	<g>
		<circle fill="#CDCDCD" cx="135.227" cy="128.331" r="7.034"/>
	</g>
</g>
</svg>
