<?xml version="1.0" encoding="UTF-8" standalone="no"?>
<svg width="197px" height="187px" viewBox="0 0 197 187" version="1.1" xmlns="http://www.w3.org/2000/svg" xmlns:xlink="http://www.w3.org/1999/xlink" xmlns:sketch="http://www.bohemiancoding.com/sketch/ns">
    <!-- Generator: Sketch 3.0.3 (7892) - http://www.bohemiancoding.com/sketch -->
    <title>Group</title>
    <desc>Created with Sketch.</desc>
    <defs>
        <path id="path-1" d="M88.4585915,23.6492958 L35.0704225,-0.0743661972 L-0.329577465,79.5929577 L54.6304225,104.014648 C75.5560563,87.6625352 89.0095775,62.1895775 89.0095775,33.5729577 C89.0095775,30.2180282 88.8185915,26.9087324 88.4585915,23.6492958"></path>
    </defs>
    <g id="Page-1" stroke="none" stroke-width="1" fill="none" fill-rule="evenodd" sketch:type="MSPage">
        <g id="Landing-(Desktop)-2" sketch:type="MSArtboardGroup" transform="translate(-227.000000, -1026.000000)">
            <g id="Group" sketch:type="MSLayerGroup" transform="translate(276.000000, 1027.000000)">
                <g id="Group-230" transform="translate(50.422535, 2.619718)">
                    <mask id="mask-2" sketch:name="Clip 4" fill="white">
                        <use xlink:href="#path-1"></use>
                    </mask>
                    <g id="Clip-4"></g>
                    <path d="M35.2369014,0 L35.0374648,0 L17.9332394,38.4938028 L39.0321127,1.68676056 L35.2369014,0" id="Fill-3" fill="#BDBDBD" sketch:type="MSShapeGroup" mask="url(#mask-2)"></path>
                    <path d="M39.0321127,1.68676056 L17.9332394,38.4938028 L17.196338,40.1526761 L39.203662,1.7628169 L39.0321127,1.68676056" id="Fill-5" fill="#BDBDBD" sketch:type="MSShapeGroup" mask="url(#mask-2)"></path>
                    <path d="M39.203662,1.7628169 L17.196338,40.1526761 L16.4577465,41.8149296 L39.3743662,1.83887324 L39.203662,1.7628169" id="Fill-6" fill="#BDBDBD" sketch:type="MSShapeGroup" mask="url(#mask-2)"></path>
                    <path d="M39.3743662,1.83887324 L16.4577465,41.8149296 L15.7233803,43.4687324 L39.5450704,1.91492958 L39.3743662,1.83887324" id="Fill-7" fill="#BDBDBD" sketch:type="MSShapeGroup" mask="url(#mask-2)"></path>
                    <path d="M39.5450704,1.91492958 L15.7233803,43.4687324 L14.9856338,45.1267606 L39.7183099,1.99183099 L39.5450704,1.91492958" id="Fill-8" fill="#BEBEBD" sketch:type="MSShapeGroup" mask="url(#mask-2)"></path>
                    <path d="M39.7183099,1.99183099 L14.9856338,45.1267606 L14.2521127,46.7780282 L39.8864789,2.06619718 L39.7183099,1.99183099" id="Fill-9" fill="#BEBEBD" sketch:type="MSShapeGroup" mask="url(#mask-2)"></path>
                    <path d="M39.8864789,2.06619718 L14.2521127,46.7780282 L13.5109859,48.4461972 L40.0605634,2.14394366 L39.8864789,2.06619718" id="Fill-10" fill="#BEBEBE" sketch:type="MSShapeGroup" mask="url(#mask-2)"></path>
                    <path d="M40.0605634,2.14394366 L13.5109859,48.4461972 L12.7774648,50.0966197 L40.2295775,2.21830986 L40.0605634,2.14394366" id="Fill-11" fill="#BEBEBE" sketch:type="MSShapeGroup" mask="url(#mask-2)"></path>
                    <path d="M40.2295775,2.21830986 L12.7774648,50.0966197 L12.0371831,51.7630986 L40.4028169,2.29605634 L40.2295775,2.21830986" id="Fill-12" fill="#BEBEBE" sketch:type="MSShapeGroup" mask="url(#mask-2)"></path>
                    <path d="M40.4028169,2.29605634 L12.0371831,51.7630986 L11.3078873,53.4050704 L40.5709859,2.37042254 L40.4028169,2.29605634" id="Fill-13" fill="#BFBFBE" sketch:type="MSShapeGroup" mask="url(#mask-2)"></path>
                    <path d="M40.5709859,2.37042254 L11.3078873,53.4050704 L10.5667606,55.0715493 L40.7450704,2.44732394 L40.5709859,2.37042254" id="Fill-14" fill="#BFBFBE" sketch:type="MSShapeGroup" mask="url(#mask-2)"></path>
                    <path d="M40.7450704,2.44732394 L10.5667606,55.0715493 L9.83915493,56.7101408 L40.9132394,2.52169014 L40.7450704,2.44732394" id="Fill-15" fill="#BFBFBF" sketch:type="MSShapeGroup" mask="url(#mask-2)"></path>
                    <path d="M40.9132394,2.52169014 L9.83915493,56.7101408 L9.10056338,58.3723944 L41.0864789,2.59943662 L40.9132394,2.52169014" id="Fill-16" fill="#BFBFBF" sketch:type="MSShapeGroup" mask="url(#mask-2)"></path>
                    <path d="M41.0864789,2.59943662 L9.10056338,58.3723944 L8.36788732,60.0202817 L41.2571831,2.67549296 L41.0864789,2.59943662" id="Fill-17" fill="#BFBFBF" sketch:type="MSShapeGroup" mask="url(#mask-2)"></path>
                    <path d="M41.2571831,2.67549296 L8.36788732,60.0202817 L7.62760563,61.6867606 L41.4278873,2.7515493 L41.2571831,2.67549296" id="Fill-18" fill="#C0C0BF" sketch:type="MSShapeGroup" mask="url(#mask-2)"></path>
                    <path d="M41.4278873,2.7515493 L7.62760563,61.6867606 L6.89577465,63.3338028 L41.5994366,2.82760563 L41.4278873,2.7515493" id="Fill-19" fill="#C0C0BF" sketch:type="MSShapeGroup" mask="url(#mask-2)"></path>
                    <path d="M41.5994366,2.82760563 L6.89577465,63.3338028 L6.15971831,64.9892958 L41.7701408,2.9028169 L41.5994366,2.82760563" id="Fill-20" fill="#C0C0C0" sketch:type="MSShapeGroup" mask="url(#mask-2)"></path>
                    <path d="M41.7701408,2.9028169 L6.15971831,64.9892958 L5.43042254,66.6321127 L41.9416901,2.97887324 L41.7701408,2.9028169" id="Fill-21" fill="#C0C0C0" sketch:type="MSShapeGroup" mask="url(#mask-2)"></path>
                    <path d="M41.9416901,2.97887324 L5.43042254,66.6321127 L4.69521127,68.2867606 L42.1115493,3.05492958 L41.9416901,2.97887324" id="Fill-22" fill="#C0C0C0" sketch:type="MSShapeGroup" mask="url(#mask-2)"></path>
                    <path d="M42.1115493,3.05492958 L4.69521127,68.2867606 L3.96422535,69.9312676 L42.2830986,3.13098592 L42.1115493,3.05492958" id="Fill-23" fill="#C1C1C0" sketch:type="MSShapeGroup" mask="url(#mask-2)"></path>
                    <path d="M42.2830986,3.13098592 L3.96422535,69.9312676 L3.22816901,71.5867606 L42.4538028,3.20704225 L42.2830986,3.13098592" id="Fill-24" fill="#C1C1C0" sketch:type="MSShapeGroup" mask="url(#mask-2)"></path>
                    <path d="M42.4538028,3.20704225 L3.22816901,71.5867606 L2.49380282,73.2414085 L42.6253521,3.28309859 L42.4538028,3.20704225" id="Fill-25" fill="#C1C1C1" sketch:type="MSShapeGroup" mask="url(#mask-2)"></path>
                    <path d="M42.6253521,3.28309859 L2.49380282,73.2414085 L1.75859155,74.8960563 L42.7960563,3.35830986 L42.6253521,3.28309859" id="Fill-26" fill="#C1C1C1" sketch:type="MSShapeGroup" mask="url(#mask-2)"></path>
                    <path d="M42.7960563,3.35830986 L1.75859155,74.8960563 L1.02338028,76.5507042 L42.9667606,3.4343662 L42.7960563,3.35830986" id="Fill-27" fill="#C1C1C1" sketch:type="MSShapeGroup" mask="url(#mask-2)"></path>
                    <path d="M42.9667606,3.4343662 L1.02338028,76.5507042 L0.294084507,78.1926761 L43.1383099,3.51042254 L42.9667606,3.4343662" id="Fill-28" fill="#C2C2C1" sketch:type="MSShapeGroup" mask="url(#mask-2)"></path>
                    <path d="M43.1383099,3.51042254 L0.294084507,78.1926761 L0,78.8526761 L0,79.0732394 L43.308169,3.58647887 L43.1383099,3.51042254" id="Fill-29" fill="#C2C2C1" sketch:type="MSShapeGroup" mask="url(#mask-2)"></path>
                    <path d="M43.308169,3.58647887 L0,79.0732394 L0,79.4467606 L43.4797183,3.66253521 L43.308169,3.58647887" id="Fill-30" fill="#C2C2C2" sketch:type="MSShapeGroup" mask="url(#mask-2)"></path>
                    <path d="M43.4797183,3.66253521 L0,79.4467606 L0,79.74 L0.0363380282,79.7560563 L43.6504225,3.73859155 L43.4797183,3.66253521" id="Fill-31" fill="#C2C2C2" sketch:type="MSShapeGroup" mask="url(#mask-2)"></path>
                    <path d="M43.6504225,3.73859155 L0.0363380282,79.7560563 L0.205352113,79.8312676 L43.8211268,3.81380282 L43.6504225,3.73859155" id="Fill-32" fill="#C2C2C2" sketch:type="MSShapeGroup" mask="url(#mask-2)"></path>
                    <path d="M43.8211268,3.81380282 L0.205352113,79.8312676 L0.376056338,79.9073239 L43.9943662,3.8915493 L43.8211268,3.81380282" id="Fill-33" fill="#C3C3C2" sketch:type="MSShapeGroup" mask="url(#mask-2)"></path>
                    <path d="M43.9943662,3.8915493 L0.376056338,79.9073239 L0.546760563,79.9833803 L44.1633803,3.96591549 L43.9943662,3.8915493" id="Fill-34" fill="#C3C3C2" sketch:type="MSShapeGroup" mask="url(#mask-2)"></path>
                    <path d="M44.1633803,3.96591549 L0.546760563,79.9833803 L0.654929577,80.0307042 L12.8425352,58.9233803 L44.3366197,4.04366197 L44.1633803,3.96591549" id="Fill-35" fill="#C3C3C3" sketch:type="MSShapeGroup" mask="url(#mask-2)"></path>
                    <path d="M44.3366197,4.04366197 L12.8425352,58.9233803 L44.4929577,4.11295775 L44.3366197,4.04366197" id="Fill-36" fill="#C3C3C3" sketch:type="MSShapeGroup" mask="url(#mask-2)"></path>
                    <path d="M44.4929577,4.11295775 L0.654929577,80.0307042 L0.815492958,80.1016901 L44.6661972,4.19070423 L44.4929577,4.11295775" id="Fill-37" fill="#C3C3C3" sketch:type="MSShapeGroup" mask="url(#mask-2)"></path>
                    <path d="M44.6661972,4.19070423 L0.823943662,80.1050704 L0.986197183,80.1777465 L44.8343662,4.26507042 L44.6661972,4.19070423" id="Fill-38" fill="#C4C4C3" sketch:type="MSShapeGroup" mask="url(#mask-2)"></path>
                    <path d="M44.8352113,4.26507042 L0.994647887,80.1819718 L1.15943662,80.255493 L45.0076056,4.34197183 L44.8352113,4.26507042" id="Fill-39" fill="#C4C4C3" sketch:type="MSShapeGroup" mask="url(#mask-2)"></path>
                    <path d="M45.0084507,4.3428169 L1.16788732,80.2588732 L1.33014085,80.3315493 L45.1783099,4.4171831 L45.0084507,4.3428169" id="Fill-40" fill="#C4C4C4" sketch:type="MSShapeGroup" mask="url(#mask-2)"></path>
                    <path d="M45.1791549,4.41802817 L1.33859155,80.3340845 L1.50169014,80.4076056 L45.3490141,4.49323944 L45.1791549,4.41802817" id="Fill-41" fill="#C4C4C4" sketch:type="MSShapeGroup" mask="url(#mask-2)"></path>
                    <path d="M45.3498592,4.49408451 L1.51014085,80.4101408 L1.67070423,80.4811268 L45.5197183,4.56929577 L45.3498592,4.49408451" id="Fill-42" fill="#C4C4C4" sketch:type="MSShapeGroup" mask="url(#mask-2)"></path>
                    <path d="M45.5205634,4.57014085 L1.67830986,80.4853521 L1.84140845,80.5571831 L45.6895775,4.64535211 L45.5205634,4.57014085" id="Fill-43" fill="#C5C5C4" sketch:type="MSShapeGroup" mask="url(#mask-2)"></path>
                    <path d="M45.6904225,4.64535211 L1.84985915,80.5614085 L2.01211268,80.6340845 L45.8611268,4.72140845 L45.6904225,4.64535211" id="Fill-44" fill="#C5C5C4" sketch:type="MSShapeGroup" mask="url(#mask-2)"></path>
                    <path d="M45.8611268,4.72140845 L2.02056338,80.6374648 L2.18366197,80.7101408 L46.0326761,4.79746479 L45.8611268,4.72140845" id="Fill-45" fill="#C5C5C5" sketch:type="MSShapeGroup" mask="url(#mask-2)"></path>
                    <path d="M46.0335211,4.79746479 L2.19211268,80.7143662 L2.3543662,80.7861972 L46.2025352,4.87183099 L46.0335211,4.79746479" id="Fill-46" fill="#C5C5C5" sketch:type="MSShapeGroup" mask="url(#mask-2)"></path>
                    <path d="M46.2033803,4.87267606 L2.3628169,80.7895775 L2.52422535,80.8605634 L46.3732394,4.94788732 L46.2033803,4.87267606" id="Fill-47" fill="#C5C5C5" sketch:type="MSShapeGroup" mask="url(#mask-2)"></path>
                    <path d="M46.3740845,4.94873239 L2.53267606,80.8647887 L2.69577465,80.9374648 L46.5447887,5.02394366 L46.3740845,4.94873239" id="Fill-48" fill="#C6C6C5" sketch:type="MSShapeGroup" mask="url(#mask-2)"></path>
                    <path d="M46.5447887,5.02478873 L2.70422535,80.9408451 L2.86732394,81.0135211 L46.7146479,5.10084507 L46.5447887,5.02478873" id="Fill-49" fill="#C6C6C5" sketch:type="MSShapeGroup" mask="url(#mask-2)"></path>
                    <path d="M46.715493,5.10084507 L2.87492958,81.0177465 L3.03887324,81.0904225 L46.8853521,5.17605634 L46.715493,5.10084507" id="Fill-50" fill="#C6C6C6" sketch:type="MSShapeGroup" mask="url(#mask-2)"></path>
                    <path d="M46.8861972,5.17605634 L3.04732394,81.0938028 L3.21042254,81.1664789 L47.0569014,5.25211268 L46.8861972,5.17605634" id="Fill-51" fill="#C6C6C6" sketch:type="MSShapeGroup" mask="url(#mask-2)"></path>
                    <path d="M47.0577465,5.25295775 L3.21887324,81.1698592 L3.37943662,81.2416901 L47.2276056,5.32816901 L47.0577465,5.25295775" id="Fill-52" fill="#C6C6C6" sketch:type="MSShapeGroup" mask="url(#mask-2)"></path>
                    <path d="M47.2284507,5.32816901 L3.38788732,81.2450704 L3.55014085,81.3177465 L47.3983099,5.40422535 L47.2284507,5.32816901" id="Fill-53" fill="#C7C7C6" sketch:type="MSShapeGroup" mask="url(#mask-2)"></path>
                    <path d="M47.3991549,5.40422535 L3.55859155,81.3211268 L3.72169014,81.3938028 L47.568169,5.48028169 L47.3991549,5.40422535" id="Fill-54" fill="#C7C7C6" sketch:type="MSShapeGroup" mask="url(#mask-2)"></path>
                    <path d="M47.5690141,5.48028169 L3.72591549,81.395493 L3.87380282,81.4605634 L47.7067606,5.54197183 L47.5690141,5.48028169" id="Fill-55" fill="#C7C7C7" sketch:type="MSShapeGroup" mask="url(#mask-2)"></path>
                    <path d="M47.7067606,5.54197183 L3.87380282,81.4605634 L4.04535211,81.5374648 L47.8783099,5.61802817 L47.7067606,5.54197183" id="Fill-56" fill="#C7C7C7" sketch:type="MSShapeGroup" mask="url(#mask-2)"></path>
                    <path d="M47.8783099,5.61802817 L4.04535211,81.5374648 L4.21605634,81.6135211 L48.0490141,5.69323944 L47.8783099,5.61802817" id="Fill-57" fill="#C7C7C7" sketch:type="MSShapeGroup" mask="url(#mask-2)"></path>
                    <path d="M48.0490141,5.69323944 L4.21605634,81.6135211 L4.3884507,81.6895775 L48.2222535,5.77014085 L48.0490141,5.69323944" id="Fill-58" fill="#C8C8C7" sketch:type="MSShapeGroup" mask="url(#mask-2)"></path>
                    <path d="M48.2222535,5.77014085 L4.3884507,81.6895775 L4.56,81.7656338 L48.3912676,5.84535211 L48.2222535,5.77014085" id="Fill-59" fill="#C8C8C7" sketch:type="MSShapeGroup" mask="url(#mask-2)"></path>
                    <path d="M48.3912676,5.84535211 L4.56,81.7656338 L4.72901408,81.8408451 L48.5619718,5.92140845 L48.3912676,5.84535211" id="Fill-60" fill="#C8C8C8" sketch:type="MSShapeGroup" mask="url(#mask-2)"></path>
                    <path d="M48.5619718,5.92140845 L4.72901408,81.8408451 L4.90056338,81.9169014 L48.7335211,5.99746479 L48.5619718,5.92140845" id="Fill-61" fill="#C8C8C8" sketch:type="MSShapeGroup" mask="url(#mask-2)"></path>
                    <path d="M48.7335211,5.99746479 L4.90056338,81.9169014 L5.07126761,81.9929577 L48.9016901,6.07183099 L48.7335211,5.99746479" id="Fill-62" fill="#C8C8C8" sketch:type="MSShapeGroup" mask="url(#mask-2)"></path>
                    <path d="M48.9016901,6.07183099 L5.07126761,81.9929577 L5.24197183,82.0690141 L49.0766197,6.14957746 L48.9016901,6.07183099" id="Fill-63" fill="#C9C9C8" sketch:type="MSShapeGroup" mask="url(#mask-2)"></path>
                    <path d="M49.0766197,6.14957746 L5.24197183,82.0690141 L5.41521127,82.1459155 L49.2456338,6.22478873 L49.0766197,6.14957746" id="Fill-64" fill="#C9C9C8" sketch:type="MSShapeGroup" mask="url(#mask-2)"></path>
                    <path d="M49.2456338,6.22478873 L5.41521127,82.1459155 L5.58338028,82.2211268 L49.4171831,6.30169014 L49.2456338,6.22478873" id="Fill-65" fill="#C9C9C9" sketch:type="MSShapeGroup" mask="url(#mask-2)"></path>
                    <path d="M49.4171831,6.30169014 L5.58338028,82.2211268 L5.75492958,82.2971831 L49.5887324,6.37774648 L49.4171831,6.30169014" id="Fill-66" fill="#C9C9C9" sketch:type="MSShapeGroup" mask="url(#mask-2)"></path>
                    <path d="M49.5887324,6.37774648 L5.75492958,82.2971831 L5.92647887,82.3732394 L49.7569014,6.45211268 L49.5887324,6.37774648" id="Fill-67" fill="#C9C9C9" sketch:type="MSShapeGroup" mask="url(#mask-2)"></path>
                    <path d="M49.7569014,6.45211268 L5.92647887,82.3732394 L6.0971831,82.4492958 L49.9276056,6.52732394 L49.7569014,6.45211268" id="Fill-68" fill="#CACAC9" sketch:type="MSShapeGroup" mask="url(#mask-2)"></path>
                    <path d="M49.9276056,6.52732394 L6.0971831,82.4492958 L6.26873239,82.524507 L50.0991549,6.60338028 L49.9276056,6.52732394" id="Fill-69" fill="#CACAC9" sketch:type="MSShapeGroup" mask="url(#mask-2)"></path>
                    <path d="M50.0991549,6.60338028 L6.26873239,82.524507 L6.43690141,82.5997183 L50.2698592,6.68028169 L50.0991549,6.60338028" id="Fill-70" fill="#CACACA" sketch:type="MSShapeGroup" mask="url(#mask-2)"></path>
                    <path d="M50.2698592,6.68028169 L6.43690141,82.5997183 L6.60929577,82.6766197 L50.4430986,6.7571831 L50.2698592,6.68028169" id="Fill-71" fill="#CACACA" sketch:type="MSShapeGroup" mask="url(#mask-2)"></path>
                    <path d="M50.4430986,6.7571831 L6.60929577,82.6766197 L6.78084507,82.7526761 L50.6121127,6.8315493 L50.4430986,6.7571831" id="Fill-72" fill="#CACACA" sketch:type="MSShapeGroup" mask="url(#mask-2)"></path>
                    <path d="M50.6121127,6.8315493 L6.78084507,82.7526761 L6.9515493,82.8287324 L50.7828169,6.90760563 L50.6121127,6.8315493" id="Fill-73" fill="#CBCBCA" sketch:type="MSShapeGroup" mask="url(#mask-2)"></path>
                    <path d="M50.7828169,6.90760563 L6.9515493,82.8287324 L7.12394366,82.9047887 L50.9535211,6.98450704 L50.7828169,6.90760563" id="Fill-74" fill="#CBCBCA" sketch:type="MSShapeGroup" mask="url(#mask-2)"></path>
                    <path d="M50.9535211,6.98450704 L7.12394366,82.9047887 L7.29211268,82.98 L51.1267606,7.06056338 L50.9535211,6.98450704" id="Fill-75" fill="#CBCBCB" sketch:type="MSShapeGroup" mask="url(#mask-2)"></path>
                    <path d="M51.1267606,7.06056338 L7.29211268,82.98 L7.46450704,83.0560563 L51.2974648,7.13661972 L51.1267606,7.06056338" id="Fill-76" fill="#CBCBCB" sketch:type="MSShapeGroup" mask="url(#mask-2)"></path>
                    <path d="M51.2974648,7.13661972 L7.46450704,83.0560563 L7.63521127,83.1321127 L51.4664789,7.21183099 L51.2974648,7.13661972" id="Fill-77" fill="#CBCBCB" sketch:type="MSShapeGroup" mask="url(#mask-2)"></path>
                    <path d="M51.4664789,7.21183099 L7.63521127,83.1321127 L7.80338028,83.2073239 L51.6380282,7.28788732 L51.4664789,7.21183099" id="Fill-78" fill="#CCCCCB" sketch:type="MSShapeGroup" mask="url(#mask-2)"></path>
                    <path d="M51.6380282,7.28788732 L7.80338028,83.2073239 L7.97577465,83.2842254 L51.8095775,7.36478873 L51.6380282,7.28788732" id="Fill-79" fill="#CCCCCB" sketch:type="MSShapeGroup" mask="url(#mask-2)"></path>
                    <path d="M51.8095775,7.36478873 L7.97577465,83.2842254 L8.14647887,83.3602817 L51.9794366,7.44 L51.8095775,7.36478873" id="Fill-80" fill="#CCCCCC" sketch:type="MSShapeGroup" mask="url(#mask-2)"></path>
                    <path d="M51.9794366,7.44 L8.14647887,83.3602817 L8.31802817,83.435493 L52.1509859,7.51605634 L51.9794366,7.44" id="Fill-81" fill="#CCCCCC" sketch:type="MSShapeGroup" mask="url(#mask-2)"></path>
                    <path d="M52.1509859,7.51605634 L8.31802817,83.435493 L8.48873239,83.5115493 L52.32,7.59042254 L52.1509859,7.51605634" id="Fill-82" fill="#CCCCCC" sketch:type="MSShapeGroup" mask="url(#mask-2)"></path>
                    <path d="M52.32,7.59042254 L8.48873239,83.5115493 L8.65859155,83.5867606 L52.4923944,7.66816901 L52.32,7.59042254" id="Fill-83" fill="#CDCDCC" sketch:type="MSShapeGroup" mask="url(#mask-2)"></path>
                    <path d="M52.4923944,7.66816901 L8.65859155,83.5867606 L8.83014085,83.663662 L52.6630986,7.74422535 L52.4923944,7.66816901" id="Fill-84" fill="#CDCDCC" sketch:type="MSShapeGroup" mask="url(#mask-2)"></path>
                    <path d="M52.6630986,7.74422535 L8.83014085,83.663662 L9.00169014,83.7397183 L52.8329577,7.81859155 L52.6630986,7.74422535" id="Fill-85" fill="#CDCDCD" sketch:type="MSShapeGroup" mask="url(#mask-2)"></path>
                    <path d="M52.8329577,7.81859155 L9.00169014,83.7397183 L9.17323944,83.8157746 L53.0070423,7.89633803 L52.8329577,7.81859155" id="Fill-86" fill="#CDCDCD" sketch:type="MSShapeGroup" mask="url(#mask-2)"></path>
                    <path d="M53.0070423,7.89633803 L9.17323944,83.8157746 L9.34394366,83.8909859 L53.1760563,7.9715493 L53.0070423,7.89633803" id="Fill-87" fill="#CDCDCD" sketch:type="MSShapeGroup" mask="url(#mask-2)"></path>
                    <path d="M53.1760563,7.9715493 L9.34394366,83.8909859 L9.51380282,83.9670423 L53.3476056,8.04760563 L53.1760563,7.9715493" id="Fill-88" fill="#CECECD" sketch:type="MSShapeGroup" mask="url(#mask-2)"></path>
                    <path d="M53.3476056,8.04760563 L9.51380282,83.9670423 L9.68535211,84.0430986 L53.5183099,8.12366197 L53.3476056,8.04760563" id="Fill-89" fill="#CECECD" sketch:type="MSShapeGroup" mask="url(#mask-2)"></path>
                    <path d="M53.5183099,8.12366197 L9.68535211,84.0430986 L9.85690141,84.1191549 L53.6873239,8.19802817 L53.5183099,8.12366197" id="Fill-90" fill="#CECECE" sketch:type="MSShapeGroup" mask="url(#mask-2)"></path>
                    <path d="M53.6873239,8.19802817 L9.85690141,84.1191549 L10.0276056,84.1952113 L53.8580282,8.27492958 L53.6873239,8.19802817" id="Fill-91" fill="#CECECE" sketch:type="MSShapeGroup" mask="url(#mask-2)"></path>
                    <path d="M53.8580282,8.27492958 L10.0276056,84.1952113 L10.1991549,84.2712676 L54.0304225,8.35098592 L53.8580282,8.27492958" id="Fill-92" fill="#CECECE" sketch:type="MSShapeGroup" mask="url(#mask-2)"></path>
                    <path d="M54.0304225,8.35098592 L10.1991549,84.2712676 L10.368169,84.3464789 L54.2011268,8.42704225 L54.0304225,8.35098592" id="Fill-93" fill="#CFCFCE" sketch:type="MSShapeGroup" mask="url(#mask-2)"></path>
                    <path d="M54.2011268,8.42704225 L10.368169,84.3464789 L10.5388732,84.4225352 L54.371831,8.50309859 L54.2011268,8.42704225" id="Fill-94" fill="#CFCFCE" sketch:type="MSShapeGroup" mask="url(#mask-2)"></path>
                    <path d="M54.371831,8.50309859 L10.5388732,84.4225352 L10.7104225,84.4985915 L54.5416901,8.57915493 L54.371831,8.50309859" id="Fill-95" fill="#CFCFCF" sketch:type="MSShapeGroup" mask="url(#mask-2)"></path>
                    <path d="M54.5416901,8.57915493 L10.7104225,84.4985915 L10.8828169,84.575493 L54.7132394,8.6543662 L54.5416901,8.57915493" id="Fill-96" fill="#CFCFCF" sketch:type="MSShapeGroup" mask="url(#mask-2)"></path>
                    <path d="M54.7132394,8.6543662 L10.8828169,84.575493 L11.0535211,84.6515493 L54.8839437,8.73126761 L54.7132394,8.6543662" id="Fill-97" fill="#CFCFCF" sketch:type="MSShapeGroup" mask="url(#mask-2)"></path>
                    <path d="M54.8839437,8.73126761 L11.0535211,84.6515493 L11.2216901,84.7267606 L55.0546479,8.80732394 L54.8839437,8.73126761" id="Fill-98" fill="#D0D0CF" sketch:type="MSShapeGroup" mask="url(#mask-2)"></path>
                    <path d="M55.0546479,8.80732394 L11.2216901,84.7267606 L11.3932394,84.8019718 L55.2270423,8.88338028 L55.0546479,8.80732394" id="Fill-99" fill="#D0D0CF" sketch:type="MSShapeGroup" mask="url(#mask-2)"></path>
                    <path d="M55.2270423,8.88338028 L11.3932394,84.8019718 L11.5656338,84.8788732 L55.3969014,8.95859155 L55.2270423,8.88338028" id="Fill-100" fill="#D0D0D0" sketch:type="MSShapeGroup" mask="url(#mask-2)"></path>
                    <path d="M55.3969014,8.95859155 L11.5656338,84.8788732 L11.7346479,84.9540845 L55.5676056,9.03464789 L55.3969014,8.95859155" id="Fill-101" fill="#D0D0D0" sketch:type="MSShapeGroup" mask="url(#mask-2)"></path>
                    <path d="M55.5676056,9.03464789 L11.7346479,84.9540845 L11.9061972,85.0301408 L55.7391549,9.11070423 L55.5676056,9.03464789" id="Fill-102" fill="#D0D0D0" sketch:type="MSShapeGroup" mask="url(#mask-2)"></path>
                    <path d="M55.7391549,9.11070423 L11.9061972,85.0301408 L12.0769014,85.1061972 L55.9098592,9.18676056 L55.7391549,9.11070423" id="Fill-103" fill="#D1D1D0" sketch:type="MSShapeGroup" mask="url(#mask-2)"></path>
                    <path d="M55.9098592,9.18676056 L12.0769014,85.1061972 L12.2484507,85.1822535 L56.0814085,9.2628169 L55.9098592,9.18676056" id="Fill-104" fill="#D1D1D0" sketch:type="MSShapeGroup" mask="url(#mask-2)"></path>
                    <path d="M56.0814085,9.2628169 L12.2484507,85.1822535 L12.4191549,85.2574648 L56.2495775,9.3371831 L56.0814085,9.2628169" id="Fill-105" fill="#D1D1D1" sketch:type="MSShapeGroup" mask="url(#mask-2)"></path>
                    <path d="M56.2495775,9.3371831 L12.4191549,85.2574648 L12.588169,85.3326761 L56.4219718,9.41323944 L56.2495775,9.3371831" id="Fill-106" fill="#D1D1D1" sketch:type="MSShapeGroup" mask="url(#mask-2)"></path>
                    <path d="M56.4219718,9.41323944 L12.588169,85.3326761 L12.7597183,85.4087324 L56.5943662,9.49098592 L56.4219718,9.41323944" id="Fill-107" fill="#D1D1D1" sketch:type="MSShapeGroup" mask="url(#mask-2)"></path>
                    <path d="M56.5943662,9.49098592 L12.7597183,85.4087324 L12.9321127,85.4856338 L56.7633803,9.56535211 L56.5943662,9.49098592" id="Fill-108" fill="#D2D2D1" sketch:type="MSShapeGroup" mask="url(#mask-2)"></path>
                    <path d="M56.7633803,9.56535211 L12.9321127,85.4856338 L13.103662,85.5616901 L56.9366197,9.64225352 L56.7633803,9.56535211" id="Fill-109" fill="#D2D2D1" sketch:type="MSShapeGroup" mask="url(#mask-2)"></path>
                    <path d="M56.9366197,9.64225352 L13.103662,85.5616901 L13.2743662,85.6377465 L57.1056338,9.71746479 L56.9366197,9.64225352" id="Fill-110" fill="#D2D2D2" sketch:type="MSShapeGroup" mask="url(#mask-2)"></path>
                    <path d="M57.1056338,9.71746479 L13.2743662,85.6377465 L13.4425352,85.7129577 L57.276338,9.7943662 L57.1056338,9.71746479" id="Fill-111" fill="#D2D2D2" sketch:type="MSShapeGroup" mask="url(#mask-2)"></path>
                    <path d="M57.276338,9.7943662 L13.4425352,85.7129577 L13.6149296,85.7890141 L57.4504225,9.87042254 L57.276338,9.7943662" id="Fill-112" fill="#D2D2D2" sketch:type="MSShapeGroup" mask="url(#mask-2)"></path>
                    <path d="M57.4504225,9.87042254 L13.6149296,85.7890141 L13.7873239,85.8650704 L57.6185915,9.9456338 L57.4504225,9.87042254" id="Fill-113" fill="#D3D3D2" sketch:type="MSShapeGroup" mask="url(#mask-2)"></path>
                    <path d="M57.6185915,9.9456338 L13.7873239,85.8650704 L13.9580282,85.9411268 L57.7892958,10.0216901 L57.6185915,9.9456338" id="Fill-114" fill="#D3D3D2" sketch:type="MSShapeGroup" mask="url(#mask-2)"></path>
                    <path d="M57.7892958,10.0216901 L13.9580282,85.9411268 L14.1295775,86.0171831 L57.96,10.0977465 L57.7892958,10.0216901" id="Fill-115" fill="#D3D3D3" sketch:type="MSShapeGroup" mask="url(#mask-2)"></path>
                    <path d="M57.96,10.0977465 L14.1295775,86.0171831 L14.2985915,86.0932394 L58.1315493,10.1738028 L57.96,10.0977465" id="Fill-116" fill="#D3D3D3" sketch:type="MSShapeGroup" mask="url(#mask-2)"></path>
                    <path d="M58.1315493,10.1738028 L14.2985915,86.0932394 L14.4692958,86.1692958 L58.3022535,10.2498592 L58.1315493,10.1738028" id="Fill-117" fill="#D3D3D3" sketch:type="MSShapeGroup" mask="url(#mask-2)"></path>
                    <path d="M58.3022535,10.2498592 L14.4692958,86.1692958 L14.64,86.2453521 L58.4704225,10.3242254 L58.3022535,10.2498592" id="Fill-118" fill="#D4D4D3" sketch:type="MSShapeGroup" mask="url(#mask-2)"></path>
                    <path d="M58.4704225,10.3242254 L14.64,86.2453521 L14.8107042,86.3214085 L58.643662,10.4019718 L58.4704225,10.3242254" id="Fill-119" fill="#D4D4D4" sketch:type="MSShapeGroup" mask="url(#mask-2)"></path>
                    <path d="M58.643662,10.4019718 L14.8107042,86.3214085 L14.9830986,86.3974648 L58.8152113,10.4771831 L58.643662,10.4019718" id="Fill-120" fill="#D4D4D4" sketch:type="MSShapeGroup" mask="url(#mask-2)"></path>
                    <path d="M58.8152113,10.4771831 L14.9830986,86.3974648 L15.1529577,86.4726761 L58.9859155,10.5532394 L58.8152113,10.4771831" id="Fill-121" fill="#D4D4D4" sketch:type="MSShapeGroup" mask="url(#mask-2)"></path>
                    <path d="M58.9859155,10.5532394 L15.1529577,86.4726761 L15.324507,86.5487324 L59.1574648,10.6292958 L58.9859155,10.5532394" id="Fill-122" fill="#D4D4D4" sketch:type="MSShapeGroup" mask="url(#mask-2)"></path>
                    <path d="M59.1574648,10.6292958 L15.324507,86.5487324 L15.4952113,86.6247887 L59.3256338,10.704507 L59.1574648,10.6292958" id="Fill-123" fill="#D5D5D4" sketch:type="MSShapeGroup" mask="url(#mask-2)"></path>
                    <path d="M59.3256338,10.704507 L15.4952113,86.6247887 L15.6633803,86.7 L59.4980282,10.7814085 L59.3256338,10.704507" id="Fill-124" fill="#D5D5D5" sketch:type="MSShapeGroup" mask="url(#mask-2)"></path>
                    <path d="M59.4980282,10.7814085 L15.6633803,86.7 L15.8366197,86.7769014 L59.6695775,10.8574648 L59.4980282,10.7814085" id="Fill-125" fill="#D5D5D5" sketch:type="MSShapeGroup" mask="url(#mask-2)"></path>
                    <path d="M59.6695775,10.8574648 L15.8366197,86.7769014 L16.0073239,86.8521127 L59.8419718,10.9326761 L59.6695775,10.8574648" id="Fill-126" fill="#D5D5D5" sketch:type="MSShapeGroup" mask="url(#mask-2)"></path>
                    <path d="M59.8419718,10.9326761 L16.0073239,86.8521127 L16.1788732,86.928169 L60.0126761,11.0087324 L59.8419718,10.9326761" id="Fill-127" fill="#D5D5D5" sketch:type="MSShapeGroup" mask="url(#mask-2)"></path>
                    <path d="M60.0126761,11.0087324 L16.1788732,86.928169 L16.3504225,87.0042254 L60.1808451,11.0839437 L60.0126761,11.0087324" id="Fill-128" fill="#D6D6D5" sketch:type="MSShapeGroup" mask="url(#mask-2)"></path>
                    <path d="M60.1808451,11.0839437 L16.3504225,87.0042254 L16.5185915,87.0802817 L60.3515493,11.16 L60.1808451,11.0839437" id="Fill-129" fill="#D6D6D6" sketch:type="MSShapeGroup" mask="url(#mask-2)"></path>
                    <path d="M60.3515493,11.16 L16.5185915,87.0802817 L16.6901408,87.156338 L60.5230986,11.2369014 L60.3515493,11.16" id="Fill-130" fill="#D6D6D6" sketch:type="MSShapeGroup" mask="url(#mask-2)"></path>
                    <path d="M60.5230986,11.2369014 L16.6901408,87.156338 L16.8608451,87.2323944 L60.6929577,11.3121127 L60.5230986,11.2369014" id="Fill-131" fill="#D6D6D6" sketch:type="MSShapeGroup" mask="url(#mask-2)"></path>
                    <path d="M60.6929577,11.3121127 L16.8608451,87.2323944 L17.0332394,87.3076056 L60.863662,11.3873239 L60.6929577,11.3121127" id="Fill-132" fill="#D6D6D6" sketch:type="MSShapeGroup" mask="url(#mask-2)"></path>
                    <path d="M60.863662,11.3873239 L17.0332394,87.3076056 L17.2047887,87.384507 L61.0360563,11.4633803 L60.863662,11.3873239" id="Fill-133" fill="#D7D7D6" sketch:type="MSShapeGroup" mask="url(#mask-2)"></path>
                    <path d="M61.0360563,11.4633803 L17.2047887,87.384507 L17.3738028,87.4597183 L61.2067606,11.5402817 L61.0360563,11.4633803" id="Fill-134" fill="#D7D7D7" sketch:type="MSShapeGroup" mask="url(#mask-2)"></path>
                    <path d="M61.2067606,11.5402817 L17.3738028,87.4597183 L17.544507,87.5357746 L61.3774648,11.616338 L61.2067606,11.5402817" id="Fill-135" fill="#D7D7D7" sketch:type="MSShapeGroup" mask="url(#mask-2)"></path>
                    <path d="M61.3774648,11.616338 L17.544507,87.5357746 L17.7160563,87.611831 L61.548169,11.6923944 L61.3774648,11.616338" id="Fill-136" fill="#D7D7D7" sketch:type="MSShapeGroup" mask="url(#mask-2)"></path>
                    <path d="M61.548169,11.6923944 L17.7160563,87.611831 L17.8884507,87.6887324 L61.7197183,11.7684507 L61.548169,11.6923944" id="Fill-137" fill="#D7D7D7" sketch:type="MSShapeGroup" mask="url(#mask-2)"></path>
                    <path d="M61.7197183,11.7684507 L17.8884507,87.6887324 L18.06,87.7647887 L61.8904225,11.843662 L61.7197183,11.7684507" id="Fill-138" fill="#D8D8D7" sketch:type="MSShapeGroup" mask="url(#mask-2)"></path>
                    <path d="M61.8904225,11.843662 L18.06,87.7647887 L18.228169,87.8391549 L62.0611268,11.9197183 L61.8904225,11.843662" id="Fill-139" fill="#D8D8D8" sketch:type="MSShapeGroup" mask="url(#mask-2)"></path>
                    <path d="M62.0611268,11.9197183 L18.228169,87.8391549 L18.3988732,87.9152113 L62.2326761,11.9957746 L62.0611268,11.9197183" id="Fill-140" fill="#D8D8D8" sketch:type="MSShapeGroup" mask="url(#mask-2)"></path>
                    <path d="M62.2326761,11.9957746 L18.3988732,87.9152113 L18.5704225,87.9912676 L62.4016901,12.0709859 L62.2326761,11.9957746" id="Fill-141" fill="#D8D8D8" sketch:type="MSShapeGroup" mask="url(#mask-2)"></path>
                    <path d="M62.4016901,12.0709859 L18.5704225,87.9912676 L18.7394366,88.0664789 L62.5732394,12.1470423 L62.4016901,12.0709859" id="Fill-142" fill="#D8D8D8" sketch:type="MSShapeGroup" mask="url(#mask-2)"></path>
                    <path d="M62.5732394,12.1470423 L18.7394366,88.0664789 L18.9135211,88.1433803 L62.7439437,12.2239437 L62.5732394,12.1470423" id="Fill-143" fill="#D9D9D8" sketch:type="MSShapeGroup" mask="url(#mask-2)"></path>
                    <path d="M62.7439437,12.2239437 L18.9135211,88.1433803 L19.0833803,88.2185915 L62.916338,12.3 L62.7439437,12.2239437" id="Fill-144" fill="#D9D9D9" sketch:type="MSShapeGroup" mask="url(#mask-2)"></path>
                    <path d="M62.916338,12.3 L19.0833803,88.2185915 L19.2540845,88.2946479 L63.0878873,12.3760563 L62.916338,12.3" id="Fill-145" fill="#D9D9D9" sketch:type="MSShapeGroup" mask="url(#mask-2)"></path>
                    <path d="M63.0878873,12.3760563 L19.2540845,88.2946479 L19.4247887,88.3707042 L63.2560563,12.4512676 L63.0878873,12.3760563" id="Fill-146" fill="#D9D9D9" sketch:type="MSShapeGroup" mask="url(#mask-2)"></path>
                    <path d="M63.2560563,12.4512676 L19.4247887,88.3707042 L19.595493,88.4467606 L63.4284507,12.5273239 L63.2560563,12.4512676" id="Fill-147" fill="#D9D9D9" sketch:type="MSShapeGroup" mask="url(#mask-2)"></path>
                    <path d="M63.4284507,12.5273239 L19.595493,88.4467606 L19.7661972,88.5228169 L63.6,12.6033803 L63.4284507,12.5273239" id="Fill-148" fill="#DADAD9" sketch:type="MSShapeGroup" mask="url(#mask-2)"></path>
                    <path d="M63.6,12.6033803 L19.7661972,88.5228169 L19.9385915,88.5988732 L63.7715493,12.6794366 L63.6,12.6033803" id="Fill-149" fill="#DADADA" sketch:type="MSShapeGroup" mask="url(#mask-2)"></path>
                    <path d="M63.7715493,12.6794366 L19.9385915,88.5988732 L20.1101408,88.6757746 L63.9430986,12.755493 L63.7715493,12.6794366" id="Fill-150" fill="#DADADA" sketch:type="MSShapeGroup" mask="url(#mask-2)"></path>
                    <path d="M63.9430986,12.755493 L20.1101408,88.6757746 L20.2808451,88.7509859 L64.1112676,12.8315493 L63.9430986,12.755493" id="Fill-151" fill="#DADADA" sketch:type="MSShapeGroup" mask="url(#mask-2)"></path>
                    <path d="M64.1112676,12.8315493 L20.2808451,88.7509859 L20.4490141,88.8261972 L64.2828169,12.9076056 L64.1112676,12.8315493" id="Fill-152" fill="#DADADA" sketch:type="MSShapeGroup" mask="url(#mask-2)"></path>
                    <path d="M64.2828169,12.9076056 L20.4490141,88.8261972 L20.6197183,88.9022535 L64.4535211,12.9828169 L64.2828169,12.9076056" id="Fill-153" fill="#DBDBDA" sketch:type="MSShapeGroup" mask="url(#mask-2)"></path>
                    <path d="M64.4535211,12.9828169 L20.6197183,88.9022535 L20.7912676,88.9783099 L64.6216901,13.0571831 L64.4535211,12.9828169" id="Fill-154" fill="#DBDBDB" sketch:type="MSShapeGroup" mask="url(#mask-2)"></path>
                    <path d="M64.6216901,13.0571831 L20.7912676,88.9783099 L20.9628169,89.0543662 L64.7932394,13.1332394 L64.6216901,13.0571831" id="Fill-155" fill="#DBDBDB" sketch:type="MSShapeGroup" mask="url(#mask-2)"></path>
                    <path d="M64.7932394,13.1332394 L20.9628169,89.0543662 L21.1343662,89.1295775 L64.9664789,13.2109859 L64.7932394,13.1332394" id="Fill-156" fill="#DBDBDB" sketch:type="MSShapeGroup" mask="url(#mask-2)"></path>
                    <path d="M64.9664789,13.2109859 L21.1343662,89.1295775 L21.3042254,89.2056338 L65.1371831,13.2870423 L64.9664789,13.2109859" id="Fill-157" fill="#DBDBDB" sketch:type="MSShapeGroup" mask="url(#mask-2)"></path>
                    <path d="M65.1371831,13.2870423 L21.3042254,89.2056338 L21.4749296,89.2816901 L65.3078873,13.3630986 L65.1371831,13.2870423" id="Fill-158" fill="#DCDCDB" sketch:type="MSShapeGroup" mask="url(#mask-2)"></path>
                    <path d="M65.3078873,13.3630986 L21.4749296,89.2816901 L21.6464789,89.3577465 L65.4769014,13.4366197 L65.3078873,13.3630986" id="Fill-159" fill="#DCDCDC" sketch:type="MSShapeGroup" mask="url(#mask-2)"></path>
                    <path d="M65.4769014,13.4366197 L21.6464789,89.3577465 L21.8180282,89.4338028 L65.6501408,13.5143662 L65.4769014,13.4366197" id="Fill-160" fill="#DCDCDC" sketch:type="MSShapeGroup" mask="url(#mask-2)"></path>
                    <path d="M65.6501408,13.5143662 L21.8180282,89.4338028 L21.9895775,89.5115493 L65.8208451,13.5904225 L65.6501408,13.5143662" id="Fill-161" fill="#DCDCDC" sketch:type="MSShapeGroup" mask="url(#mask-2)"></path>
                    <path d="M65.8208451,13.5904225 L21.9895775,89.5115493 L22.1585915,89.5859155 L65.9915493,13.6664789 L65.8208451,13.5904225" id="Fill-162" fill="#DCDCDC" sketch:type="MSShapeGroup" mask="url(#mask-2)"></path>
                    <path d="M65.9915493,13.6664789 L22.1585915,89.5859155 L22.3301408,89.6619718 L66.1630986,13.7425352 L65.9915493,13.6664789" id="Fill-163" fill="#DDDDDC" sketch:type="MSShapeGroup" mask="url(#mask-2)"></path>
                    <path d="M66.1630986,13.7425352 L22.3301408,89.6619718 L22.5008451,89.7380282 L66.3321127,13.8177465 L66.1630986,13.7425352" id="Fill-164" fill="#DDDDDD" sketch:type="MSShapeGroup" mask="url(#mask-2)"></path>
                    <path d="M66.3321127,13.8177465 L22.5008451,89.7380282 L22.6690141,89.8123944 L66.5028169,13.8929577 L66.3321127,13.8177465" id="Fill-165" fill="#DDDDDD" sketch:type="MSShapeGroup" mask="url(#mask-2)"></path>
                    <path d="M66.5028169,13.8929577 L22.6690141,89.8123944 L22.8430986,89.8901408 L66.6743662,13.9698592 L66.5028169,13.8929577" id="Fill-166" fill="#DDDDDD" sketch:type="MSShapeGroup" mask="url(#mask-2)"></path>
                    <path d="M66.6743662,13.9698592 L22.8430986,89.8901408 L23.0121127,89.9653521 L66.8450704,14.0459155 L66.6743662,13.9698592" id="Fill-167" fill="#DDDDDD" sketch:type="MSShapeGroup" mask="url(#mask-2)"></path>
                    <path d="M66.8450704,14.0459155 L23.0121127,89.9653521 L23.183662,90.0414085 L67.0183099,14.1219718 L66.8450704,14.0459155" id="Fill-168" fill="#DEDEDD" sketch:type="MSShapeGroup" mask="url(#mask-2)"></path>
                    <path d="M67.0183099,14.1219718 L23.183662,90.0414085 L23.3569014,90.1174648 L67.1873239,14.1980282 L67.0183099,14.1219718" id="Fill-169" fill="#DEDEDE" sketch:type="MSShapeGroup" mask="url(#mask-2)"></path>
                    <path d="M67.1873239,14.1980282 L23.3569014,90.1174648 L23.5250704,90.1935211 L67.3580282,14.2740845 L67.1873239,14.1980282" id="Fill-170" fill="#DEDEDE" sketch:type="MSShapeGroup" mask="url(#mask-2)"></path>
                    <path d="M67.3580282,14.2740845 L23.5250704,90.1935211 L23.6957746,90.2687324 L67.5295775,14.3492958 L67.3580282,14.2740845" id="Fill-171" fill="#DEDEDE" sketch:type="MSShapeGroup" mask="url(#mask-2)"></path>
                    <path d="M67.5295775,14.3492958 L23.6957746,90.2687324 L23.8664789,90.3447887 L67.6994366,14.4253521 L67.5295775,14.3492958" id="Fill-172" fill="#DEDEDE" sketch:type="MSShapeGroup" mask="url(#mask-2)"></path>
                    <path d="M67.6994366,14.4253521 L23.8664789,90.3447887 L24.0397183,90.4216901 L67.8726761,14.5014085 L67.6994366,14.4253521" id="Fill-173" fill="#DFDFDE" sketch:type="MSShapeGroup" mask="url(#mask-2)"></path>
                    <path d="M67.8726761,14.5014085 L24.0397183,90.4216901 L24.2104225,90.4977465 L68.0416901,14.5774648 L67.8726761,14.5014085" id="Fill-174" fill="#DFDFDF" sketch:type="MSShapeGroup" mask="url(#mask-2)"></path>
                    <path d="M68.0416901,14.5774648 L24.2104225,90.4977465 L24.3802817,90.5729577 L68.2132394,14.6535211 L68.0416901,14.5774648" id="Fill-175" fill="#DFDFDF" sketch:type="MSShapeGroup" mask="url(#mask-2)"></path>
                    <path d="M68.2132394,14.6535211 L24.3802817,90.5729577 L24.551831,90.6490141 L68.3839437,14.7295775 L68.2132394,14.6535211" id="Fill-176" fill="#DFDFDF" sketch:type="MSShapeGroup" mask="url(#mask-2)"></path>
                    <path d="M68.3839437,14.7295775 L24.551831,90.6490141 L24.7225352,90.7242254 L68.5529577,14.8030986 L68.3839437,14.7295775" id="Fill-177" fill="#DFDFDF" sketch:type="MSShapeGroup" mask="url(#mask-2)"></path>
                    <path d="M68.5529577,14.8030986 L24.7225352,90.7242254 L24.8923944,90.8002817 L68.723662,14.88 L68.5529577,14.8030986" id="Fill-178" fill="#E0E0DF" sketch:type="MSShapeGroup" mask="url(#mask-2)"></path>
                    <path d="M68.723662,14.88 L24.8923944,90.8002817 L25.0639437,90.876338 L68.8943662,14.9560563 L68.723662,14.88" id="Fill-179" fill="#E0E0E0" sketch:type="MSShapeGroup" mask="url(#mask-2)"></path>
                    <path d="M68.8943662,14.9560563 L25.0639437,90.876338 L25.2329577,90.9523944 L69.0676056,15.0329577 L68.8943662,14.9560563" id="Fill-180" fill="#E0E0E0" sketch:type="MSShapeGroup" mask="url(#mask-2)"></path>
                    <path d="M69.0676056,15.0329577 L25.2329577,90.9523944 L25.4053521,91.0284507 L69.2391549,15.1090141 L69.0676056,15.0329577" id="Fill-181" fill="#E0E0E0" sketch:type="MSShapeGroup" mask="url(#mask-2)"></path>
                    <path d="M69.2391549,15.1090141 L25.4053521,91.0284507 L25.5769014,91.104507 L69.4073239,15.1842254 L69.2391549,15.1090141" id="Fill-182" fill="#E0E0E0" sketch:type="MSShapeGroup" mask="url(#mask-2)"></path>
                    <path d="M69.4073239,15.1842254 L25.5769014,91.104507 L25.7484507,91.1797183 L69.5780282,15.2594366 L69.4073239,15.1842254" id="Fill-183" fill="#E1E1E0" sketch:type="MSShapeGroup" mask="url(#mask-2)"></path>
                    <path d="M69.5780282,15.2594366 L25.7484507,91.1797183 L25.9191549,91.2557746 L69.7495775,15.336338 L69.5780282,15.2594366" id="Fill-184" fill="#E1E1E1" sketch:type="MSShapeGroup" mask="url(#mask-2)"></path>
                    <path d="M69.7495775,15.336338 L25.9191549,91.2557746 L26.0890141,91.331831 L69.9219718,15.4123944 L69.7495775,15.336338" id="Fill-185" fill="#E1E1E1" sketch:type="MSShapeGroup" mask="url(#mask-2)"></path>
                    <path d="M69.9219718,15.4123944 L26.0890141,91.331831 L26.2605634,91.4078873 L70.0935211,15.4884507 L69.9219718,15.4123944" id="Fill-186" fill="#E1E1E1" sketch:type="MSShapeGroup" mask="url(#mask-2)"></path>
                    <path d="M70.0935211,15.4884507 L26.2605634,91.4078873 L26.4312676,91.4839437 L70.2625352,15.564507 L70.0935211,15.4884507" id="Fill-187" fill="#E1E1E1" sketch:type="MSShapeGroup" mask="url(#mask-2)"></path>
                    <path d="M70.2625352,15.564507 L26.4312676,91.4839437 L26.6002817,91.56 L70.4332394,15.6405634 L70.2625352,15.564507" id="Fill-188" fill="#E2E2E1" sketch:type="MSShapeGroup" mask="url(#mask-2)"></path>
                    <path d="M70.4332394,15.6405634 L26.6002817,91.56 L26.7752113,91.6369014 L70.6047887,15.7157746 L70.4332394,15.6405634" id="Fill-189" fill="#E2E2E2" sketch:type="MSShapeGroup" mask="url(#mask-2)"></path>
                    <path d="M70.6047887,15.7157746 L26.7752113,91.6369014 L26.9433803,91.7112676 L70.776338,15.791831 L70.6047887,15.7157746" id="Fill-190" fill="#E2E2E2" sketch:type="MSShapeGroup" mask="url(#mask-2)"></path>
                    <path d="M70.776338,15.791831 L26.9433803,91.7112676 L27.1140845,91.7873239 L70.9470423,15.8678873 L70.776338,15.791831" id="Fill-191" fill="#E2E2E2" sketch:type="MSShapeGroup" mask="url(#mask-2)"></path>
                    <path d="M70.9470423,15.8678873 L27.1140845,91.7873239 L27.2847887,91.8633803 L71.1169014,15.9439437 L70.9470423,15.8678873" id="Fill-192" fill="#E2E2E2" sketch:type="MSShapeGroup" mask="url(#mask-2)"></path>
                    <path d="M71.1169014,15.9439437 L27.2847887,91.8633803 L27.4546479,91.9394366 L71.2876056,16.02 L71.1169014,15.9439437" id="Fill-193" fill="#E3E3E2" sketch:type="MSShapeGroup" mask="url(#mask-2)"></path>
                    <path d="M71.2876056,16.02 L27.4546479,91.9394366 L27.6261972,92.015493 L71.46,16.0960563 L71.2876056,16.02" id="Fill-194" fill="#E3E3E3" sketch:type="MSShapeGroup" mask="url(#mask-2)"></path>
                    <path d="M71.46,16.0960563 L27.6261972,92.015493 L27.7977465,92.0907042 L71.6307042,16.1721127 L71.46,16.0960563" id="Fill-195" fill="#E3E3E3" sketch:type="MSShapeGroup" mask="url(#mask-2)"></path>
                    <path d="M71.6307042,16.1721127 L27.7977465,92.0907042 L27.9684507,92.1667606 L71.8014085,16.248169 L71.6307042,16.1721127" id="Fill-196" fill="#E3E3E3" sketch:type="MSShapeGroup" mask="url(#mask-2)"></path>
                    <path d="M71.8014085,16.248169 L27.9684507,92.1667606 L28.14,92.2428169 L71.9721127,16.3242254 L71.8014085,16.248169" id="Fill-197" fill="#E3E3E3" sketch:type="MSShapeGroup" mask="url(#mask-2)"></path>
                    <path d="M71.9721127,16.3242254 L28.14,92.2428169 L28.3098592,92.3188732 L72.1428169,16.3994366 L71.9721127,16.3242254" id="Fill-198" fill="#E4E4E3" sketch:type="MSShapeGroup" mask="url(#mask-2)"></path>
                    <path d="M72.1428169,16.3994366 L28.3098592,92.3188732 L28.4814085,92.3949296 L72.3135211,16.475493 L72.1428169,16.3994366" id="Fill-199" fill="#E4E4E4" sketch:type="MSShapeGroup" mask="url(#mask-2)"></path>
                    <path d="M72.3135211,16.475493 L28.4814085,92.3949296 L28.6521127,92.4709859 L72.4833803,16.5507042 L72.3135211,16.475493" id="Fill-200" fill="#E4E4E4" sketch:type="MSShapeGroup" mask="url(#mask-2)"></path>
                    <path d="M72.4833803,16.5507042 L28.6521127,92.4709859 L28.8228169,92.5461972 L72.6549296,16.6276056 L72.4833803,16.5507042" id="Fill-201" fill="#E4E4E4" sketch:type="MSShapeGroup" mask="url(#mask-2)"></path>
                    <path d="M72.6549296,16.6276056 L28.8228169,92.5461972 L28.9952113,92.6222535 L72.8256338,16.703662 L72.6549296,16.6276056" id="Fill-202" fill="#E4E4E4" sketch:type="MSShapeGroup" mask="url(#mask-2)"></path>
                    <path d="M72.8256338,16.703662 L28.9952113,92.6222535 L29.1633803,92.6983099 L72.9971831,16.7797183 L72.8256338,16.703662" id="Fill-203" fill="#E5E5E4" sketch:type="MSShapeGroup" mask="url(#mask-2)"></path>
                    <path d="M72.9971831,16.7797183 L29.1633803,92.6983099 L29.3349296,92.7743662 L73.1695775,16.8549296 L72.9971831,16.7797183" id="Fill-204" fill="#E5E5E5" sketch:type="MSShapeGroup" mask="url(#mask-2)"></path>
                    <path d="M73.1695775,16.8549296 L29.3349296,92.7743662 L29.5064789,92.8504225 L73.3377465,16.9309859 L73.1695775,16.8549296" id="Fill-205" fill="#E5E5E5" sketch:type="MSShapeGroup" mask="url(#mask-2)"></path>
                    <path d="M73.3377465,16.9309859 L29.5064789,92.8504225 L29.6780282,92.9264789 L73.5092958,17.0070423 L73.3377465,16.9309859" id="Fill-206" fill="#E5E5E5" sketch:type="MSShapeGroup" mask="url(#mask-2)"></path>
                    <path d="M73.5092958,17.0070423 L29.6780282,92.9264789 L29.8487324,93.0016901 L73.6808451,17.0830986 L73.5092958,17.0070423" id="Fill-207" fill="#E5E5E5" sketch:type="MSShapeGroup" mask="url(#mask-2)"></path>
                    <path d="M73.6808451,17.0830986 L29.8487324,93.0016901 L30.0194366,93.0777465 L73.8515493,17.1591549 L73.6808451,17.0830986" id="Fill-208" fill="#E6E6E5" sketch:type="MSShapeGroup" mask="url(#mask-2)"></path>
                    <path d="M73.8515493,17.1591549 L30.0194366,93.0777465 L30.1901408,93.1538028 L74.0247887,17.2360563 L73.8515493,17.1591549" id="Fill-209" fill="#E6E6E6" sketch:type="MSShapeGroup" mask="url(#mask-2)"></path>
                    <path d="M74.0247887,17.2360563 L30.1901408,93.1538028 L30.3625352,93.2307042 L74.1929577,17.3104225 L74.0247887,17.2360563" id="Fill-210" fill="#E6E6E6" sketch:type="MSShapeGroup" mask="url(#mask-2)"></path>
                    <path d="M74.1929577,17.3104225 L30.3625352,93.2307042 L30.5315493,93.3059155 L74.364507,17.3864789 L74.1929577,17.3104225" id="Fill-211" fill="#E6E6E6" sketch:type="MSShapeGroup" mask="url(#mask-2)"></path>
                    <path d="M74.364507,17.3864789 L30.5315493,93.3059155 L30.7022535,93.3819718 L74.5352113,17.4625352 L74.364507,17.3864789" id="Fill-212" fill="#E6E6E6" sketch:type="MSShapeGroup" mask="url(#mask-2)"></path>
                    <path d="M74.5352113,17.4625352 L30.7022535,93.3819718 L30.8729577,93.4580282 L74.7059155,17.5385915 L74.5352113,17.4625352" id="Fill-213" fill="#E7E7E6" sketch:type="MSShapeGroup" mask="url(#mask-2)"></path>
                    <path d="M74.7059155,17.5385915 L30.8729577,93.4580282 L31.044507,93.5340845 L74.8774648,17.6146479 L74.7059155,17.5385915" id="Fill-214" fill="#E7E7E7" sketch:type="MSShapeGroup" mask="url(#mask-2)"></path>
                    <path d="M74.8774648,17.6146479 L31.044507,93.5340845 L31.2160563,93.6101408 L75.0464789,17.6898592 L74.8774648,17.6146479" id="Fill-215" fill="#E7E7E7" sketch:type="MSShapeGroup" mask="url(#mask-2)"></path>
                    <path d="M75.0464789,17.6898592 L31.2160563,93.6101408 L31.3842254,93.684507 L75.2171831,17.7650704 L75.0464789,17.6898592" id="Fill-216" fill="#E7E7E7" sketch:type="MSShapeGroup" mask="url(#mask-2)"></path>
                    <path d="M75.2171831,17.7650704 L31.3842254,93.684507 L31.5566197,93.7614085 L75.3895775,17.8419718 L75.2171831,17.7650704" id="Fill-217" fill="#E7E7E7" sketch:type="MSShapeGroup" mask="url(#mask-2)"></path>
                    <path d="M75.3895775,17.8419718 L31.5566197,93.7614085 L31.728169,93.8374648 L75.5611268,17.9180282 L75.3895775,17.8419718" id="Fill-218" fill="#E8E8E7" sketch:type="MSShapeGroup" mask="url(#mask-2)"></path>
                    <path d="M75.5611268,17.9180282 L31.728169,93.8374648 L31.8997183,93.9135211 L75.731831,17.9940845 L75.5611268,17.9180282" id="Fill-219" fill="#E8E8E8" sketch:type="MSShapeGroup" mask="url(#mask-2)"></path>
                    <path d="M75.731831,17.9940845 L31.8997183,93.9135211 L32.0704225,93.9895775 L75.9008451,18.0701408 L75.731831,17.9940845" id="Fill-220" fill="#E8E8E8" sketch:type="MSShapeGroup" mask="url(#mask-2)"></path>
                    <path d="M75.9008451,18.0701408 L32.0704225,93.9895775 L32.2385915,94.0656338 L76.0740845,18.1461972 L75.9008451,18.0701408" id="Fill-221" fill="#E8E8E8" sketch:type="MSShapeGroup" mask="url(#mask-2)"></path>
                    <path d="M76.0740845,18.1461972 L32.2385915,94.0656338 L32.411831,94.1408451 L76.2447887,18.2214085 L76.0740845,18.1461972" id="Fill-222" fill="#E8E8E8" sketch:type="MSShapeGroup" mask="url(#mask-2)"></path>
                    <path d="M76.2447887,18.2214085 L32.411831,94.1408451 L32.5833803,94.2169014 L76.4138028,18.2974648 L76.2447887,18.2214085" id="Fill-223" fill="#E9E9E8" sketch:type="MSShapeGroup" mask="url(#mask-2)"></path>
                    <path d="M76.4138028,18.2974648 L32.5833803,94.2169014 L32.7540845,94.2929577 L76.584507,18.3735211 L76.4138028,18.2974648" id="Fill-224" fill="#E9E9E9" sketch:type="MSShapeGroup" mask="url(#mask-2)"></path>
                    <path d="M76.584507,18.3735211 L32.7540845,94.2929577 L32.9247887,94.3698592 L76.7560563,18.4495775 L76.584507,18.3735211" id="Fill-225" fill="#E9E9E9" sketch:type="MSShapeGroup" mask="url(#mask-2)"></path>
                    <path d="M76.7560563,18.4495775 L32.9247887,94.3698592 L33.0929577,94.4450704 L76.9267606,18.5256338 L76.7560563,18.4495775" id="Fill-226" fill="#E9E9E9" sketch:type="MSShapeGroup" mask="url(#mask-2)"></path>
                    <path d="M76.9267606,18.5256338 L33.0929577,94.4450704 L33.1901408,94.4873239 L76.9892958,18.5535211 L76.9267606,18.5256338" id="Fill-227" fill="#E9E9E9" sketch:type="MSShapeGroup" mask="url(#mask-2)"></path>
                    <path d="M76.9892958,18.5535211 L33.1901408,94.4873239 L54.1969014,103.821127 C57.1301408,101.540282 59.9171831,99.0794366 62.5419718,96.455493 C78.6346479,80.3611268 88.5861972,58.1315493 88.5870423,33.5729577 C88.5870423,30.1512676 88.3943662,26.7752113 88.0174648,23.4540845 L76.9892958,18.5535211" id="Fill-228" fill="#E9E9E9" sketch:type="MSShapeGroup" mask="url(#mask-2)"></path>
                    <path d="M88.0174648,23.4540845 C88.3943662,26.7752113 88.5870423,30.1512676 88.5870423,33.5729577 C88.5861972,58.1315493 78.6346479,80.3611268 62.5419718,96.455493 C59.9171831,99.0794366 57.1301408,101.540282 54.1969014,103.821127 L54.4723944,103.943662 L54.7208451,103.943662 C73.8532394,88.955493 86.7177465,66.3329577 88.7323944,40.6597183 L88.7323944,26.5495775 C88.656338,25.5777465 88.5650704,24.611831 88.4585915,23.6492958 L88.0174648,23.4540845" id="Fill-229" fill="#C9C9C8" sketch:type="MSShapeGroup" mask="url(#mask-2)"></path>
                </g>
                <path d="M92.2433803,6.71915493 C82.4380282,-2.28422535 66.5312676,-2.28422535 56.7292958,6.71915493 L50.0769014,12.8298592 L43.4194366,6.71915493 C33.6115493,-2.28422535 17.7166197,-2.28422535 7.90957746,6.71915493 C-3.12535211,16.8439437 -3.12535211,33.2535211 7.90957746,43.3876056 L50.0769014,82.0892958 L92.2433803,43.3876056 C103.277465,33.2569014 103.277465,16.8439437 92.2433803,6.71915493 L50.6362103,48.3263249" id="Fill-231" fill="#EC8283" sketch:type="MSShapeGroup"></path>
                <path d="M50.0760563,82.0892958 L92.2425352,43.3876056 C103.277465,33.2569014 103.277465,16.8439437 92.2425352,6.71915493 C82.4371831,-2.28422535 66.5295775,-2.28422535 56.7276056,6.71915493 L50.0760563,12.8298592" id="Fill-232" fill="#DD7878" sketch:type="MSShapeGroup"></path>
                <path d="M26.4056338,26.5174648 L50.2602817,47.8005634 L53.2273239,44.4735211 L29.3735211,23.1921127" id="Fill-233" fill="#FFFFFF" sketch:type="MSShapeGroup"></path>
                <path d="M60.4307042,29.7033803 L46.9332394,44.8326761 L50.2602817,47.8014085 L63.7569014,32.6712676" id="Fill-234" fill="#FFFFFF" sketch:type="MSShapeGroup"></path>
            </g>
        </g>
    </g>
</svg>