<?xml version="1.0" encoding="utf-8"?>
<!-- Generator: Adobe Illustrator 16.0.0, SVG Export Plug-In . SVG Version: 6.00 Build 0)  -->
<!DOCTYPE svg PUBLIC "-//W3C//DTD SVG 1.1//EN" "http://www.w3.org/Graphics/SVG/1.1/DTD/svg11.dtd">
<svg version="1.1" id="Layer_1" xmlns="http://www.w3.org/2000/svg" xmlns:xlink="http://www.w3.org/1999/xlink" x="0px" y="0px"
	 width="180px" height="180px" viewBox="0 0 180 180" enable-background="new 0 0 180 180" xml:space="preserve">
<g>
	<g>
		<path fill="none" stroke="#A9A9A9" stroke-width="4" stroke-miterlimit="10" d="M66.502,52.917"/>
		<path fill="none" stroke="#A9A9A9" stroke-width="4" stroke-miterlimit="10" d="M131.957,106.936"/>
		
			<line fill="none" stroke="#A9A9A9" stroke-width="4" stroke-miterlimit="10" x1="140.436" y1="115.406" x2="121.824" y2="45.613"/>
		
			<line fill="none" stroke="#A9A9A9" stroke-width="4" stroke-miterlimit="10" x1="140.436" y1="115.406" x2="84.492" y2="135.601"/>
		<line fill="none" stroke="#A9A9A9" stroke-width="4" stroke-miterlimit="10" x1="84.492" y1="135.601" x2="38.951" y2="106.289"/>
		<line fill="none" stroke="#A9A9A9" stroke-width="4" stroke-miterlimit="10" x1="140.436" y1="115.406" x2="87.188" y2="94.285"/>
		<line fill="none" stroke="#A9A9A9" stroke-width="4" stroke-miterlimit="10" x1="87.188" y1="94.285" x2="66.502" y2="52.917"/>
		<line fill="none" stroke="#A9A9A9" stroke-width="4" stroke-miterlimit="10" x1="38.951" y1="106.289" x2="87.188" y2="94.285"/>
		<line fill="none" stroke="#A9A9A9" stroke-width="4" stroke-miterlimit="10" x1="38.951" y1="106.289" x2="66.502" y2="52.917"/>
		<line fill="none" stroke="#A9A9A9" stroke-width="4" stroke-miterlimit="10" x1="66.502" y1="52.917" x2="121.619" y2="44.87"/>
		<line fill="none" stroke="#A9A9A9" stroke-width="4" stroke-miterlimit="10" x1="121.619" y1="44.87" x2="87.188" y2="94.285"/>
		<line fill="none" stroke="#A9A9A9" stroke-width="4" stroke-miterlimit="10" x1="87.188" y1="94.285" x2="84.486" y2="135.581"/>
	</g>
	<g>
		<path fill="#FFFFFF" d="M138.022,107.52c-4.36,1.333-6.813,5.942-5.481,10.297c1.333,4.356,5.948,6.809,10.306,5.477
			c4.361-1.331,6.814-5.942,5.481-10.297C146.996,108.641,142.381,106.188,138.022,107.52z"/>
		<path fill="#FFFFFF" d="M64.279,45.116c-4.359,1.331-6.813,5.942-5.48,10.297s5.946,6.807,10.306,5.477
			c4.36-1.333,6.813-5.942,5.481-10.298C73.253,46.236,68.638,43.784,64.279,45.116z"/>
		<path fill="#FFFFFF" d="M119.206,36.984c-4.36,1.331-6.813,5.941-5.481,10.297s5.947,6.808,10.306,5.476
			c4.36-1.332,6.814-5.943,5.481-10.298C128.181,38.104,123.565,35.652,119.206,36.984z"/>
		<path fill="#FFFFFF" d="M36.533,98.384c-4.361,1.331-6.812,5.941-5.481,10.297c1.333,4.355,5.947,6.807,10.306,5.476
			c4.359-1.332,6.813-5.942,5.48-10.299C45.505,99.503,40.892,97.052,36.533,98.384z"/>
		<path fill="#FFFFFF" d="M82.072,127.694c-4.36,1.332-6.813,5.942-5.48,10.298c1.333,4.354,5.947,6.806,10.306,5.474
			c4.36-1.33,6.814-5.939,5.481-10.297C91.047,128.813,86.431,126.362,82.072,127.694z"/>
		<path fill="#FFFFFF" d="M84.775,86.398c-4.359,1.332-6.813,5.943-5.48,10.297c1.333,4.356,5.946,6.807,10.305,5.477
			c4.361-1.333,6.813-5.942,5.482-10.296C93.748,87.519,89.134,85.066,84.775,86.398z"/>
	</g>
</g>
</svg>
