<?xml version="1.0" encoding="utf-8"?>
<!-- Generator: Adobe Illustrator 16.0.0, SVG Export Plug-In . SVG Version: 6.00 Build 0)  -->
<!DOCTYPE svg PUBLIC "-//W3C//DTD SVG 1.1//EN" "http://www.w3.org/Graphics/SVG/1.1/DTD/svg11.dtd">
<svg version="1.1" id="Layer_1" xmlns="http://www.w3.org/2000/svg" xmlns:xlink="http://www.w3.org/1999/xlink" x="0px" y="0px"
	 width="180px" height="180px" viewBox="0 0 180 180" enable-background="new 0 0 180 180" xml:space="preserve">
<g>
	<path fill="#EB8182" d="M64.551,93.54c0-3.604,0.384-7.359,1.107-11.169L55.5,95.85v15.578v19.543l12.856-17.065
		C66.049,107.375,64.551,100.446,64.551,93.54z"/>
	<linearGradient id="SVGID_1_" gradientUnits="userSpaceOnUse" x1="62.9746" y1="74.6064" x2="167.7138" y2="135.0776">
		<stop  offset="0" style="stop-color:#B2B2B2;stop-opacity:0.4"/>
		<stop  offset="1" style="stop-color:#E5E5E5;stop-opacity:0.1"/>
	</linearGradient>
	<path fill="url(#SVGID_1_)" d="M88.769,50.016L90,90l-0.254,62.651l34.998,20.206c32.357-13.584,55.082-45.565,55.082-82.857
		c0-3.689-0.227-7.325-0.659-10.897l-89.153-51.33L88.769,50.016z"/>
	<path fill="#DC7878" d="M114.664,85.253c0.42,2.82,0.718,5.596,0.718,8.287c0,7.438-1.876,14.9-4.483,21.865l11.602,15.565V95.85
		L114.664,85.253z"/>
	<g id="XMLID_6_">
		<g>
			<polygon fill="#DC9202" points="100.193,138.583 96.516,145.277 95.314,143.076 90.022,152.742 90.022,138.583 92.853,138.583 
				97.774,138.583 			"/>
			<polygon fill="#FFAF03" points="83.515,145.277 79.853,138.583 82.254,138.583 87.185,138.583 90.022,138.583 90.022,152.742 
				84.724,143.076 			"/>
			<path fill="#26ABAE" d="M89.997,135.442V42.975h9.062c7.315,13.53,16.386,33.72,16.386,50.566
				c0,15.42-7.609,30.966-14.504,41.901H89.997z"/>
			<path fill="#FFFFFF" d="M89.997,42.975v-3.536h7.114c0.629,1.117,1.285,2.302,1.948,3.536H89.997z"/>
			<path fill="#FFFFFF" d="M97.111,39.438h-7.114v-0.664h6.736C96.859,38.994,96.977,39.212,97.111,39.438z"/>
			<path fill="#DC7878" d="M96.733,38.775h-6.736V27.747C89.997,27.747,92.896,32.022,96.733,38.775z"/>
			<path fill="#EB8182" d="M89.997,38.775h-6.735c3.847-6.752,6.735-11.028,6.735-11.028V38.775z"/>
			<path fill="#FFFFFF" d="M89.997,42.975h-9.062c0.672-1.234,1.318-2.419,1.957-3.536h7.104V42.975z"/>
			<path fill="#28B1BD" d="M89.997,42.975v92.468H79.063c-6.903-10.936-14.513-26.481-14.513-41.901
				c0-16.846,9.078-37.036,16.385-50.566H89.997z"/>
			<path fill="#FFFFFF" d="M89.997,38.775v0.664h-7.104c0.125-0.227,0.243-0.444,0.369-0.664H89.997z"/>
		</g>
	</g>
	<g>
		<path fill="#FFFFFF" d="M82.565,63.918c0,4.114,3.342,7.449,7.448,7.449c4.116,0,7.45-3.335,7.45-7.449
			c0-4.116-3.334-7.449-7.45-7.449C85.907,56.469,82.565,59.803,82.565,63.918z"/>
		<path fill="#FFFFFF" d="M84.295,83.546c0,3.157,2.562,5.718,5.719,5.718c3.167,0,5.728-2.561,5.728-5.718
			c0-3.168-2.561-5.729-5.728-5.729C86.857,77.817,84.295,80.378,84.295,83.546z"/>
		<path fill="#FFFFFF" d="M86.017,103.164c0,2.208,1.797,3.998,3.997,3.998c2.21,0,3.999-1.79,3.999-3.998s-1.789-3.998-3.999-3.998
			C87.813,99.166,86.017,100.956,86.017,103.164z"/>
	</g>
</g>
</svg>
