<?xml version="1.0" encoding="UTF-8" standalone="no"?>
<svg width="257px" height="244px" viewBox="0 0 257 244" version="1.1" xmlns="http://www.w3.org/2000/svg" xmlns:xlink="http://www.w3.org/1999/xlink" xmlns:sketch="http://www.bohemiancoding.com/sketch/ns">
    <!-- Generator: Sketch 3.0.3 (7892) - http://www.bohemiancoding.com/sketch -->
    <title>Group</title>
    <desc>Created with Sketch.</desc>
    <defs>
        <linearGradient x1="90.1497027%" y1="64.2045157%" x2="4.96413786%" y2="30.0736932%" id="linearGradient-1">
            <stop stop-color="#E5E5E5" stop-opacity="0.1" offset="0%"></stop>
            <stop stop-color="#CCCCCC" stop-opacity="0.3" offset="100%"></stop>
        </linearGradient>
    </defs>
    <g id="Page-1" stroke="none" stroke-width="1" fill="none" fill-rule="evenodd" sketch:type="MSPage">
        <g id="Landing-(Desktop)-2" sketch:type="MSArtboardGroup" transform="translate(-586.000000, -1000.000000)">
            <g id="Group" sketch:type="MSLayerGroup" transform="translate(681.000000, 1001.000000)">
                <path d="M34,55.5519626 L34.0142991,125.342336 L73.3728972,142.444019 C82.2871028,138.071869 90.3702804,132.261402 97.3154206,125.315421 C113.521308,109.111215 123.54243,86.7272897 123.54243,62 C123.54243,53.5669159 122.378318,45.4088785 120.199813,37.6747664 L33.5794393,-0.316168224 L34,55.5519626 Z" id="Fill-3" fill="url(#linearGradient-1)" sketch:type="MSShapeGroup"></path>
                <path d="M8.51149533,65.544486 C8.51149533,61.9369159 8.93037383,58.1754206 9.65542056,54.3600935 L-0.485981308,67.8575701 L-0.485981308,103.033271 L12.3562617,85.9416822 C10.0465421,79.4002804 8.51149533,72.461028 8.51149533,65.544486" id="Fill-5" fill="#EC8283" sketch:type="MSShapeGroup"></path>
                <path d="M58.8307477,57.2451402 C59.2504673,60.0696262 59.4834579,62.8503738 59.4834579,65.544486 C59.4834579,72.9934579 57.7019626,80.4676636 55.0902804,87.4439252 L66.8037383,103.033271 L66.8037383,67.8575701 L58.8307477,57.2451402" id="Fill-6" fill="#DD7878" sketch:type="MSShapeGroup"></path>
                <path d="M44.2086916,110.656355 L40.5245794,117.360093 L39.3217757,115.156355 L34.0227103,124.837664 L34.0227103,110.656355 L44.2086916,110.656355" id="Fill-7" fill="#DD9300" sketch:type="MSShapeGroup"></path>
                <path d="M27.5040187,117.360093 L23.836729,110.656355 L34.0227103,110.656355 L34.0227103,124.837664 L28.7152336,115.156355 L27.5040187,117.360093" id="Fill-8" fill="#FFB000" sketch:type="MSShapeGroup"></path>
                <path d="M33.9974766,107.510561 L33.9974766,14.9030841 L43.0731776,14.9030841 C50.3993458,28.4535514 59.4834579,48.6741121 59.4834579,65.5461682 C59.4834579,80.99 51.8628972,96.5591589 44.9581308,107.510561 L33.9974766,107.510561" id="Fill-9" fill="#28ACAF" sketch:type="MSShapeGroup"></path>
                <path d="M33.9974766,14.9030841 L33.9974766,107.510561 L23.0460748,107.510561 C16.1320561,96.5591589 8.51149533,80.99 8.51149533,65.5461682 C8.51149533,48.6741121 17.6040187,28.4535514 24.9217757,14.9030841 L33.9974766,14.9030841" id="Fill-15" fill="#2AB2BE" sketch:type="MSShapeGroup"></path>
                <path d="M26.5527103,35.8781308 C26.5527103,39.9996262 29.901215,43.3388785 34.0142991,43.3388785 C38.1357944,43.3388785 41.4750467,39.9996262 41.4750467,35.8781308 C41.4750467,31.7566355 38.1357944,28.4173832 34.0142991,28.4173832 C29.901215,28.4173832 26.5527103,31.7566355 26.5527103,35.8781308" id="Fill-17" fill="#FFFFFF" sketch:type="MSShapeGroup"></path>
                <path d="M28.2862617,55.5351402 C28.2862617,58.697757 30.8516822,61.2631776 34.0142991,61.2631776 C37.1853271,61.2631776 39.7507477,58.697757 39.7507477,55.5351402 C39.7507477,52.3641121 37.1853271,49.7986916 34.0142991,49.7986916 C30.8516822,49.7986916 28.2862617,52.3641121 28.2862617,55.5351402" id="Fill-18" fill="#FFFFFF" sketch:type="MSShapeGroup"></path>
                <path d="M30.0105607,75.1837383 C30.0105607,77.3958879 31.8105607,79.1874766 34.0142991,79.1874766 C36.2264486,79.1874766 38.0188785,77.3958879 38.0188785,75.1837383 C38.0188785,72.9715888 36.2264486,71.18 34.0142991,71.18 C31.8105607,71.18 30.0105607,72.9715888 30.0105607,75.1837383" id="Fill-19" fill="#FFFFFF" sketch:type="MSShapeGroup"></path>
            </g>
        </g>
    </g>
</svg>