<?xml version="1.0" encoding="UTF-8" standalone="no"?>
<svg width="195px" height="193px" viewBox="0 0 195 193" version="1.1" xmlns="http://www.w3.org/2000/svg" xmlns:xlink="http://www.w3.org/1999/xlink" xmlns:sketch="http://www.bohemiancoding.com/sketch/ns">
    <!-- Generator: Sketch 3.0.3 (7892) - http://www.bohemiancoding.com/sketch -->
    <title>Imported Layers</title>
    <desc>Created with Sketch.</desc>
    <defs>
        <linearGradient x1="90.1497027%" y1="64.2045157%" x2="4.96413786%" y2="30.0736932%" id="linearGradient-1">
            <stop stop-color="#E5E5E5" offset="0%"></stop>
            <stop stop-color="#000000" offset="100%"></stop>
        </linearGradient>
        <path id="path-2" d="M15.6982075,15.4103774 C8.48207547,12.9133019 2.73650943,7.23056604 0.157924528,0.0509433962 L-0.0144339623,0.112924528 C2.58283019,7.34433962 8.37,13.0686792 15.6387736,15.5827358 L15.6982075,15.4103774 L15.6982075,15.4103774 Z"></path>
        <path id="path-4" d="M-0.163018868,0.167264151 C1.8,6.76698113 5.38301887,12.8122642 10.3890566,17.8166038 C15.465566,22.8922642 21.615283,26.5058491 28.3211321,28.4501887 L28.3729245,28.274434 C21.6959434,26.3377358 15.5733962,22.740283 10.5198113,17.6875472 C5.53415094,12.7035849 1.96811321,6.68462264 0.0127358491,0.114622642 L-0.163018868,0.167264151 L-0.163018868,0.167264151 Z"></path>
        <path id="path-6" d="M1.13688679,0.189206372 L1.13688679,0.386807108 C0.699605859,0.209321713 0.256263463,0.0437418549 -0.192735849,-0.109528302 L-0.192735849,-0.108679245 L-0.133301887,-0.282735849 C0.295330755,-0.136442837 0.718842436,0.0209866366 1.13688679,0.189206372 L1.13688679,0.189206372 Z"></path>
        <path id="path-8" d="M0.185943396,0.345712399 L0.185943396,0.148464224 C7.05626904,2.87846135 12.4637136,8.51806425 14.880566,15.540283 L14.7065094,15.599717 C12.3161068,8.65208339 6.97458842,3.06656139 0.185943396,0.345712399 L0.185943396,0.345712399 Z"></path>
        <path id="path-10" d="M28.5945283,28.2268868 C26.654434,21.5015094 23.0366038,15.3407547 17.9499057,10.2549057 C12.8479245,5.15377358 6.66509434,1.52915094 -0.0832075472,-0.40754717 L-0.13245283,-0.23009434 C6.58358491,1.69641509 12.7400943,5.30490566 17.82,10.3848113 C22.8846226,15.4485849 26.4863208,21.5830189 28.4179245,28.2778302 L28.5945283,28.2277358 L28.5945283,28.2268868 L28.5945283,28.2268868 Z"></path>
        <path id="path-12" d="M1.13688679,-0.334591323 L1.13688679,-0.135980579 C0.722721558,0.0307006711 0.303176063,0.186799934 -0.121415094,0.331981132 L-0.181698113,0.157924528 C0.263548412,0.00572211589 0.703207168,-0.158581321 1.13688679,-0.334591323 L1.13688679,-0.334591323 Z"></path>
        <path id="path-14" d="M0.185943396,15.187786 L0.185943396,14.989519 C6.89873592,12.2992902 12.1924375,6.80895606 14.625,-0.0280188679 L14.7973585,0.0331132075 C12.3396354,6.9448063 6.97995314,12.4877369 0.185943396,15.187786 L0.185943396,15.187786 Z"></path>
        <path id="path-16" d="M-0.0713207547,28.4756604 C6.67273585,26.5372642 12.8538679,22.9143396 17.9499057,17.8166038 C22.9754717,12.7910377 26.5678302,6.71688679 28.5266038,0.085754717 L28.3508491,0.0339622642 C26.400566,6.6345283 22.8251887,12.6832075 17.82,17.6875472 C12.7460377,22.7623585 6.59292453,26.3691509 -0.123113208,28.2990566 L-0.0713207547,28.4765094 L-0.0713207547,28.4756604 L-0.0713207547,28.4756604 Z"></path>
        <path id="path-18" d="M-0.0433018868,15.8620755 C2.39179245,8.52028302 8.11443396,2.66349057 15.3679245,0.0416037736 L15.3050943,-0.130754717 C7.99896226,2.51066038 2.23556604,8.40990566 -0.217358491,15.8034906 L-0.0433018868,15.8620755 L-0.0433018868,15.8620755 Z"></path>
        <path id="path-20" d="M27.9866038,-0.283584906 C21.4072642,1.68537736 15.3815094,5.26160377 10.3890566,10.2549057 C5.23528302,15.4061321 1.58603774,21.6645283 -0.331132075,28.4926415 L-0.153679245,28.5418868 C1.75415094,21.7443396 5.38811321,15.5148113 10.5198113,10.3848113 C15.4901887,5.41358491 21.4896226,1.85264151 28.0383962,-0.106981132 L27.9874528,-0.282735849 L27.9866038,-0.283584906 L27.9866038,-0.283584906 Z"></path>
    </defs>
    <g id="Page-1" stroke="none" stroke-width="1" fill="none" fill-rule="evenodd" sketch:type="MSPage">
        <g id="Landing-(Desktop)-2" sketch:type="MSArtboardGroup" transform="translate(-1013.000000, -1021.000000)">
            <g id="Imported-Layers" sketch:type="MSLayerGroup" transform="translate(1069.000000, 1022.000000)">
                <g>
                    <path d="M46.8116038,-0.321037736 L23.3207547,15.53 L8.03773585,42.1326415 L42.014434,83.4528302 L103.464906,106.022453 C104.098302,105.424717 104.722358,104.818491 105.337925,104.202925 C121.507358,88.0334906 131.505849,65.6990566 131.505849,41.0237736 C131.505849,39.4411321 131.464245,37.8669811 131.382736,36.3038679 L46.8116038,-0.321037736" id="Fill-3" fill-opacity="0.0899999961" fill="url(#linearGradient-1)" sketch:type="MSShapeGroup"></path>
                    <path d="M82.3930189,30.1966038 C83.4764151,33.9426415 84.0393396,37.8669811 84.0393396,41.8753774 C84.0393396,45.9712264 83.4509434,49.9753774 82.3250943,53.7961321 L66.0503774,50.3421698 C66.9936792,47.6939623 67.5056604,44.8436792 67.5056604,41.8753774 C67.5056604,38.9962264 67.0225472,36.2283019 66.1335849,33.6454717 L82.3930189,30.1966038" id="Fill-5" fill="#FFFFFF" sketch:type="MSShapeGroup"></path>
                    <path d="M82.3930189,30.1966038 L66.1335849,33.6454717 C63.5915094,26.2578302 57.7245283,20.4035849 50.3275472,17.8801887 L53.7789623,1.62415094 C60.5111321,3.55575472 66.6803774,7.17273585 71.7721698,12.2628302 C76.8478302,17.3384906 80.4571698,23.4856604 82.3930189,30.1966038" id="Fill-6" fill="#FFB000" sketch:type="MSShapeGroup"></path>
                    <path d="M66.0503774,50.3421698 L82.3250943,53.7961321 C80.370566,60.4128302 76.7875472,66.4733962 71.7721698,71.4879245 C66.6863208,76.5746226 60.5196226,80.1890566 53.79,82.1240566 L50.3385849,65.8671698 C57.6532075,63.3675472 63.4641509,57.6143396 66.0503774,50.3421698" id="Fill-7" fill="#FFB000" sketch:type="MSShapeGroup"></path>
                    <path d="M50.3385849,65.8671698 L53.79,82.1240566 C50.055,83.1972642 46.1527358,83.7525472 42.1613208,83.7525472 C38.1359434,83.7525472 34.2014151,83.1870755 30.4417925,82.0977358 L33.8949057,65.8366038 C36.4870755,66.7332075 39.2677358,67.2214151 42.1613208,67.2214151 C45.0209434,67.2214151 47.7710377,66.7450943 50.3385849,65.8671698" id="Fill-8" fill="#FFFFFF" sketch:type="MSShapeGroup"></path>
                    <path d="M53.7789623,1.62415094 L50.3275472,17.8801887 C47.7650943,17.0039623 45.0175472,16.5284906 42.1613208,16.5284906 C39.1429245,16.5284906 36.2484906,17.0591509 33.5629245,18.0304717 L30.1072642,1.74896226 C33.9704717,0.59509434 38.0162264,-0.00349056604 42.1613208,-0.00349056604 C46.1450943,-0.00349056604 50.0490566,0.553490566 53.7789623,1.62415094" id="Fill-9" fill="#FFFFFF" sketch:type="MSShapeGroup"></path>
                    <path d="M33.8949057,65.8366038 L30.4417925,82.0977358 C23.7503774,80.1576415 17.6133962,76.5525472 12.5496226,71.4879245 C7.55292453,66.4946226 3.97839623,60.4620755 2.01877358,53.8767925 L18.2985849,50.4219811 C20.8865094,57.6270755 26.6524528,63.3310377 33.8949057,65.8366038" id="Fill-10" fill="#FFB000" sketch:type="MSShapeGroup"></path>
                    <path d="M30.1072642,1.74896226 L33.5629245,18.0304717 C26.2831132,20.6625472 20.5400943,26.540566 18.0965094,33.9086792 L1.85150943,30.4606604 C3.76528302,23.6478302 7.40603774,17.4038679 12.5496226,12.2628302 C17.5301887,7.28141509 23.5432075,3.71198113 30.1072642,1.74896226" id="Fill-11" fill="#FFB000" sketch:type="MSShapeGroup"></path>
                    <path d="M18.2985849,50.4219811 L2.01877358,53.8767925 C0.876792453,50.0322642 0.28245283,46.0000943 0.28245283,41.8753774 C0.28245283,37.9603774 0.814811321,34.1285849 1.85150943,30.4606604 L18.0965094,33.9086792 C17.2661321,36.4159434 16.814434,39.0938679 16.814434,41.8753774 C16.814434,44.8725472 17.3374528,47.7508491 18.2985849,50.4219811" id="Fill-12" fill="#FFFFFF" sketch:type="MSShapeGroup"></path>
                    <g id="Group-15" transform="translate(18.226415, 50.339623)">
                        <mask id="mask-3" sketch:name="Clip 14" fill="white">
                            <use xlink:href="#path-2"></use>
                        </mask>
                        <g id="Clip-14"></g>
                        <path d="M21.120283,55.8288679 C29.039434,47.909717 33.4010377,37.380566 33.4010377,26.1806604 C33.4010377,14.9807547 29.039434,4.45160377 21.120283,-3.46754717 C13.200283,-11.3875472 2.67113208,-15.7483019 -8.52877358,-15.7483019 C-19.7278302,-15.7483019 -30.2569811,-11.3875472 -38.1769811,-3.46754717 C-46.0961321,4.45160377 -50.4577358,14.9807547 -50.4577358,26.1806604 C-50.4577358,37.380566 -46.0961321,47.909717 -38.1769811,55.8288679 C-30.2569811,63.7480189 -19.7278302,68.1096226 -8.52877358,68.1096226 C2.67113208,68.1096226 13.200283,63.7480189 21.120283,55.8288679 L21.120283,55.8288679 Z M16.8495283,26.1806604 C16.8495283,40.1739623 5.4645283,51.5581132 -8.52877358,51.5581132 C-22.5212264,51.5581132 -33.9062264,40.1739623 -33.9062264,26.1806604 C-33.9062264,12.1873585 -22.5212264,0.803207547 -8.52877358,0.803207547 C5.4645283,0.803207547 16.8495283,12.1873585 16.8495283,26.1806604 L16.8495283,26.1806604 Z" id="Fill-13" fill="#FFB000" sketch:type="MSShapeGroup" mask="url(#mask-3)"></path>
                    </g>
                    <g id="Group-18" transform="translate(2.094340, 53.735849)">
                        <mask id="mask-5" sketch:name="Clip 17" fill="white">
                            <use xlink:href="#path-4"></use>
                        </mask>
                        <g id="Clip-17"></g>
                        <path d="M37.2523585,52.4326415 C45.1715094,44.5134906 49.5331132,33.9843396 49.5331132,22.784434 C49.5331132,11.5845283 45.1715094,1.05537736 37.2523585,-6.86377358 C29.3323585,-14.7837736 18.8032075,-19.1445283 7.60330189,-19.1445283 C-3.59575472,-19.1445283 -14.1249057,-14.7837736 -22.0449057,-6.86377358 C-29.9640566,1.05537736 -34.3256604,11.5845283 -34.3256604,22.784434 C-34.3256604,33.9843396 -29.9640566,44.5134906 -22.0449057,52.4326415 C-14.1249057,60.3517925 -3.59575472,64.7133962 7.60330189,64.7133962 C18.8032075,64.7133962 29.3323585,60.3517925 37.2523585,52.4326415 L37.2523585,52.4326415 Z M32.9816038,22.784434 C32.9816038,36.7777358 21.5966038,48.1618868 7.60330189,48.1618868 C-6.38915094,48.1618868 -17.7741509,36.7777358 -17.7741509,22.784434 C-17.7741509,8.79113208 -6.38915094,-2.59301887 7.60330189,-2.59301887 C21.5966038,-2.59301887 32.9816038,8.79113208 32.9816038,22.784434 L32.9816038,22.784434 Z" id="Fill-16" fill="#FFB000" sketch:type="MSShapeGroup" mask="url(#mask-5)"></path>
                    </g>
                    <g id="Group-21" transform="translate(50.490566, 18.075472)">
                        <mask id="mask-7" sketch:name="Clip 20" fill="white">
                            <use xlink:href="#path-6"></use>
                        </mask>
                        <g id="Clip-20"></g>
                        <path d="M-11.1438679,4.33613208 C-3.22471698,-3.58386792 1.13688679,-14.1130189 1.13688679,-25.3129245 C1.13688679,-36.5119811 -3.22471698,-47.0419811 -11.1438679,-54.9611321 C-19.0638679,-62.880283 -29.5930189,-67.2418868 -40.7929245,-67.2418868 C-51.9919811,-67.2418868 -62.5211321,-62.880283 -70.4411321,-54.9611321 C-78.360283,-47.0419811 -82.7218868,-36.5119811 -82.7218868,-25.3129245 C-82.7218868,-14.1130189 -78.360283,-3.58386792 -70.4411321,4.33613208 C-62.5211321,12.255283 -51.9919811,16.6168868 -40.7929245,16.6168868 C-29.5930189,16.6168868 -19.0638679,12.255283 -11.1438679,4.33613208 L-11.1438679,4.33613208 Z M-15.4146226,-25.3129245 C-15.4146226,-11.3196226 -26.7996226,0.0653773585 -40.7929245,0.0653773585 C-54.7853774,0.0653773585 -66.1703774,-11.3196226 -66.1703774,-25.3129245 C-66.1703774,-39.3062264 -54.7853774,-50.6903774 -40.7929245,-50.6903774 C-26.7996226,-50.6903774 -15.4146226,-39.3062264 -15.4146226,-25.3129245 L-15.4146226,-25.3129245 Z" id="Fill-19" fill="#FFB000" sketch:type="MSShapeGroup" mask="url(#mask-7)"></path>
                    </g>
                    <g id="Group-24" transform="translate(51.339623, 18.075472)">
                        <mask id="mask-9" sketch:name="Clip 23" fill="white">
                            <use xlink:href="#path-8"></use>
                        </mask>
                        <g id="Clip-23"></g>
                        <path d="M71.7631132,4.33613208 C79.6831132,-3.58386792 84.0438679,-14.1130189 84.0438679,-25.3129245 C84.0438679,-36.5119811 79.6831132,-47.0419811 71.7631132,-54.9611321 C63.8439623,-62.880283 53.3148113,-67.2418868 42.1149057,-67.2418868 C30.915,-67.2418868 20.3858491,-62.880283 12.4666981,-54.9611321 C4.54669811,-47.0419811 0.185943396,-36.5119811 0.185943396,-25.3129245 C0.185943396,-14.1130189 4.54669811,-3.58386792 12.4666981,4.33613208 C20.3858491,12.255283 30.915,16.6168868 42.1149057,16.6168868 C53.3148113,16.6168868 63.8439623,12.255283 71.7631132,4.33613208 L71.7631132,4.33613208 Z M67.4923585,-25.3129245 C67.4923585,-11.3196226 56.1082075,0.0653773585 42.1149057,0.0653773585 C28.1216038,0.0653773585 16.7374528,-11.3196226 16.7374528,-25.3129245 C16.7374528,-39.3062264 28.1216038,-50.6903774 42.1149057,-50.6903774 C56.1082075,-50.6903774 67.4923585,-39.3062264 67.4923585,-25.3129245 L67.4923585,-25.3129245 Z" id="Fill-22" fill="#FFB000" sketch:type="MSShapeGroup" mask="url(#mask-9)"></path>
                    </g>
                    <g id="Group-27" transform="translate(53.886792, 1.943396)">
                        <mask id="mask-11" sketch:name="Clip 26" fill="white">
                            <use xlink:href="#path-10"></use>
                        </mask>
                        <g id="Clip-26"></g>
                        <path d="M69.2150943,20.4682075 C77.1350943,12.5482075 81.4958491,2.0190566 81.4958491,-9.18084906 C81.4958491,-20.3799057 77.1350943,-30.9099057 69.2150943,-38.8290566 C61.2959434,-46.7482075 50.7667925,-51.1098113 39.5668868,-51.1098113 C28.3669811,-51.1098113 17.8378302,-46.7482075 9.91867925,-38.8290566 C1.99867925,-30.9099057 -2.36207547,-20.3799057 -2.36207547,-9.18084906 C-2.36207547,2.0190566 1.99867925,12.5482075 9.91867925,20.4682075 C17.8378302,28.3873585 28.3669811,32.7489623 39.5668868,32.7489623 C50.7667925,32.7489623 61.2959434,28.3873585 69.2150943,20.4682075 L69.2150943,20.4682075 Z M64.9443396,-9.18084906 C64.9443396,4.81245283 53.5601887,16.1974528 39.5668868,16.1974528 C25.5735849,16.1974528 14.189434,4.81245283 14.189434,-9.18084906 C14.189434,-23.1741509 25.5735849,-34.5583019 39.5668868,-34.5583019 C53.5601887,-34.5583019 64.9443396,-23.1741509 64.9443396,-9.18084906 L64.9443396,-9.18084906 Z" id="Fill-25" fill="#FFB000" sketch:type="MSShapeGroup" mask="url(#mask-11)"></path>
                    </g>
                    <g id="Group-30" transform="translate(50.490566, 65.622642)">
                        <mask id="mask-13" sketch:name="Clip 29" fill="white">
                            <use xlink:href="#path-12"></use>
                        </mask>
                        <g id="Clip-29"></g>
                        <path d="M-11.1438679,40.5458491 C-3.22471698,32.6266981 1.13688679,22.0975472 1.13688679,10.8976415 C1.13688679,-0.302264151 -3.22471698,-10.8314151 -11.1438679,-18.750566 C-19.0638679,-26.670566 -29.5930189,-31.0313208 -40.7929245,-31.0313208 C-51.9919811,-31.0313208 -62.5211321,-26.670566 -70.4411321,-18.750566 C-78.360283,-10.8314151 -82.7218868,-0.302264151 -82.7218868,10.8976415 C-82.7218868,22.0975472 -78.360283,32.6266981 -70.4411321,40.5458491 C-62.5211321,48.465 -51.9919811,52.8266038 -40.7929245,52.8266038 C-29.5930189,52.8266038 -19.0638679,48.465 -11.1438679,40.5458491 L-11.1438679,40.5458491 Z M-15.4146226,10.8976415 C-15.4146226,24.8909434 -26.7996226,36.2750943 -40.7929245,36.2750943 C-54.7853774,36.2750943 -66.1703774,24.8909434 -66.1703774,10.8976415 C-66.1703774,-3.09566038 -54.7853774,-14.4798113 -40.7929245,-14.4798113 C-26.7996226,-14.4798113 -15.4146226,-3.09566038 -15.4146226,10.8976415 L-15.4146226,10.8976415 Z" id="Fill-28" fill="#FFB000" sketch:type="MSShapeGroup" mask="url(#mask-13)"></path>
                    </g>
                    <g id="Group-33" transform="translate(51.339623, 50.339623)">
                        <mask id="mask-15" sketch:name="Clip 32" fill="white">
                            <use xlink:href="#path-14"></use>
                        </mask>
                        <g id="Clip-32"></g>
                        <path d="M71.7631132,55.8288679 C79.6831132,47.909717 84.0438679,37.380566 84.0438679,26.1806604 C84.0438679,14.9807547 79.6831132,4.45160377 71.7631132,-3.46754717 C63.8439623,-11.3875472 53.3148113,-15.7483019 42.1149057,-15.7483019 C30.915,-15.7483019 20.3858491,-11.3875472 12.4666981,-3.46754717 C4.54669811,4.45160377 0.185943396,14.9807547 0.185943396,26.1806604 C0.185943396,37.380566 4.54669811,47.909717 12.4666981,55.8288679 C20.3858491,63.7480189 30.915,68.1096226 42.1149057,68.1096226 C53.3148113,68.1096226 63.8439623,63.7480189 71.7631132,55.8288679 L71.7631132,55.8288679 Z M67.4923585,26.1806604 C67.4923585,40.1739623 56.1082075,51.5581132 42.1149057,51.5581132 C28.1216038,51.5581132 16.7374528,40.1739623 16.7374528,26.1806604 C16.7374528,12.1873585 28.1216038,0.803207547 42.1149057,0.803207547 C56.1082075,0.803207547 67.4923585,12.1873585 67.4923585,26.1806604 L67.4923585,26.1806604 Z" id="Fill-31" fill="#FFB000" sketch:type="MSShapeGroup" mask="url(#mask-15)"></path>
                    </g>
                    <g id="Group-36" transform="translate(53.886792, 53.735849)">
                        <mask id="mask-17" sketch:name="Clip 35" fill="white">
                            <use xlink:href="#path-16"></use>
                        </mask>
                        <g id="Clip-35"></g>
                        <path d="M69.2150943,52.4326415 C77.1350943,44.5134906 81.4958491,33.9843396 81.4958491,22.784434 C81.4958491,11.5845283 77.1350943,1.05537736 69.2150943,-6.86377358 C61.2959434,-14.7837736 50.7667925,-19.1445283 39.5668868,-19.1445283 C28.3669811,-19.1445283 17.8378302,-14.7837736 9.91867925,-6.86377358 C1.99867925,1.05537736 -2.36207547,11.5845283 -2.36207547,22.784434 C-2.36207547,33.9843396 1.99867925,44.5134906 9.91867925,52.4326415 C17.8378302,60.3517925 28.3669811,64.7133962 39.5668868,64.7133962 C50.7667925,64.7133962 61.2959434,60.3517925 69.2150943,52.4326415 L69.2150943,52.4326415 Z M64.9443396,22.784434 C64.9443396,36.7777358 53.5601887,48.1618868 39.5668868,48.1618868 C25.5735849,48.1618868 14.189434,36.7777358 14.189434,22.784434 C14.189434,8.79113208 25.5735849,-2.59301887 39.5668868,-2.59301887 C53.5601887,-2.59301887 64.9443396,8.79113208 64.9443396,22.784434 L64.9443396,22.784434 Z" id="Fill-34" fill="#FFB000" sketch:type="MSShapeGroup" mask="url(#mask-17)"></path>
                    </g>
                    <g id="Group-39" transform="translate(18.226415, 18.075472)">
                        <mask id="mask-19" sketch:name="Clip 38" fill="white">
                            <use xlink:href="#path-18"></use>
                        </mask>
                        <g id="Clip-38"></g>
                        <path d="M21.120283,4.33613208 C29.039434,-3.58386792 33.4010377,-14.1130189 33.4010377,-25.3129245 C33.4010377,-36.5119811 29.039434,-47.0419811 21.120283,-54.9611321 C13.200283,-62.880283 2.67113208,-67.2418868 -8.52877358,-67.2418868 C-19.7278302,-67.2418868 -30.2569811,-62.880283 -38.1769811,-54.9611321 C-46.0961321,-47.0419811 -50.4577358,-36.5119811 -50.4577358,-25.3129245 C-50.4577358,-14.1130189 -46.0961321,-3.58386792 -38.1769811,4.33613208 C-30.2569811,12.255283 -19.7278302,16.6168868 -8.52877358,16.6168868 C2.67113208,16.6168868 13.200283,12.255283 21.120283,4.33613208 L21.120283,4.33613208 Z M16.8495283,-25.3129245 C16.8495283,-11.3196226 5.4645283,0.0653773585 -8.52877358,0.0653773585 C-22.5212264,0.0653773585 -33.9062264,-11.3196226 -33.9062264,-25.3129245 C-33.9062264,-39.3062264 -22.5212264,-50.6903774 -8.52877358,-50.6903774 C5.4645283,-50.6903774 16.8495283,-39.3062264 16.8495283,-25.3129245 L16.8495283,-25.3129245 Z" id="Fill-37" fill="#FFB000" sketch:type="MSShapeGroup" mask="url(#mask-19)"></path>
                    </g>
                    <g id="Group-42" transform="translate(2.094340, 1.943396)">
                        <mask id="mask-21" sketch:name="Clip 41" fill="white">
                            <use xlink:href="#path-20"></use>
                        </mask>
                        <g id="Clip-41"></g>
                        <path d="M37.2523585,20.4682075 C45.1715094,12.5482075 49.5331132,2.0190566 49.5331132,-9.18084906 C49.5331132,-20.3799057 45.1715094,-30.9099057 37.2523585,-38.8290566 C29.3323585,-46.7482075 18.8032075,-51.1098113 7.60330189,-51.1098113 C-3.59575472,-51.1098113 -14.1249057,-46.7482075 -22.0449057,-38.8290566 C-29.9640566,-30.9099057 -34.3256604,-20.3799057 -34.3256604,-9.18084906 C-34.3256604,2.0190566 -29.9640566,12.5482075 -22.0449057,20.4682075 C-14.1249057,28.3873585 -3.59575472,32.7489623 7.60330189,32.7489623 C18.8032075,32.7489623 29.3323585,28.3873585 37.2523585,20.4682075 L37.2523585,20.4682075 Z M32.9816038,-9.18084906 C32.9816038,4.81245283 21.5966038,16.1974528 7.60330189,16.1974528 C-6.38915094,16.1974528 -17.7741509,4.81245283 -17.7741509,-9.18084906 C-17.7741509,-23.1741509 -6.38915094,-34.5583019 7.60330189,-34.5583019 C21.5966038,-34.5583019 32.9816038,-23.1741509 32.9816038,-9.18084906 L32.9816038,-9.18084906 Z" id="Fill-40" fill="#FFB000" sketch:type="MSShapeGroup" mask="url(#mask-21)"></path>
                    </g>
                </g>
            </g>
        </g>
    </g>
</svg>