<?xml version="1.0" encoding="utf-8"?>
<!-- Generator: Adobe Illustrator 16.0.0, SVG Export Plug-In . SVG Version: 6.00 Build 0)  -->
<!DOCTYPE svg PUBLIC "-//W3C//DTD SVG 1.1//EN" "http://www.w3.org/Graphics/SVG/1.1/DTD/svg11.dtd">
<svg version="1.1" id="Layer_1" xmlns="http://www.w3.org/2000/svg" xmlns:xlink="http://www.w3.org/1999/xlink" x="0px" y="0px"
	 width="180px" height="180px" viewBox="0 0 180 180" enable-background="new 0 0 180 180" xml:space="preserve">
<g>
	<g>
		<path fill="none" stroke="#A9A9A9" stroke-width="4" stroke-miterlimit="10" d="M139.339,104.149
			c-0.991-3.434,5.537-10.259,13.339-8.373"/>
		<path fill="none" stroke="#A9A9A9" stroke-width="4" stroke-miterlimit="10" d="M132.062,100.917c0,0,7.306-7.42,13.946-0.781
			c3.675,3.676,1.84,6.6-0.865,7.322c-2.182,0.583-4.929-0.265-5.805-3.309"/>
	</g>
	<ellipse fill="#FFFFFF" cx="90.479" cy="99.179" rx="43.908" ry="31.512"/>
	<rect x="40.5" y="90.5" fill="#FFFFFF" width="27" height="19"/>
	<polygon fill="#FFFFFF" points="58.77,88.133 52.361,69.146 83.227,79.824 	"/>
	<polygon fill="#FFFFFF" points="64.5,138.5 77.139,138.5 85.188,114.5 64.5,114.5 	"/>
	<polygon fill="#FFFFFF" points="116.5,139.5 104.307,139.5 96.258,115.5 116.5,115.5 	"/>
	<path fill="#A9A9A9" d="M70.436,81.475c0.036-0.021,0.062-0.044,0.098-0.067c11.551-7.047,30.373-6.968,42.077,0.142l3.476-2.119
		c-13.632-8.302-35.58-8.396-49.047-0.179c-0.036,0.021-0.066,0.042-0.101,0.063L70.436,81.475z"/>
	<circle fill="#FFFFFF" cx="92.802" cy="45.826" r="15.063"/>
	<circle fill="#A9A9A9" cx="92.802" cy="45.826" r="11.896"/>
	<text transform="matrix(1 0 0 1 83.7373 55.1226)" fill="#FFFFFF" font-family="'ProximaNova-Bold'" font-size="28.2263">$</text>
</g>
</svg>
