<?xml version="1.0" encoding="utf-8"?>
<!-- Generator: Adobe Illustrator 16.0.0, SVG Export Plug-In . SVG Version: 6.00 Build 0)  -->
<!DOCTYPE svg PUBLIC "-//W3C//DTD SVG 1.1//EN" "http://www.w3.org/Graphics/SVG/1.1/DTD/svg11.dtd">
<svg version="1.1" id="Layer_1" xmlns="http://www.w3.org/2000/svg" xmlns:xlink="http://www.w3.org/1999/xlink" x="0px" y="0px"
	 width="180px" height="180px" viewBox="0 0 180 180" enable-background="new 0 0 180 180" xml:space="preserve">
<g>
	<rect x="88.5" y="111.5" fill="#FFFFFF" width="4" height="24"/>
	<rect x="67.5" y="134.5" fill="#ECECEC" width="44" height="2"/>
	<rect x="60.5" y="46.5" fill="#ECECEC" width="57" height="74"/>
	<rect x="64.5" y="65.5" fill="#A9A9A9" width="32" height="4"/>
	<rect x="99.5" y="65.5" fill="#FFFFFF" width="8" height="4"/>
	<rect x="64.5" y="77.5" fill="#A9A9A9" width="32" height="3"/>
	<rect x="99.5" y="77.5" fill="#FFFFFF" width="8" height="3"/>
	<rect x="64.5" y="87.5" fill="#A9A9A9" width="32" height="4"/>
	<rect x="99.5" y="87.5" fill="#FFFFFF" width="8" height="4"/>
	<rect x="64.5" y="98.5" fill="#A9A9A9" width="32" height="4"/>
	<rect x="99.5" y="98.5" fill="#FFFFFF" width="8" height="4"/>
	<circle fill="#A9A9A9" cx="113.017" cy="67.085" r="1.308"/>
	<circle fill="#A9A9A9" cx="113.017" cy="78.81" r="1.308"/>
	<circle fill="#A9A9A9" cx="113.017" cy="89.736" r="1.308"/>
	<circle fill="#A9A9A9" cx="113.017" cy="100.661" r="1.308"/>
	<circle fill="#A9A9A9" cx="90.416" cy="43.979" r="10.652"/>
	<circle fill="#A9A9A9" cx="90.416" cy="43.979" r="10.652"/>
	<circle fill="#A9A9A9" cx="90.416" cy="135.377" r="6.878"/>
	<g>
		
			<line fill="none" stroke="#FFFFFF" stroke-width="3.9964" stroke-linecap="square" stroke-linejoin="bevel" stroke-miterlimit="10" x1="87.354" y1="44.294" x2="89.835" y2="46.776"/>
		
			<line fill="none" stroke="#FFFFFF" stroke-width="3.9964" stroke-linecap="square" stroke-linejoin="bevel" stroke-miterlimit="10" x1="89.835" y1="46.776" x2="94.892" y2="41.719"/>
	</g>
</g>
</svg>
