<?xml version="1.0" encoding="utf-8"?>
<!-- Generator: Adobe Illustrator 16.0.0, SVG Export Plug-In . SVG Version: 6.00 Build 0)  -->
<!DOCTYPE svg PUBLIC "-//W3C//DTD SVG 1.1//EN" "http://www.w3.org/Graphics/SVG/1.1/DTD/svg11.dtd">
<svg version="1.1" id="Layer_1" xmlns="http://www.w3.org/2000/svg" xmlns:xlink="http://www.w3.org/1999/xlink" x="0px" y="0px"
	 width="180px" height="180px" viewBox="0 0 180 180" enable-background="new 0 0 180 180" xml:space="preserve">
<g>
	<g>
		<path fill="#E9E9E9" d="M121.905,88.571c0.723,17.953-12.133,33.05-28.715,33.727c-16.581,0.675-30.611-13.331-31.334-31.282
			c-0.722-17.952,12.136-33.052,28.717-33.728C107.155,56.615,121.183,70.618,121.905,88.571z"/>
		<circle fill="#FFFFFF" cx="91.932" cy="89.459" r="30.733"/>
		
			<ellipse transform="matrix(-1 -0.0013 0.0013 -1 184.7655 177.0846)" fill="none" stroke="#E3744E" stroke-width="3" stroke-miterlimit="10" cx="92.438" cy="88.484" rx="6.011" ry="36.631"/>
		<path fill="none" stroke="#E3744E" stroke-width="3" stroke-miterlimit="10" d="M70.971,88.451
			c0.034-20.229,9.673-36.615,21.529-36.6c11.855,0.017,21.44,16.431,21.405,36.659c-0.034,20.23-9.677,36.616-21.531,36.601
			C80.518,125.092,70.934,108.681,70.971,88.451z"/>
		<line fill="none" stroke="#E3744E" stroke-width="3" stroke-miterlimit="10" x1="63.5" y1="75" x2="120.5" y2="75"/>
		<line fill="none" stroke="#E3744E" stroke-width="3" stroke-miterlimit="10" x1="57.5" y1="91" x2="126.5" y2="91"/>
		<line fill="none" stroke="#E3744E" stroke-width="3" stroke-miterlimit="10" x1="63.5" y1="107" x2="120.5" y2="107"/>
	</g>
	<g>
		<path fill="#CDCDCD" d="M136.052,108.244c-2.859-4.404-6.358-9.025-10.35-13.72c-6.032-7.09-13.2-14.342-21.077-21.262
			c-8.115-7.13-16.273-13.285-23.909-18.167c-13.222-8.457-24.878-13.089-32.036-12.29c-2.782,0.31-4.876,1.409-6.225,3.269
			c-6.791,9.354,10.201,31.121,15.569,37.57l0.279-0.232c0.233-1.322,0.528-2.619,0.885-3.886
			c-9.828-12.231-17.652-26.22-13.896-31.393c0.756-1.042,1.991-1.644,3.776-1.844c6.05-0.674,16.206,3.329,27.874,10.564
			c8.022,4.974,16.758,11.478,25.371,19.043c8.567,7.528,16.275,15.44,22.544,23.079c3.135,3.822,5.918,7.577,8.253,11.177
			c6.477,9.979,8.898,17.924,6.479,21.254c-2.781,3.833-13.738,2.445-32.066-8.99c-1.186,0.685-2.408,1.295-3.663,1.829
			c11.731,7.54,21.651,11.772,28.716,12.45c4.574,0.437,7.952-0.617,9.85-3.229C146.787,127.462,141.365,116.437,136.052,108.244z"
			/>
	</g>
	<g>
		<path fill="#CDCDCD" d="M113.033,48.3c-4.706,2.331-9.698,5.276-14.819,8.703c-7.736,5.176-15.765,11.464-23.543,18.493
			c-8.016,7.244-15.067,14.638-20.796,21.661c-9.919,12.162-15.861,23.209-15.891,30.411c-0.01,2.799,0.841,5.006,2.532,6.56
			c8.51,7.821,32.087-6.555,39.111-11.147l-0.198-0.304c-1.288-0.383-2.541-0.825-3.758-1.325
			c-13.281,8.357-28.076,14.521-32.782,10.195c-0.948-0.87-1.405-2.167-1.398-3.963c0.027-6.087,5.17-15.715,13.699-26.476
			c5.864-7.395,13.328-15.328,21.833-23.012c8.463-7.646,17.209-14.392,25.517-19.741c4.157-2.676,8.207-5.008,12.052-6.915
			c10.658-5.285,18.828-6.777,21.858-3.992c3.487,3.204,0.85,13.928-12.618,30.82c0.543,1.255,1.011,2.54,1.397,3.848
			c8.837-10.786,14.182-20.154,15.667-27.093c0.96-4.494,0.303-7.972-2.074-10.156C133.356,39.844,121.779,43.96,113.033,48.3z"/>
	</g>
</g>
</svg>
