<?xml version="1.0" encoding="utf-8"?>
<!-- Generator: Adobe Illustrator 16.0.0, SVG Export Plug-In . SVG Version: 6.00 Build 0)  -->
<!DOCTYPE svg PUBLIC "-//W3C//DTD SVG 1.1//EN" "http://www.w3.org/Graphics/SVG/1.1/DTD/svg11.dtd">
<svg version="1.1" id="Layer_1" xmlns="http://www.w3.org/2000/svg" xmlns:xlink="http://www.w3.org/1999/xlink" x="0px" y="0px"
	 width="23.893px" height="23.893px" viewBox="0 0 23.893 23.893" enable-background="new 0 0 23.893 23.893" xml:space="preserve">
<path fill="#FFFFFF" d="M20.905,0H2.986C1.344,0,0,1.344,0,2.987v17.919c0,1.643,1.344,2.987,2.986,2.987h9.062v-8.566H9.188v-3.732
	h2.861V9.724c0-2.882,2.128-5.139,4.845-5.139h2.639v4.214h-2.359c-0.619,0-0.8,0.354-0.8,0.845v1.951h3.159v3.732h-3.159v8.566
	h4.532c1.643,0,2.987-1.344,2.987-2.987V2.987C23.893,1.344,22.548,0,20.905,0z"/>
</svg>
