<?xml version="1.0" encoding="utf-8"?>
<!-- Generator: Adobe Illustrator 16.0.0, SVG Export Plug-In . SVG Version: 6.00 Build 0)  -->
<!DOCTYPE svg PUBLIC "-//W3C//DTD SVG 1.1//EN" "http://www.w3.org/Graphics/SVG/1.1/DTD/svg11.dtd">
<svg version="1.1" id="Layer_1" xmlns="http://www.w3.org/2000/svg" xmlns:xlink="http://www.w3.org/1999/xlink" x="0px" y="0px"
	 width="23.642px" height="23.642px" viewBox="0 0 23.642 23.642" enable-background="new 0 0 23.642 23.642" xml:space="preserve">
<path fill="#4C4C4C" d="M11.82,0C5.291,0,0,5.293,0,11.821c0,6.529,5.291,11.82,11.82,11.82s11.821-5.291,11.821-11.82
	C23.642,5.293,18.35,0,11.82,0z M17.711,9.128c0.006,0.125,0.008,0.249,0.008,0.374c0,3.814-2.904,8.215-8.214,8.215
	c-1.63,0-3.147-0.479-4.425-1.297c0.226,0.025,0.455,0.039,0.688,0.039c1.353,0,2.597-0.461,3.585-1.235
	c-1.262-0.022-2.329-0.857-2.696-2.005c0.177,0.033,0.356,0.053,0.544,0.053c0.262,0,0.518-0.037,0.76-0.103
	c-1.32-0.266-2.316-1.433-2.316-2.83c0-0.013,0-0.025,0.002-0.036c0.388,0.216,0.834,0.345,1.307,0.361
	c-0.775-0.519-1.284-1.402-1.284-2.403c0-0.529,0.142-1.024,0.391-1.452c1.424,1.747,3.552,2.896,5.95,3.017
	c-0.049-0.211-0.074-0.432-0.074-0.658c0-1.595,1.293-2.888,2.887-2.888c0.83,0,1.58,0.352,2.107,0.912
	c0.658-0.129,1.275-0.369,1.834-0.7c-0.217,0.675-0.674,1.24-1.27,1.598c0.584-0.07,1.141-0.225,1.658-0.454
	C18.766,8.213,18.275,8.722,17.711,9.128z"/>
</svg>
