<?xml version="1.0" encoding="utf-8"?>
<!-- Generator: Adobe Illustrator 16.0.0, SVG Export Plug-In . SVG Version: 6.00 Build 0)  -->
<!DOCTYPE svg PUBLIC "-//W3C//DTD SVG 1.1//EN" "http://www.w3.org/Graphics/SVG/1.1/DTD/svg11.dtd">
<svg version="1.1" id="Layer_1" xmlns="http://www.w3.org/2000/svg" xmlns:xlink="http://www.w3.org/1999/xlink" x="0px" y="0px"
	 width="25.561px" height="23.893px" viewBox="0 0 25.561 23.893" enable-background="new 0 0 25.561 23.893" xml:space="preserve">
<path fill="#FFFFFF" d="M25.561,4.019c-0.939,0.417-1.95,0.698-3.012,0.826c1.083-0.649,1.915-1.677,2.306-2.901
	c-1.014,0.601-2.136,1.037-3.33,1.272c-0.956-1.02-2.318-1.656-3.828-1.656c-2.895,0-5.242,2.348-5.242,5.244
	c0,0.411,0.047,0.811,0.135,1.194C8.231,7.78,4.366,5.693,1.779,2.52C1.33,3.294,1.07,4.195,1.07,5.157
	c0,1.818,0.926,3.424,2.332,4.364C2.545,9.494,1.735,9.258,1.027,8.866c0,0.021,0,0.043,0,0.065c0,2.54,1.809,4.66,4.207,5.142
	c-0.438,0.119-0.903,0.185-1.382,0.185c-0.337,0-0.666-0.033-0.986-0.095c0.667,2.083,2.604,3.6,4.898,3.642
	C5.97,19.211,3.71,20.049,1.25,20.049c-0.42,0-0.838-0.025-1.25-0.074c2.321,1.488,5.078,2.357,8.039,2.357
	c9.646,0,14.921-7.991,14.921-14.921c0-0.228-0.006-0.453-0.017-0.678C23.969,5.995,24.857,5.071,25.561,4.019z"/>
</svg>
