<?xml version="1.0" encoding="UTF-8" standalone="no"?>
<svg width="37px" height="22px" viewBox="0 0 37 22" version="1.1" xmlns="http://www.w3.org/2000/svg" xmlns:xlink="http://www.w3.org/1999/xlink" xmlns:sketch="http://www.bohemiancoding.com/sketch/ns">
    <!-- Generator: Sketch 3.0.3 (7892) - http://www.bohemiancoding.com/sketch -->
    <title>Fill 1 + Fill 2 + Fill 3</title>
    <desc>Created with Sketch.</desc>
    <defs></defs>
    <g id="Page-1" stroke="none" stroke-width="1" fill="none" fill-rule="evenodd" sketch:type="MSPage">
        <g id="Fill-1-+-Fill-2-+-Fill-3" sketch:type="MSLayerGroup">
            <path d="M36.1701796,2.5438716 C36.1701796,1.17437309 35.0873971,0.0638427734 33.7521171,0.0638427734 L2.47653858,0.0638427734 C1.14125858,0.0638427734 0.0584761704,1.17437309 0.0584761704,2.5438716 L0.0584761704,19.4561284 C0.0584761704,20.8256269 1.14125858,21.9361572 2.47653858,21.9361572 L33.7521171,21.9361572 C35.0873971,21.9361572 36.1701796,20.8256269 36.1701796,19.4561284 L36.1701796,2.5438716" id="Fill-1" fill="#8CBAE2" sketch:type="MSShapeGroup"></path>
            <path d="M0.0584761704,6.31307547 L36.1701796,6.31307547 L36.1701796,15.0620013 L0.0584761704,15.0620013 L0.0584761704,6.31307547 Z" id="Fill-2" fill="#FFFFFF" sketch:type="MSShapeGroup"></path>
            <path d="M15.6815579,10.7187845 C15.6815579,12.2892167 16.92272,13.5621854 18.4539131,13.5621854 C19.9851062,13.5621854 21.2262683,12.2892167 21.2262683,10.7187845 C21.2262683,9.14835235 19.9851062,7.87538365 18.4539131,7.87538365 C16.92272,7.87538365 15.6815579,9.14835235 15.6815579,10.7187845" id="Fill-3" fill="#F7BB42" sketch:type="MSShapeGroup"></path>
        </g>
    </g>
</svg>