<?xml version="1.0" encoding="utf-8"?>
<!-- Generator: Adobe Illustrator 16.0.0, SVG Export Plug-In . SVG Version: 6.00 Build 0)  -->
<!DOCTYPE svg PUBLIC "-//W3C//DTD SVG 1.1//EN" "http://www.w3.org/Graphics/SVG/1.1/DTD/svg11.dtd">
<svg version="1.1" id="Layer_1" xmlns:sketch="http://www.bohemiancoding.com/sketch/ns"
	 xmlns="http://www.w3.org/2000/svg" xmlns:xlink="http://www.w3.org/1999/xlink" x="0px" y="0px" width="30.54px"
	 height="30.538px" viewBox="2.693 2.668 30.54 30.538" enable-background="new 2.693 2.668 30.54 30.538" xml:space="preserve">
<title>Oval 8 + facebook 2</title>
<desc>Created with Sketch.</desc>
<g>
	<defs>
		<circle id="SVGID_1_" cx="17.963" cy="17.937" r="15.27"/>
	</defs>
	<clipPath id="SVGID_2_">
		<use xlink:href="#SVGID_1_"  overflow="visible"/>
	</clipPath>
	
		<rect x="-1.728" y="-1.753" clip-path="url(#SVGID_2_)" fill-rule="evenodd" clip-rule="evenodd" fill="#40619D" width="39.382" height="39.382"/>
</g>
<path fill-rule="evenodd" clip-rule="evenodd" fill="#FFFFFF" d="M19.286,15.056h2.675l-0.312,2.882h-2.363v8.361h-3.552v-8.361
	h-1.771v-2.882h1.771v-1.735c0-1.232,0.299-2.164,0.896-2.795c0.598-0.635,1.579-0.951,2.948-0.951h2.363v2.884h-1.479
	c-0.271,0-0.488,0.021-0.651,0.065c-0.163,0.043-0.281,0.122-0.354,0.238c-0.072,0.115-0.119,0.232-0.14,0.35
	c-0.021,0.117-0.031,0.286-0.031,0.502V15.056L19.286,15.056z"/>
</svg>
