<?xml version="1.0" encoding="UTF-8" standalone="no"?>
<svg width="234px" height="234px" viewBox="0 0 234 234" version="1.1" xmlns="http://www.w3.org/2000/svg" xmlns:xlink="http://www.w3.org/1999/xlink" xmlns:sketch="http://www.bohemiancoding.com/sketch/ns">
    <!-- Generator: Sketch 3.0.3 (7892) - http://www.bohemiancoding.com/sketch -->
    <title>Oval 8 + facebook 2</title>
    <desc>Created with Sketch.</desc>
    <defs></defs>
    <g id="Page-1" stroke="none" stroke-width="1" fill="none" fill-rule="evenodd" sketch:type="MSPage">
        <g id="Landing-(Desktop)-2" sketch:type="MSArtboardGroup" transform="translate(-334.000000, -4465.000000)">
            <g id="Oval-8-+-facebook-2" sketch:type="MSLayerGroup" transform="translate(434.000000, 4565.000000)">
                <path d="M17.1556455,34.2666016 C26.6917262,34.2666016 34.422247,26.5360807 34.422247,17 C34.422247,7.46391928 26.6917262,-0.266601562 17.1556455,-0.266601562 C7.61956474,-0.266601562 -0.110956101,7.46391928 -0.110956101,17 C-0.110956101,26.5360807 7.61956474,34.2666016 17.1556455,34.2666016 Z" id="Oval-8" fill="#40619F" sketch:type="MSShapeGroup"></path>
                <g id="facebook-2" transform="translate(13.044550, 7.955590)" fill="#FFFFFF" sketch:type="MSShapeGroup">
                    <path d="M6.01817636,6.19722274 L9.04441034,6.19722274 L8.69094305,9.4558412 L6.01751691,9.4558412 L6.01751691,18.9110398 L2.00210206,18.9110398 L2.00210206,9.4558412 L0,9.4558412 L0,6.19722274 L2.00210206,6.19722274 L2.00210206,4.23472603 C2.00210206,2.84242865 2.33974246,1.78856663 3.01502327,1.07313998 C3.69030407,0.357713327 4.80126408,0 6.34790331,0 L9.02132946,0 L9.02132946,3.25861847 L7.34895435,3.25861847 C7.04296773,3.25861847 6.79765088,3.28346562 6.61300379,3.33315993 C6.42835669,3.38285423 6.29492718,3.47281806 6.21271526,3.60305142 C6.13050334,3.73328477 6.07752721,3.86523173 6.05378687,3.99889227 C6.03004653,4.13255282 6.01817636,4.32190527 6.01817636,4.5669496 L6.01817636,6.19658014 L6.01817636,6.19722274 Z" id="Shape"></path>
                </g>
            </g>
        </g>
    </g>
</svg>