<?xml version="1.0" encoding="utf-8"?>
<!-- Generator: Adobe Illustrator 16.0.0, SVG Export Plug-In . SVG Version: 6.00 Build 0)  -->
<!DOCTYPE svg PUBLIC "-//W3C//DTD SVG 1.1//EN" "http://www.w3.org/Graphics/SVG/1.1/DTD/svg11.dtd">
<svg version="1.1" id="Layer_1" xmlns:sketch="http://www.bohemiancoding.com/sketch/ns"
	 xmlns="http://www.w3.org/2000/svg" xmlns:xlink="http://www.w3.org/1999/xlink" x="0px" y="0px" width="32.835px"
	 height="32.821px" viewBox="-1.148 -1.148 32.835 32.821" enable-background="new -1.148 -1.148 32.835 32.821"
	 xml:space="preserve">
<title>Oval 8 + facebook 2</title>
<desc>Created with Sketch.</desc>
<g>
	<g>
		<g>
			<defs>
				<circle id="SVGID_1_" cx="15.27" cy="15.269" r="16.417"/>
			</defs>
			<clipPath id="SVGID_2_">
				<use xlink:href="#SVGID_1_"  overflow="visible"/>
			</clipPath>
			<rect x="-5.901" y="-5.9" clip-path="url(#SVGID_2_)" fill="#40619D" width="42.341" height="42.34"/>
		</g>
	</g>
	<path fill="#FFFFFF" d="M16.692,12.172h2.877l-0.336,3.098h-2.541v8.988h-3.819v-8.988h-1.904v-3.098h1.904v-1.866
		c0-1.325,0.322-2.326,0.963-3.005c0.644-0.683,1.699-1.022,3.17-1.022h2.54V9.38h-1.591c-0.291,0-0.523,0.022-0.699,0.07
		c-0.175,0.046-0.302,0.131-0.38,0.256c-0.078,0.123-0.128,0.249-0.151,0.375c-0.022,0.126-0.033,0.308-0.033,0.541V12.172
		L16.692,12.172z"/>
</g>
</svg>
