<?xml version="1.0" encoding="utf-8"?>
<!-- Generator: Adobe Illustrator 16.0.0, SVG Export Plug-In . SVG Version: 6.00 Build 0)  -->
<!DOCTYPE svg PUBLIC "-//W3C//DTD SVG 1.1//EN" "http://www.w3.org/Graphics/SVG/1.1/DTD/svg11.dtd">
<svg version="1.1" id="Layer_1" xmlns:sketch="http://www.bohemiancoding.com/sketch/ns"
	 xmlns="http://www.w3.org/2000/svg" xmlns:xlink="http://www.w3.org/1999/xlink" x="0px" y="0px" width="30.54px"
	 height="30.538px" viewBox="2.693 2.668 30.54 30.538" enable-background="new 2.693 2.668 30.54 30.538" xml:space="preserve">
<title>Oval 8 + facebook 2</title>
<desc>Created with Sketch.</desc>
<g>
	<g>
		<defs>
			<circle id="SVGID_1_" cx="17.962" cy="17.937" r="15.269"/>
		</defs>
		<clipPath id="SVGID_2_">
			<use xlink:href="#SVGID_1_"  overflow="visible"/>
		</clipPath>
		
			<rect x="-1.729" y="-1.755" clip-path="url(#SVGID_2_)" fill-rule="evenodd" clip-rule="evenodd" fill="#D24836" width="39.382" height="39.383"/>
	</g>
	<path fill="#FFFFFF" d="M20.445,9.591c0,0-4.179,0-5.573,0c-2.498,0-4.85,1.893-4.85,4.086c0,2.241,1.704,4.049,4.246,4.049
		c0.177,0,0.349-0.003,0.517-0.017c-0.166,0.315-0.283,0.671-0.283,1.041c0,0.625,0.334,1.128,0.759,1.54
		c-0.321,0-0.63,0.01-0.966,0.01c-3.095,0-5.478,1.971-5.478,4.016c0,2.012,2.612,3.271,5.707,3.271
		c3.528,0,5.477-2.001,5.477-4.016c0-1.612-0.477-2.579-1.949-3.623c-0.503-0.355-1.466-1.223-1.466-1.732
		c0-0.596,0.17-0.892,1.069-1.594c0.922-0.721,1.575-1.732,1.575-2.91c0-1.4-0.625-2.768-1.797-3.22h1.768L20.445,9.591z
		 M18.499,23.226c0.044,0.185,0.069,0.378,0.069,0.573c0,1.627-1.049,2.898-4.056,2.898c-2.14,0-3.685-1.354-3.685-2.981
		c0-1.594,1.917-2.921,4.055-2.898c0.5,0.006,0.965,0.086,1.387,0.223C17.431,21.849,18.265,22.304,18.499,23.226z M15.074,17.157
		c-1.435-0.043-2.8-1.605-3.049-3.492c-0.247-1.885,0.715-3.328,2.151-3.285s2.8,1.556,3.048,3.441
		C17.473,15.706,16.51,17.2,15.074,17.157z M26.123,13.586V9.591h-1.331v3.995h-3.993v1.329h3.993v3.994h1.331v-3.994h3.994v-1.329
		H26.123z"/>
</g>
</svg>
