<?xml version="1.0" encoding="utf-8"?>
<!-- Generator: Adobe Illustrator 16.0.0, SVG Export Plug-In . SVG Version: 6.00 Build 0)  -->
<!DOCTYPE svg PUBLIC "-//W3C//DTD SVG 1.1//EN" "http://www.w3.org/Graphics/SVG/1.1/DTD/svg11.dtd">
<svg version="1.1" id="Layer_1" xmlns:sketch="http://www.bohemiancoding.com/sketch/ns"
	 xmlns="http://www.w3.org/2000/svg" xmlns:xlink="http://www.w3.org/1999/xlink" x="0px" y="0px" width="32.835px"
	 height="32.821px" viewBox="-1.148 -1.148 32.835 32.821" enable-background="new -1.148 -1.148 32.835 32.821"
	 xml:space="preserve">
<title>Oval 8 + facebook 2</title>
<desc>Created with Sketch.</desc>
<g>
	<g>
		<g>
			<defs>
				<circle id="SVGID_1_" cx="15.269" cy="15.263" r="16.423"/>
			</defs>
			<clipPath id="SVGID_2_">
				<use xlink:href="#SVGID_1_"  overflow="visible"/>
			</clipPath>
			<rect x="-5.91" y="-5.918" clip-path="url(#SVGID_2_)" fill="#D24836" width="42.358" height="42.36"/>
		</g>
	</g>
	<path fill="#FFFFFF" d="M17.94,6.286c0,0-4.495,0-5.994,0c-2.687,0-5.217,2.036-5.217,4.395c0,2.41,1.833,4.355,4.566,4.355
		c0.191,0,0.376-0.002,0.557-0.019c-0.178,0.34-0.305,0.723-0.305,1.12c0,0.672,0.359,1.214,0.817,1.657
		c-0.347,0-0.679,0.011-1.04,0.011c-3.329,0-5.892,2.119-5.892,4.319c0,2.163,2.81,3.519,6.138,3.519c3.794,0,5.89-2.153,5.89-4.319
		c0-1.735-0.513-2.775-2.096-3.896c-0.54-0.383-1.576-1.315-1.576-1.864c0-0.641,0.183-0.96,1.149-1.714
		c0.992-0.775,1.695-1.863,1.695-3.13c0-1.506-0.672-2.977-1.932-3.463h1.901L17.94,6.286z M15.846,20.951
		c0.048,0.2,0.075,0.408,0.075,0.616c0,1.75-1.127,3.117-4.363,3.117c-2.301,0-3.963-1.456-3.963-3.206
		c0-1.714,2.062-3.143,4.361-3.117c0.538,0.006,1.039,0.093,1.493,0.239C14.699,19.47,15.596,19.959,15.846,20.951z M12.164,14.424
		c-1.544-0.046-3.012-1.727-3.28-3.756c-0.266-2.027,0.77-3.58,2.313-3.534s3.013,1.674,3.279,3.702S13.708,14.47,12.164,14.424z
		 M24.047,10.583V6.286h-1.433v4.297h-4.294v1.43h4.294v4.296h1.433v-4.296h4.296v-1.43H24.047z"/>
</g>
</svg>
