<?xml version="1.0" encoding="UTF-8" standalone="no"?>
<svg width="278px" height="49px" viewBox="0 0 278 49" version="1.1" xmlns="http://www.w3.org/2000/svg" xmlns:xlink="http://www.w3.org/1999/xlink" xmlns:sketch="http://www.bohemiancoding.com/sketch/ns">
    <!-- Generator: Sketch 3.0.3 (7892) - http://www.bohemiancoding.com/sketch -->
    <title>Imported Layers</title>
    <desc>Created with Sketch.</desc>
    <defs></defs>
    <g id="Page-1" stroke="none" stroke-width="1" fill="none" fill-rule="evenodd" sketch:type="MSPage">
        <g id="Imported-Layers" sketch:type="MSLayerGroup" transform="translate(0.000000, 1.000000)">
            <path d="M42.1610966,31.3421034 C42.1610966,22.1709793 48.9749724,14.7685103 58.539131,14.7685103 C68.0390621,14.7685103 74.3937586,21.8440897 74.3937586,32.129131 L74.3937586,34.0943034 L50.874,34.0943034 C51.4645103,37.9594621 54.6087862,41.1698828 59.9808966,41.1698828 C62.6669517,41.1698828 66.3355931,40.0559655 68.3659517,38.0907931 L72.1007379,43.5942345 C68.9564621,46.4758483 63.9773862,47.9837586 59.0634966,47.9837586 C49.4331931,47.9837586 42.1610966,41.497731 42.1610966,31.3421034 L42.1610966,31.3421034 Z M58.539131,21.5823862 C53.3644966,21.5823862 51.1366621,25.1848828 50.8097724,28.3301172 L66.4017379,28.3301172 C66.1390759,25.3152552 64.0425724,21.5823862 58.539131,21.5823862 L58.539131,21.5823862 Z" id="Fill-1" fill="#B3DC1F" sketch:type="MSShapeGroup"></path>
            <path d="M75.1136828,31.3421034 C75.1136828,22.3684552 81.4031931,14.7685103 91.8195655,14.7685103 C102.302083,14.7685103 108.590634,22.3684552 108.590634,31.3421034 C108.590634,40.3186276 102.302083,47.9837586 91.8195655,47.9837586 C81.4031931,47.9837586 75.1136828,40.3186276 75.1136828,31.3421034 L75.1136828,31.3421034 Z M99.9429172,31.3421034 C99.9429172,26.4291724 97.0603448,22.1709793 91.8195655,22.1709793 C86.6439724,22.1709793 83.7614,26.4291724 83.7614,31.3421034 C83.7614,36.3221379 86.6439724,40.580331 91.8195655,40.580331 C97.0603448,40.580331 99.9429172,36.3221379 99.9429172,31.3421034 L99.9429172,31.3421034 Z" id="Fill-2" fill="#B3DC1F" sketch:type="MSShapeGroup"></path>
            <path d="M111.539352,3.49992414 L119.859221,3.49992414 L119.859221,47.196731 L111.539352,47.196731 L111.539352,3.49992414 Z" id="Fill-3" fill="#B3DC1F" sketch:type="MSShapeGroup"></path>
            <path d="M122.806021,31.3421034 C122.806021,22.3684552 129.095531,14.7685103 139.511903,14.7685103 C149.994421,14.7685103 156.282972,22.3684552 156.282972,31.3421034 C156.282972,40.3186276 149.994421,47.9837586 139.511903,47.9837586 C129.095531,47.9837586 122.806021,40.3186276 122.806021,31.3421034 L122.806021,31.3421034 Z M147.635255,31.3421034 C147.635255,26.4291724 144.752683,22.1709793 139.511903,22.1709793 C134.33631,22.1709793 131.453738,26.4291724 131.453738,31.3421034 C131.453738,36.3221379 134.33631,40.580331 139.511903,40.580331 C144.752683,40.580331 147.635255,36.3221379 147.635255,31.3421034 L147.635255,31.3421034 Z" id="Fill-4" fill="#B3DC1F" sketch:type="MSShapeGroup"></path>
            <path d="M159.033255,44.2489724 C159.033255,42.2838 160.670579,40.6455172 162.63671,40.6455172 C164.601883,40.6455172 166.240166,42.2838 166.240166,44.2489724 C166.240166,46.2141448 164.601883,47.8524276 162.63671,47.8524276 C160.670579,47.8524276 159.033255,46.2141448 159.033255,44.2489724" id="Fill-5" fill="#FFFFFF" sketch:type="MSShapeGroup"></path>
            <path d="M169.580959,31.3421034 C169.580959,21.9744621 175.935655,14.7685103 185.369441,14.7685103 C191.134586,14.7685103 194.541524,17.1267172 196.964917,20.2719517 L193.690269,23.2187517 C191.592807,20.3371379 188.90771,19.1570759 185.632103,19.1570759 C178.949559,19.1570759 174.690407,24.332669 174.690407,31.3421034 C174.690407,38.3524966 178.949559,43.5942345 185.632103,43.5942345 C188.90771,43.5942345 191.592807,42.2838 193.690269,39.4664138 L196.964917,42.4812759 C194.541524,45.6245931 191.134586,47.9837586 185.369441,47.9837586 C175.935655,47.9837586 169.580959,40.7116621 169.580959,31.3421034" id="Fill-6" fill="#FFFFFF" sketch:type="MSShapeGroup"></path>
            <path d="M198.798759,31.3421034 C198.798759,22.1709793 204.825607,14.7685103 214.45591,14.7685103 C224.086214,14.7685103 230.114021,22.1709793 230.114021,31.3421034 C230.114021,40.5151448 224.086214,47.9837586 214.45591,47.9837586 C204.825607,47.9837586 198.798759,40.5151448 198.798759,31.3421034 L198.798759,31.3421034 Z M224.937469,31.3421034 C224.937469,24.9222207 221.203641,19.1570759 214.45591,19.1570759 C207.708179,19.1570759 203.973393,24.9222207 203.973393,31.3421034 C203.973393,37.828131 207.708179,43.5942345 214.45591,43.5942345 C221.203641,43.5942345 224.937469,37.828131 224.937469,31.3421034 L224.937469,31.3421034 Z" id="Fill-7" fill="#FFFFFF" sketch:type="MSShapeGroup"></path>
            <path d="M273.0238,47.196731 L273.0238,25.7082897 C273.0238,21.7127586 271.319372,19.1570759 267.193469,19.1570759 C263.917862,19.1570759 260.444779,21.4510552 258.807455,24.0048207 L258.807455,47.196731 L253.893566,47.196731 L253.893566,25.7082897 C253.893566,21.7127586 252.256241,19.1570759 248.063234,19.1570759 C244.852814,19.1570759 241.445876,21.5162414 239.743366,24.0700069 L239.743366,47.196731 L234.829476,47.196731 L234.829476,15.5545793 L239.743366,15.5545793 L239.743366,20.1406207 C241.118028,18.1093034 245.311034,14.7685103 250.028407,14.7685103 C254.810966,14.7685103 257.562207,17.3884207 258.479607,20.6649862 C260.248262,17.7814552 264.506455,14.7685103 269.092497,14.7685103 C274.857641,14.7685103 277.93769,17.9779724 277.93769,24.332669 L277.93769,47.196731 L273.0238,47.196731" id="Fill-8" fill="#FFFFFF" sketch:type="MSShapeGroup"></path>
            <path d="M37.5606759,16.4528069 C37.5041172,16.0262207 37.0420621,12.1716069 34.6119586,8.2844 C31.1570897,2.75507586 25.6200966,-0.289503448 18.9193379,-0.289503448 C12.2195379,-0.289503448 6.65474483,2.75507586 3.19891724,8.2844 C0.769772414,12.1716069 0.151462069,16.0262207 0.0939448276,16.4528069 L0,16.8199586 L0,46.9724138 L11.5034483,46.9724138 L11.5034483,17.6894276 C11.5034483,17.6894276 11.676,10.7499724 19.1944621,10.7499724 C26.9104,10.7499724 26.8413793,17.6894276 26.8413793,17.6894276 L26.8413793,46.9724138 L37.3862069,46.9724138 L37.3862069,16.8199586 L37.5606759,16.4528069" id="Fill-9" fill="#B3DC1F" sketch:type="MSShapeGroup"></path>
            <path d="M92.4119931,26.2201931 C92.4119931,28.8803655 94.567931,31.0353448 97.2290621,31.0353448 C99.8873172,31.0353448 102.044214,28.8803655 102.044214,26.2201931 C102.044214,23.5600207 99.8873172,21.4040828 97.2290621,21.4040828 C94.567931,21.4040828 92.4119931,23.5600207 92.4119931,26.2201931" id="Fill-10" fill="#B3DC1F" sketch:type="MSShapeGroup"></path>
            <path d="M139.499441,26.2201931 C139.499441,28.8803655 141.655379,31.0353448 144.315552,31.0353448 C146.973807,31.0353448 149.130703,28.8803655 149.130703,26.2201931 C149.130703,23.5600207 146.973807,21.4040828 144.315552,21.4040828 C141.655379,21.4040828 139.499441,23.5600207 139.499441,26.2201931" id="Fill-11" fill="#B3DC1F" sketch:type="MSShapeGroup"></path>
        </g>
    </g>
</svg>