<?xml version="1.0" encoding="UTF-8" standalone="no"?>
<svg width="452px" height="246px" viewBox="0 0 452 246" version="1.1" xmlns="http://www.w3.org/2000/svg" xmlns:xlink="http://www.w3.org/1999/xlink" xmlns:sketch="http://www.bohemiancoding.com/sketch/ns">
    <!-- Generator: Sketch 3.0.3 (7892) - http://www.bohemiancoding.com/sketch -->
    <title>Imported Layers</title>
    <desc>Created with Sketch.</desc>
    <defs></defs>
    <g id="Page-1" stroke="none" stroke-width="1" fill="none" fill-rule="evenodd" sketch:type="MSPage">
        <g id="Landing-(Desktop)-2" sketch:type="MSArtboardGroup" transform="translate(0.000000, -25.000000)">
            <g id="Imported-Layers" sketch:type="MSLayerGroup" transform="translate(95.000000, 125.000000)">
                <path d="M38.9762655,28.9225 C38.9762655,20.4593846 45.2754241,13.6283846 54.1171103,13.6283846 C62.8994207,13.6283846 68.7732,20.1577308 68.7732,29.6487692 L68.7732,31.4622308 L47.031,31.4622308 C47.5760172,35.029 50.4836621,37.9915769 55.4499655,37.9915769 C57.9331172,37.9915769 61.324631,36.9636538 63.2016172,35.1501923 L66.6542793,40.2287692 C63.7475207,42.8879231 59.1445621,44.2794231 54.6018655,44.2794231 C45.699031,44.2794231 38.9762655,38.2941154 38.9762655,28.9225 L38.9762655,28.9225 Z M54.1171103,19.9162308 C49.3333655,19.9162308 47.2738207,23.2406154 46.9716241,26.1430385 L61.3857793,26.1430385 C61.1429586,23.3609231 59.2048241,19.9162308 54.1171103,19.9162308 L54.1171103,19.9162308 Z" id="Fill-1" fill="#FFFFFF" sketch:type="MSShapeGroup"></path>
                <path d="M69.4396276,28.9225 C69.4396276,20.6416154 75.254031,13.6283846 84.8835552,13.6283846 C94.5742276,13.6283846 100.387745,20.6416154 100.387745,28.9225 C100.387745,37.2060385 94.5742276,44.2794231 84.8835552,44.2794231 C75.254031,44.2794231 69.4396276,37.2060385 69.4396276,28.9225 L69.4396276,28.9225 Z M92.3932724,28.9225 C92.3932724,24.3888462 89.7284483,20.4593846 84.8835552,20.4593846 C80.0989241,20.4593846 77.4341,24.3888462 77.4341,28.9225 C77.4341,33.5180769 80.0989241,37.4475385 84.8835552,37.4475385 C89.7284483,37.4475385 92.3932724,33.5180769 92.3932724,28.9225 L92.3932724,28.9225 Z" id="Fill-2" fill="#FFFFFF" sketch:type="MSShapeGroup"></path>
                <path d="M103.113717,3.22973077 L110.805107,3.22973077 L110.805107,43.5531538 L103.113717,43.5531538 L103.113717,3.22973077 Z" id="Fill-3" fill="#FFFFFF" sketch:type="MSShapeGroup"></path>
                <path d="M113.529307,28.9225 C113.529307,20.6416154 119.34371,13.6283846 128.973234,13.6283846 C138.663907,13.6283846 144.477424,20.6416154 144.477424,28.9225 C144.477424,37.2060385 138.663907,44.2794231 128.973234,44.2794231 C119.34371,44.2794231 113.529307,37.2060385 113.529307,28.9225 L113.529307,28.9225 Z M136.482952,28.9225 C136.482952,24.3888462 133.818128,20.4593846 128.973234,20.4593846 C124.188603,20.4593846 121.523779,24.3888462 121.523779,28.9225 C121.523779,33.5180769 124.188603,37.4475385 128.973234,37.4475385 C133.818128,37.4475385 136.482952,33.5180769 136.482952,28.9225 L136.482952,28.9225 Z" id="Fill-4" fill="#FFFFFF" sketch:type="MSShapeGroup"></path>
                <path d="M147.019952,40.8329615 C147.019952,39.0195 148.533593,37.5076923 150.351203,37.5076923 C152.167928,37.5076923 153.682455,39.0195 153.682455,40.8329615 C153.682455,42.6464231 152.167928,44.1582308 150.351203,44.1582308 C148.533593,44.1582308 147.019952,42.6464231 147.019952,40.8329615" id="Fill-5" fill="#4C4C4C" sketch:type="MSShapeGroup"></path>
                <path d="M156.770886,28.9225 C156.770886,20.2780385 162.645552,13.6283846 171.366714,13.6283846 C176.696362,13.6283846 179.845055,15.8045385 182.086272,18.7069615 L179.05899,21.4262692 C177.119969,18.7671154 174.637703,17.6781538 171.608648,17.6781538 C165.431786,17.6781538 161.494369,22.4541923 161.494369,28.9225 C161.494369,35.3916923 165.431786,40.2287692 171.608648,40.2287692 C174.637703,40.2287692 177.119969,39.0195 179.05899,36.4196154 L182.086272,39.2017308 C179.845055,42.1023846 176.696362,44.2794231 171.366714,44.2794231 C162.645552,44.2794231 156.770886,37.5687308 156.770886,28.9225" id="Fill-6" fill="#4C4C4C" sketch:type="MSShapeGroup"></path>
                <path d="M183.781586,28.9225 C183.781586,20.4593846 189.353169,13.6283846 198.256003,13.6283846 C207.158838,13.6283846 212.731307,20.4593846 212.731307,28.9225 C212.731307,37.3873846 207.158838,44.2794231 198.256003,44.2794231 C189.353169,44.2794231 183.781586,37.3873846 183.781586,28.9225 L183.781586,28.9225 Z M207.946676,28.9225 C207.946676,22.9982308 204.494014,17.6781538 198.256003,17.6781538 C192.017993,17.6781538 188.565331,22.9982308 188.565331,28.9225 C188.565331,34.9078077 192.017993,40.2287692 198.256003,40.2287692 C204.494014,40.2287692 207.946676,34.9078077 207.946676,28.9225 L207.946676,28.9225 Z" id="Fill-7" fill="#4C4C4C" sketch:type="MSShapeGroup"></path>
                <path d="M252.3997,43.5531538 L252.3997,23.7236154 C252.3997,20.0365385 250.824024,17.6781538 247.00979,17.6781538 C243.981621,17.6781538 240.770893,19.7950385 239.257252,22.1516538 L239.257252,43.5531538 L234.714555,43.5531538 L234.714555,23.7236154 C234.714555,20.0365385 233.200028,17.6781538 229.324645,17.6781538 C226.356738,17.6781538 223.207159,19.8551923 221.633255,22.2118077 L221.633255,43.5531538 L217.090559,43.5531538 L217.090559,14.3537692 L221.633255,14.3537692 L221.633255,18.5857692 C222.904076,16.7112692 226.780345,13.6283846 231.141369,13.6283846 C235.562655,13.6283846 238.106069,16.0460385 238.954169,19.0696538 C240.589221,16.4087308 244.525752,13.6283846 248.765366,13.6283846 C254.095014,13.6283846 256.942397,16.5900769 256.942397,22.4541923 L256.942397,43.5531538 L252.3997,43.5531538" id="Fill-8" fill="#4C4C4C" sketch:type="MSShapeGroup"></path>
                <path d="M34.7233586,15.1826538 C34.6710724,14.789 34.2439207,11.2319615 31.9973862,7.64484615 C28.8034966,2.54238462 23.6847655,-0.267153846 17.4901793,-0.267153846 C11.2964793,-0.267153846 6.15204828,2.54238462 2.95727241,7.64484615 C0.711624138,11.2319615 0.14002069,14.789 0.0868482759,15.1826538 L0,15.5214615 L0,43.3461538 L10.6344828,43.3461538 L10.6344828,16.3238077 C10.6344828,16.3238077 10.794,9.92007692 17.7445207,9.92007692 C24.8776,9.92007692 24.8137931,16.3238077 24.8137931,16.3238077 L24.8137931,43.3461538 L34.562069,43.3461538 L34.562069,15.5214615 L34.7233586,15.1826538" id="Fill-9" fill="#FFFFFF" sketch:type="MSShapeGroup"></path>
                <path d="M85.431231,24.196 C85.431231,26.6508077 87.4243103,28.6394231 89.8844207,28.6394231 C92.3418724,28.6394231 94.3358379,26.6508077 94.3358379,24.196 C94.3358379,21.7411923 92.3418724,19.7516923 89.8844207,19.7516923 C87.4243103,19.7516923 85.431231,21.7411923 85.431231,24.196" id="Fill-10" fill="#FFFFFF" sketch:type="MSShapeGroup"></path>
                <path d="M128.961714,24.196 C128.961714,26.6508077 130.953907,28.6394231 133.414017,28.6394231 C135.871469,28.6394231 137.865434,26.6508077 137.865434,24.196 C137.865434,21.7411923 135.871469,19.7516923 133.414017,19.7516923 C130.953907,19.7516923 128.961714,21.7411923 128.961714,24.196" id="Fill-11" fill="#FFFFFF" sketch:type="MSShapeGroup"></path>
            </g>
        </g>
    </g>
</svg>