<?xml version="1.0" encoding="UTF-8" standalone="no"?>
<svg width="246px" height="44px" viewBox="0 0 246 44" version="1.1" xmlns="http://www.w3.org/2000/svg" xmlns:xlink="http://www.w3.org/1999/xlink" xmlns:sketch="http://www.bohemiancoding.com/sketch/ns">
    <!-- Generator: Sketch 3.0.3 (7892) - http://www.bohemiancoding.com/sketch -->
    <title>Imported Layers</title>
    <desc>Created with Sketch.</desc>
    <defs></defs>
    <g id="Page-1" stroke="none" stroke-width="1" fill="none" fill-rule="evenodd" sketch:type="MSPage">
        <g id="Imported-Layers" sketch:type="MSLayerGroup" transform="translate(0.000000, 1.000000)">
            <path d="M37.3080207,27.665 C37.3080207,19.5698462 43.3375655,13.0358462 51.8008138,13.0358462 C60.2072276,13.0358462 65.8296,19.2813077 65.8296,28.3596923 L65.8296,30.0943077 L45.018,30.0943077 C45.5396897,33.506 48.3228828,36.3397692 53.0766207,36.3397692 C55.4534897,36.3397692 58.6998414,35.3565385 60.4964897,33.6219231 L63.8013724,38.4796923 C61.0190276,41.0232308 56.6130828,42.3542308 52.2648207,42.3542308 C43.7430414,42.3542308 37.3080207,36.6291538 37.3080207,27.665 L37.3080207,27.665 Z M51.8008138,19.0503077 C47.2218207,19.0503077 45.2504276,22.2301538 44.9611655,25.0063846 L58.7583724,25.0063846 C58.5259448,22.3452308 56.6707655,19.0503077 51.8008138,19.0503077 L51.8008138,19.0503077 Z" id="Fill-1" fill="#FFFFFF" sketch:type="MSShapeGroup"></path>
            <path d="M66.4675034,27.665 C66.4675034,19.7441538 72.0330414,13.0358462 81.2504069,13.0358462 C90.5263034,13.0358462 96.0909931,19.7441538 96.0909931,27.665 C96.0909931,35.5883846 90.5263034,42.3542308 81.2504069,42.3542308 C72.0330414,42.3542308 66.4675034,35.5883846 66.4675034,27.665 L66.4675034,27.665 Z M88.4386966,27.665 C88.4386966,23.3284615 85.887931,19.5698462 81.2504069,19.5698462 C76.6705655,19.5698462 74.1198,23.3284615 74.1198,27.665 C74.1198,32.0607692 76.6705655,35.8193846 81.2504069,35.8193846 C85.887931,35.8193846 88.4386966,32.0607692 88.4386966,27.665 L88.4386966,27.665 Z" id="Fill-2" fill="#FFFFFF" sketch:type="MSShapeGroup"></path>
            <path d="M98.7002897,3.08930769 L106.062476,3.08930769 L106.062476,41.6595385 L98.7002897,41.6595385 L98.7002897,3.08930769 Z" id="Fill-3" fill="#FFFFFF" sketch:type="MSShapeGroup"></path>
            <path d="M108.670076,27.665 C108.670076,19.7441538 114.235614,13.0358462 123.452979,13.0358462 C132.728876,13.0358462 138.293566,19.7441538 138.293566,27.665 C138.293566,35.5883846 132.728876,42.3542308 123.452979,42.3542308 C114.235614,42.3542308 108.670076,35.5883846 108.670076,27.665 L108.670076,27.665 Z M130.641269,27.665 C130.641269,23.3284615 128.090503,19.5698462 123.452979,19.5698462 C118.873138,19.5698462 116.322372,23.3284615 116.322372,27.665 C116.322372,32.0607692 118.873138,35.8193846 123.452979,35.8193846 C128.090503,35.8193846 130.641269,32.0607692 130.641269,27.665 L130.641269,27.665 Z" id="Fill-4" fill="#FFFFFF" sketch:type="MSShapeGroup"></path>
            <path d="M140.727269,39.0576154 C140.727269,37.323 142.176124,35.8769231 143.915938,35.8769231 C145.654903,35.8769231 147.104607,37.323 147.104607,39.0576154 C147.104607,40.7922308 145.654903,42.2383077 143.915938,42.2383077 C142.176124,42.2383077 140.727269,40.7922308 140.727269,39.0576154" id="Fill-5" fill="#4C4C4C" sketch:type="MSShapeGroup"></path>
            <path d="M150.060848,27.665 C150.060848,19.3963846 155.684069,13.0358462 164.031952,13.0358462 C169.133483,13.0358462 172.147407,15.1173846 174.292697,17.8936154 L171.394986,20.4946923 C169.538959,17.9511538 167.162938,16.9095385 164.263531,16.9095385 C158.351048,16.9095385 154.582159,21.4779231 154.582159,27.665 C154.582159,33.8529231 158.351048,38.4796923 164.263531,38.4796923 C167.162938,38.4796923 169.538959,37.323 171.394986,34.8361538 L174.292697,37.4973077 C172.147407,40.2718462 169.133483,42.3542308 164.031952,42.3542308 C155.684069,42.3542308 150.060848,35.9353077 150.060848,27.665" id="Fill-6" fill="#4C4C4C" sketch:type="MSShapeGroup"></path>
            <path d="M175.915448,27.665 C175.915448,19.5698462 181.248559,13.0358462 189.770338,13.0358462 C198.292117,13.0358462 203.626076,19.5698462 203.626076,27.665 C203.626076,35.7618462 198.292117,42.3542308 189.770338,42.3542308 C181.248559,42.3542308 175.915448,35.7618462 175.915448,27.665 L175.915448,27.665 Z M199.046234,27.665 C199.046234,21.9983077 195.741352,16.9095385 189.770338,16.9095385 C183.799324,16.9095385 180.494441,21.9983077 180.494441,27.665 C180.494441,33.3900769 183.799324,38.4796923 189.770338,38.4796923 C195.741352,38.4796923 199.046234,33.3900769 199.046234,27.665 L199.046234,27.665 Z" id="Fill-7" fill="#4C4C4C" sketch:type="MSShapeGroup"></path>
            <path d="M241.5966,41.6595385 L241.5966,22.6921538 C241.5966,19.1653846 240.088366,16.9095385 236.437386,16.9095385 C233.538828,16.9095385 230.465524,18.9343846 229.016669,21.1885385 L229.016669,41.6595385 L224.668407,41.6595385 L224.668407,22.6921538 C224.668407,19.1653846 223.218703,16.9095385 219.509193,16.9095385 C216.668317,16.9095385 213.653545,18.9919231 212.147007,21.2460769 L212.147007,41.6595385 L207.798745,41.6595385 L207.798745,13.7296923 L212.147007,13.7296923 L212.147007,17.7776923 C213.363434,15.9846923 217.073793,13.0358462 221.248159,13.0358462 C225.480207,13.0358462 227.914759,15.3483846 228.726559,18.2405385 C230.291628,15.6953077 234.059669,13.0358462 238.117821,13.0358462 C243.219352,13.0358462 245.944862,15.8687692 245.944862,21.4779231 L245.944862,41.6595385 L241.5966,41.6595385" id="Fill-8" fill="#4C4C4C" sketch:type="MSShapeGroup"></path>
            <path d="M33.2371448,14.5225385 C33.1870966,14.146 32.7782276,10.7436154 30.6278483,7.31246154 C27.5706621,2.43184615 22.6710207,-0.255538462 16.7415724,-0.255538462 C10.8129724,-0.255538462 5.88873103,2.43184615 2.83069655,7.31246154 C0.681165517,10.7436154 0.134027586,14.146 0.0831310345,14.5225385 L0,14.8466154 L0,41.4615385 L10.1793103,41.4615385 L10.1793103,15.6140769 C10.1793103,15.6140769 10.332,9.48876923 16.9850276,9.48876923 C23.8128,9.48876923 23.7517241,15.6140769 23.7517241,15.6140769 L23.7517241,41.4615385 L33.0827586,41.4615385 L33.0827586,14.8466154 L33.2371448,14.5225385" id="Fill-9" fill="#FFFFFF" sketch:type="MSShapeGroup"></path>
            <path d="M81.7746414,23.144 C81.7746414,25.4920769 83.6824138,27.3942308 86.0372276,27.3942308 C88.3894966,27.3942308 90.2981172,25.4920769 90.2981172,23.144 C90.2981172,20.7959231 88.3894966,18.8929231 86.0372276,18.8929231 C83.6824138,18.8929231 81.7746414,20.7959231 81.7746414,23.144" id="Fill-10" fill="#FFFFFF" sketch:type="MSShapeGroup"></path>
            <path d="M123.441952,23.144 C123.441952,25.4920769 125.348876,27.3942308 127.70369,27.3942308 C130.055959,27.3942308 131.964579,25.4920769 131.964579,23.144 C131.964579,20.7959231 130.055959,18.8929231 127.70369,18.8929231 C125.348876,18.8929231 123.441952,20.7959231 123.441952,23.144" id="Fill-11" fill="#FFFFFF" sketch:type="MSShapeGroup"></path>
        </g>
    </g>
</svg>