<?xml version="1.0" encoding="utf-8"?>
<!-- Generator: Adobe Illustrator 16.0.0, SVG Export Plug-In . SVG Version: 6.00 Build 0)  -->
<!DOCTYPE svg PUBLIC "-//W3C//DTD SVG 1.1//EN" "http://www.w3.org/Graphics/SVG/1.1/DTD/svg11.dtd">
<svg version="1.1" id="Layer_1" xmlns:sketch="http://www.bohemiancoding.com/sketch/ns"
	 xmlns="http://www.w3.org/2000/svg" xmlns:xlink="http://www.w3.org/1999/xlink" x="0px" y="0px" width="249px" height="65.917px"
	 viewBox="0 0 249 65.917" enable-background="new 0 0 249 65.917" xml:space="preserve">
<title>Imported Layers</title>
<desc>Created with Sketch.</desc>
<g>
	<path fill="#B3DC20" d="M38.33,28.336c0-8.193,6.085-14.806,14.63-14.806c8.484,0,14.162,6.32,14.162,15.508v1.757H46.111
		c0.527,3.451,3.337,6.32,8.137,6.32c2.398,0,5.676-0.995,7.488-2.751l3.337,4.917c-2.81,2.573-7.257,3.92-11.645,3.92
		C44.826,43.201,38.33,37.408,38.33,28.336z M52.96,19.616c-4.625,0-6.615,3.22-6.905,6.029h13.928
		C59.749,22.953,57.875,19.616,52.96,19.616z"/>
	<path fill="#B3DC20" d="M67.764,28.336c0-8.018,5.62-14.806,14.925-14.806c9.362,0,14.981,6.788,14.981,14.806
		s-5.619,14.865-14.981,14.865C73.384,43.201,67.764,36.354,67.764,28.336z M89.944,28.336c0-4.388-2.574-8.193-7.255-8.193
		c-4.625,0-7.2,3.805-7.2,8.193c0,4.447,2.576,8.252,7.2,8.252C87.37,36.588,89.944,32.783,89.944,28.336z"/>
	<path fill="#B3DC20" d="M100.303,42.499V3.464h7.432v39.035H100.303z"/>
	<path fill="#B3DC20" d="M110.37,28.336c0-8.018,5.618-14.806,14.923-14.806c9.361,0,14.98,6.788,14.98,14.806
		s-5.619,14.865-14.98,14.865C115.987,43.201,110.37,36.354,110.37,28.336z M132.548,28.336c0-4.388-2.575-8.193-7.255-8.193
		c-4.625,0-7.2,3.805-7.2,8.193c0,4.447,2.575,8.252,7.2,8.252C129.973,36.588,132.548,32.783,132.548,28.336z"/>
	<path fill="#FFFFFF" d="M142.73,39.866c0-1.756,1.462-3.22,3.218-3.22s3.22,1.464,3.22,3.22c0,1.755-1.464,3.218-3.22,3.218
		S142.73,41.621,142.73,39.866z"/>
	<path fill="#FFFFFF" d="M152.153,28.336c0-8.369,5.676-14.806,14.104-14.806c5.149,0,8.19,2.107,10.356,4.915l-2.924,2.634
		c-1.873-2.576-4.273-3.629-7.199-3.629c-5.97,0-9.772,4.625-9.772,10.886c0,6.262,3.803,10.945,9.772,10.945
		c2.926,0,5.326-1.171,7.199-3.688l2.924,2.693c-2.166,2.808-5.207,4.915-10.356,4.915
		C157.829,43.201,152.153,36.706,152.153,28.336z"/>
	<path fill="#FFFFFF" d="M178.253,28.336c0-8.193,5.384-14.806,13.987-14.806c8.601,0,13.985,6.613,13.985,14.806
		c0,8.194-5.385,14.865-13.985,14.865C183.637,43.201,178.253,36.53,178.253,28.336z M201.602,28.336
		c0-5.734-3.335-10.886-9.361-10.886c-6.03,0-9.365,5.151-9.365,10.886c0,5.793,3.335,10.945,9.365,10.945
		C198.267,39.281,201.602,34.129,201.602,28.336z"/>
	<path fill="#FFFFFF" d="M244.556,42.499V23.305c0-3.572-1.521-5.854-5.208-5.854c-2.924,0-6.026,2.049-7.49,4.332v20.717h-4.389
		V23.305c0-3.572-1.464-5.854-5.21-5.854c-2.866,0-5.91,2.107-7.433,4.39v20.659h-4.388V14.232h4.388v4.096
		c1.23-1.815,4.977-4.798,9.189-4.798c4.273,0,6.729,2.339,7.549,5.266c1.581-2.575,5.384-5.266,9.481-5.266
		c5.149,0,7.9,2.866,7.9,8.544v20.424H244.556z"/>
	<path fill="#B3DC20" d="M34.189,15.036c-0.05-0.381-0.449-3.826-2.619-7.298c-3.086-4.938-8.024-7.658-14.011-7.658
		c-5.984,0-10.952,2.72-14.038,7.658c-2.17,3.473-3.053,6.917-3.108,7.298L0,15.364V43.5h11V16.14c0,0,0.803-6.199,7.519-6.199
		C25.412,9.941,26,16.14,26,16.14V43.5h8V15.364L34.189,15.036z"/>
	<g>
		<circle fill="#B3DC20" cx="87.52" cy="23.76" r="4.302"/>
	</g>
	<g>
		<circle fill="#B3DC20" cx="129.583" cy="23.76" r="4.303"/>
	</g>
</g>
<g>
	<path fill="#B3DC20" d="M38.33,28.336c0-8.193,6.085-14.806,14.63-14.806c8.484,0,14.162,6.32,14.162,15.508v1.757H46.111
		c0.527,3.451,3.337,6.32,8.137,6.32c2.398,0,5.676-0.995,7.488-2.751l3.337,4.917c-2.81,2.573-7.257,3.92-11.645,3.92
		C44.826,43.201,38.33,37.408,38.33,28.336z M52.96,19.616c-4.625,0-6.615,3.22-6.905,6.029h13.928
		C59.749,22.953,57.875,19.616,52.96,19.616z"/>
	<path fill="#B3DC20" d="M67.764,28.336c0-8.018,5.62-14.806,14.925-14.806c9.362,0,14.981,6.788,14.981,14.806
		s-5.619,14.865-14.981,14.865C73.384,43.201,67.764,36.354,67.764,28.336z M89.944,28.336c0-4.388-2.574-8.193-7.255-8.193
		c-4.625,0-7.2,3.805-7.2,8.193c0,4.447,2.576,8.252,7.2,8.252C87.37,36.588,89.944,32.783,89.944,28.336z"/>
	<path fill="#B3DC20" d="M100.303,42.499V3.464h7.432v39.035H100.303z"/>
	<path fill="#B3DC20" d="M110.37,28.336c0-8.018,5.618-14.806,14.923-14.806c9.361,0,14.98,6.788,14.98,14.806
		s-5.619,14.865-14.98,14.865C115.987,43.201,110.37,36.354,110.37,28.336z M132.548,28.336c0-4.388-2.575-8.193-7.255-8.193
		c-4.625,0-7.2,3.805-7.2,8.193c0,4.447,2.575,8.252,7.2,8.252C129.973,36.588,132.548,32.783,132.548,28.336z"/>
	<path fill="#FFFFFF" d="M142.73,39.866c0-1.756,1.462-3.22,3.218-3.22s3.22,1.464,3.22,3.22c0,1.755-1.464,3.218-3.22,3.218
		S142.73,41.621,142.73,39.866z"/>
	<path fill="#FFFFFF" d="M152.153,28.336c0-8.369,5.676-14.806,14.104-14.806c5.149,0,8.19,2.107,10.356,4.915l-2.924,2.634
		c-1.873-2.576-4.273-3.629-7.199-3.629c-5.97,0-9.772,4.625-9.772,10.886c0,6.262,3.803,10.945,9.772,10.945
		c2.926,0,5.326-1.171,7.199-3.688l2.924,2.693c-2.166,2.808-5.207,4.915-10.356,4.915
		C157.829,43.201,152.153,36.706,152.153,28.336z"/>
	<path fill="#FFFFFF" d="M178.253,28.336c0-8.193,5.384-14.806,13.987-14.806c8.601,0,13.985,6.613,13.985,14.806
		c0,8.194-5.385,14.865-13.985,14.865C183.637,43.201,178.253,36.53,178.253,28.336z M201.602,28.336
		c0-5.734-3.335-10.886-9.361-10.886c-6.03,0-9.365,5.151-9.365,10.886c0,5.793,3.335,10.945,9.365,10.945
		C198.267,39.281,201.602,34.129,201.602,28.336z"/>
	<path fill="#FFFFFF" d="M244.556,42.499V23.305c0-3.572-1.521-5.854-5.208-5.854c-2.924,0-6.026,2.049-7.49,4.332v20.717h-4.389
		V23.305c0-3.572-1.464-5.854-5.21-5.854c-2.866,0-5.91,2.107-7.433,4.39v20.659h-4.388V14.232h4.388v4.096
		c1.23-1.815,4.977-4.798,9.189-4.798c4.273,0,6.729,2.339,7.549,5.266c1.581-2.575,5.384-5.266,9.481-5.266
		c5.149,0,7.9,2.866,7.9,8.544v20.424H244.556z"/>
	<path fill="#B3DC20" d="M34.189,15.036c-0.05-0.381-0.449-3.826-2.619-7.298c-3.086-4.938-8.024-7.658-14.011-7.658
		c-5.984,0-10.952,2.72-14.038,7.658c-2.17,3.473-3.053,6.917-3.108,7.298L0,15.364V43.5h11V16.14c0,0,0.803-6.199,7.519-6.199
		C25.412,9.941,26,16.14,26,16.14V43.5h8V15.364L34.189,15.036z"/>
	<g>
		<circle fill="#B3DC20" cx="87.52" cy="23.76" r="4.302"/>
	</g>
	<g>
		<circle fill="#B3DC20" cx="129.583" cy="23.76" r="4.303"/>
	</g>
</g>
<g>
	<path fill="#FFFFFF" d="M11.723,64.779l-2.382-9.32l-2.36,9.32H3.907L0.021,51.204h3.235l2.382,9.81l2.583-9.81h2.259l2.565,9.81
		l2.38-9.81h3.237l-3.867,13.575H11.723z"/>
	<path fill="#FFFFFF" d="M20.014,64.779V51.204h9.605v2.544h-6.716v2.85h6.573v2.545h-6.573v3.093h6.716v2.544H20.014z"/>
	<path fill="#FFFFFF" d="M31.87,64.779V51.204h7.144c2.584,0,3.908,1.649,3.908,3.461c0,1.688-1.059,2.85-2.341,3.114
		c1.464,0.223,2.605,1.627,2.605,3.316c0,2.057-1.343,3.684-3.948,3.684H31.87z M39.97,55.175c0-0.836-0.611-1.427-1.588-1.427
		H34.76v2.85h3.622C39.359,56.598,39.97,56.049,39.97,55.175z M40.235,60.689c0-0.857-0.61-1.547-1.73-1.547H34.76v3.093h3.744
		C39.583,62.235,40.235,61.664,40.235,60.689z"/>
	<path fill="#FFFFFF" d="M59.881,64.779v-5.72H53.47v5.72h-2.889V51.204h2.889v5.334h6.411v-5.334h2.911v13.575H59.881z"/>
	<path fill="#FFFFFF" d="M64.795,58.002c0-4.091,2.992-7.021,7.103-7.021c4.091,0,7.082,2.931,7.082,7.021s-2.991,7.021-7.082,7.021
		C67.788,65.023,64.795,62.093,64.795,58.002z M76.01,58.002c0-2.543-1.607-4.458-4.111-4.458c-2.523,0-4.131,1.915-4.131,4.458
		c0,2.525,1.608,4.457,4.131,4.457C74.402,62.459,76.01,60.527,76.01,58.002z"/>
	<path fill="#FFFFFF" d="M80.07,62.866l1.587-2.26c0.957,0.999,2.442,1.853,4.315,1.853c1.608,0,2.361-0.711,2.361-1.506
		c0-2.362-7.815-0.713-7.815-5.82c0-2.258,1.954-4.131,5.149-4.131c2.157,0,3.948,0.652,5.292,1.892l-1.607,2.157
		c-1.1-1.018-2.566-1.486-3.95-1.486c-1.221,0-1.913,0.531-1.913,1.345c0,2.137,7.795,0.691,7.795,5.76
		c0,2.483-1.791,4.354-5.434,4.354C83.224,65.023,81.352,64.147,80.07,62.866z"/>
	<path fill="#FFFFFF" d="M96.078,64.779V53.748H92.11v-2.544h10.826v2.544h-3.948v11.031H96.078z"/>
	<path fill="#FFFFFF" d="M104.78,64.779V51.204h2.89v13.575H104.78z"/>
	<path fill="#FFFFFF" d="M119.715,64.779l-6.473-8.853v8.853h-2.889V51.204h2.971l6.289,8.528v-8.528h2.891v13.575H119.715z"/>
	<path fill="#FFFFFF" d="M124.528,58.002c0-4.295,3.257-7.021,7.246-7.021c2.809,0,4.578,1.426,5.595,3.032l-2.379,1.305
		c-0.632-0.958-1.791-1.773-3.216-1.773c-2.484,0-4.275,1.894-4.275,4.458s1.791,4.457,4.275,4.457c1.2,0,2.319-0.529,2.868-1.037
		v-1.629h-3.581V57.27h6.471v5.21c-1.384,1.547-3.315,2.544-5.758,2.544C127.785,65.023,124.528,62.274,124.528,58.002z"/>
	<path fill="#FFFFFF" d="M139.436,63.354c0-0.895,0.753-1.648,1.647-1.648c0.897,0,1.649,0.754,1.649,1.648
		c0,0.897-0.752,1.649-1.649,1.649C140.188,65.003,139.436,64.251,139.436,63.354z"/>
	<path fill="#FFFFFF" d="M150.276,64.779V51.204h2.89v13.575H150.276z"/>
	<path fill="#FFFFFF" d="M158.981,64.779V53.748h-3.968v-2.544h10.825v2.544h-3.947v11.031H158.981z"/>
	<path fill="#FFFFFF" d="M183.29,64.779l-2.382-9.32l-2.36,9.32h-3.073l-3.886-13.575h3.233l2.382,9.81l2.583-9.81h2.26l2.566,9.81
		l2.379-9.81h3.236l-3.866,13.575H183.29z"/>
	<path fill="#FFFFFF" d="M190.523,58.002c0-4.091,2.991-7.021,7.103-7.021c4.091,0,7.082,2.931,7.082,7.021
		s-2.991,7.021-7.082,7.021C193.515,65.023,190.523,62.093,190.523,58.002z M201.735,58.002c0-2.543-1.608-4.458-4.109-4.458
		c-2.524,0-4.132,1.915-4.132,4.458c0,2.525,1.607,4.457,4.132,4.457C200.127,62.459,201.735,60.527,201.735,58.002z"/>
	<path fill="#FFFFFF" d="M214.404,64.779l-2.665-4.823h-2.118v4.823h-2.89V51.204h6.35c2.829,0,4.581,1.853,4.581,4.376
		c0,2.381-1.528,3.684-2.994,4.031l3.074,5.168H214.404z M214.688,55.56c0-1.118-0.874-1.812-2.015-1.812h-3.053v3.663h3.053
		C213.814,57.411,214.688,56.72,214.688,55.56z"/>
	<path fill="#FFFFFF" d="M227.868,64.779l-4.11-5.455l-1.06,1.282v4.173h-2.889V51.204h2.889v6.044l4.804-6.044h3.561l-5.392,6.37
		l5.758,7.205H227.868z"/>
	<path fill="#FFFFFF" d="M231.808,62.866l1.589-2.26c0.955,0.999,2.441,1.853,4.312,1.853c1.607,0,2.361-0.711,2.361-1.506
		c0-2.362-7.816-0.713-7.816-5.82c0-2.258,1.956-4.131,5.15-4.131c2.156,0,3.948,0.652,5.291,1.892l-1.607,2.157
		c-1.1-1.018-2.566-1.486-3.947-1.486c-1.224,0-1.913,0.531-1.913,1.345c0,2.137,7.794,0.691,7.794,5.76
		c0,2.483-1.792,4.354-5.434,4.354C234.962,65.023,233.091,64.147,231.808,62.866z"/>
	<path fill="#FFFFFF" d="M244.561,63.354c0-0.895,0.752-1.648,1.647-1.648c0.895,0,1.649,0.754,1.649,1.648
		c0,0.897-0.755,1.649-1.649,1.649C245.312,65.003,244.561,64.251,244.561,63.354z"/>
</g>
</svg>
