<?xml version="1.0" encoding="utf-8"?>
<!-- Generator: Adobe Illustrator 16.0.0, SVG Export Plug-In . SVG Version: 6.00 Build 0)  -->
<!DOCTYPE svg PUBLIC "-//W3C//DTD SVG 1.1//EN" "http://www.w3.org/Graphics/SVG/1.1/DTD/svg11.dtd">
<svg version="1.1" id="Layer_1" xmlns="http://www.w3.org/2000/svg" xmlns:xlink="http://www.w3.org/1999/xlink" x="0px" y="0px"
	 width="111px" height="128.376px" viewBox="0 0 111 128.376" enable-background="new 0 0 111 128.376" xml:space="preserve">
<g>
	<polygon fill="#B2DB21" points="0,32.085 55.5,0 111,32.085 111,96.255 55.5,128.34 0,96.255 	"/>
	<g>
		<path fill="#FFFFFF" d="M44.062,64.301c-0.157,0-0.312,0.005-0.467,0.012c-2.141-4.411-6.675-7.453-11.922-7.453
			c-5.276,0-9.832,3.078-11.958,7.529c-0.419-0.057-0.846-0.088-1.279-0.088c-5.249,0-9.504,4.96-9.504,10.192
			c0,5.23,4.255,10.192,9.504,10.192c2.281,0,10.572,0,13.237,0c2.467,0,10.279,0,12.389,0c5.249,0,9.504-4.962,9.504-10.192
			C53.565,69.261,49.31,64.301,44.062,64.301z"/>
	</g>
	<g>
		<path fill="#FFFFFF" d="M70.157,43.973c-0.111,0-0.224,0.004-0.333,0.009c-1.53-3.15-4.769-5.323-8.516-5.323
			c-3.769,0-7.023,2.198-8.542,5.378c-0.299-0.041-0.604-0.064-0.914-0.064c-3.749,0-6.788,3.121-6.788,6.857
			c0,3.736,3.039,6.855,6.788,6.855c1.63,0,7.551,0,9.456,0c1.763,0,7.342,0,8.849,0c3.75,0,6.789-3.119,6.789-6.855
			C76.946,47.094,73.907,43.973,70.157,43.973z"/>
	</g>
	<g>
		<path fill="#FFFFFF" d="M97.364,62.613c-0.113,0-0.225,0.004-0.333,0.009c-1.531-3.151-4.769-5.324-8.517-5.324
			c-3.77,0-7.022,2.199-8.541,5.378c-0.299-0.042-0.604-0.064-0.914-0.064c-3.748,0-6.789,2.801-6.789,6.537
			s3.041,6.535,6.789,6.535c1.63,0,7.551,0,9.455,0c1.763,0,7.342,0,8.85,0c3.749,0,6.787-2.799,6.787-6.535
			S101.113,62.613,97.364,62.613z"/>
	</g>
</g>
</svg>
