<?xml version="1.0" encoding="UTF-8" standalone="no"?>
<svg width="333px" height="351px" viewBox="0 0 333 351" version="1.1" xmlns="http://www.w3.org/2000/svg" xmlns:xlink="http://www.w3.org/1999/xlink" xmlns:sketch="http://www.bohemiancoding.com/sketch/ns">
    <!-- Generator: Sketch 3.0.3 (7892) - http://www.bohemiancoding.com/sketch -->
    <title>Imported Layers</title>
    <desc>Created with Sketch.</desc>
    <defs></defs>
    <g id="Page-1" stroke="none" stroke-width="1" fill="none" fill-rule="evenodd" sketch:type="MSPage">
        <g id="Landing-(Desktop)-2" sketch:type="MSArtboardGroup" transform="translate(-914.000000, -1674.000000)">
            <g id="Imported-Layers" sketch:type="MSLayerGroup" transform="translate(1014.000000, 1756.000000)">
                <path d="M0,42.3956513 L72.5,0.291302632 L145,42.3956513 L145,126.603237 L72.5,168.706474 L0,126.603237 L0,42.3956513" id="Fill-1" fill="#B3DC1F" sketch:type="MSShapeGroup"></path>
                <path d="M94.6760769,69.8470329 C94.3983462,69.8470329 94.1228462,69.8548158 93.8484615,69.8681579 C90.0472308,62.0396776 82.0041923,56.6405724 72.6951923,56.6405724 C63.3326538,56.6405724 55.2516923,62.1019408 51.4783462,70.0038026 C50.7355,69.9037368 49.9792692,69.8470329 49.2085385,69.8470329 C39.8961923,69.8470329 32.3461538,77.3408487 32.3461538,86.6247303 C32.3461538,95.9075 39.8961923,103.401316 49.2085385,103.401316 L72.6951923,103.401316 L94.6760769,103.401316 C103.988423,103.401316 111.538462,95.9075 111.538462,86.6247303 C111.538462,77.3408487 103.988423,69.8470329 94.6760769,69.8470329" id="Fill-2" fill="#FFFFFF" sketch:type="MSShapeGroup"></path>
            </g>
        </g>
    </g>
</svg>