<?xml version="1.0" encoding="utf-8"?>
<!-- Generator: Adobe Illustrator 16.0.0, SVG Export Plug-In . SVG Version: 6.00 Build 0)  -->
<!DOCTYPE svg PUBLIC "-//W3C//DTD SVG 1.1//EN" "http://www.w3.org/Graphics/SVG/1.1/DTD/svg11.dtd">
<svg version="1.1" id="Layer_1" xmlns="http://www.w3.org/2000/svg" xmlns:xlink="http://www.w3.org/1999/xlink" x="0px" y="0px"
	 width="111px" height="128.376px" viewBox="0 0 111 128.376" enable-background="new 0 0 111 128.376" xml:space="preserve">
<g>
	<polygon fill="#91CA51" points="0,32.133 55.5,0.015 111,32.133 111,96.37 55.5,128.488 0,96.37 	"/>
	<g>
		<path fill="#FFFFFF" d="M43.336,64.382c-0.158,0-0.314,0.005-0.469,0.012c-2.152-4.416-6.708-7.461-11.981-7.461
			c-5.302,0-9.88,3.081-12.017,7.537c-0.421-0.056-0.85-0.088-1.286-0.088c-5.275,0-9.551,4.416-9.551,9.653
			c0,5.235,4.276,9.65,9.551,9.65c2.292,0,10.625,0,13.302,0c2.479,0,10.33,0,12.451,0c5.275,0,9.551-4.415,9.551-9.65
			C52.887,68.798,48.611,64.382,43.336,64.382z"/>
	</g>
	<g>
		<path fill="#FFFFFF" d="M69.562,44.034c-0.113,0-0.225,0.004-0.334,0.009c-1.539-3.154-4.792-5.329-8.559-5.329
			c-3.788,0-7.058,2.2-8.584,5.383c-0.3-0.041-0.607-0.064-0.918-0.064c-3.767,0-6.822,3.086-6.822,6.827
			c0,3.74,3.055,6.825,6.822,6.825c1.638,0,7.588,0,9.502,0c1.771,0,7.378,0,8.893,0c3.769,0,6.821-3.084,6.821-6.825
			C76.383,47.12,73.33,44.034,69.562,44.034z"/>
	</g>
	<g>
		<path fill="#FFFFFF" d="M96.903,62.693c-0.113,0-0.225,0.004-0.335,0.01c-1.539-3.155-4.793-5.33-8.559-5.33
			c-3.788,0-7.058,2.201-8.584,5.384c-0.3-0.041-0.607-0.064-0.919-0.064c-3.767,0-6.821,3.257-6.821,6.996
			c0,3.741,3.055,6.996,6.821,6.996c1.639,0,7.589,0,9.503,0c1.771,0,7.378,0,8.894,0c3.768,0,6.821-3.255,6.821-6.996
			C103.725,65.95,100.671,62.693,96.903,62.693z"/>
	</g>
</g>
</svg>
