<?xml version="1.0" encoding="utf-8"?>
<!-- Generator: Adobe Illustrator 16.0.0, SVG Export Plug-In . SVG Version: 6.00 Build 0)  -->
<!DOCTYPE svg PUBLIC "-//W3C//DTD SVG 1.1//EN" "http://www.w3.org/Graphics/SVG/1.1/DTD/svg11.dtd">
<svg version="1.1" id="Layer_1" xmlns="http://www.w3.org/2000/svg" xmlns:xlink="http://www.w3.org/1999/xlink" x="0px" y="0px"
	 width="111px" height="128.376px" viewBox="0 0 111 128.376" enable-background="new 0 0 111 128.376" xml:space="preserve">
<g>
	<polygon fill="#70BA80" points="0,31.312 55.5,-0.982 111,31.312 111,95.899 55.5,128.194 0,95.899 	"/>
	<g>
		<path fill="#FFFFFF" d="M44.207,63.737c-0.157,0-0.313,0.005-0.468,0.013c-2.148-4.44-6.696-7.502-11.958-7.502
			c-5.292,0-9.861,3.098-11.994,7.578c-0.42-0.057-0.848-0.089-1.283-0.089c-5.265,0-9.533,4.21-9.533,9.475
			c0,5.266,4.268,9.474,9.533,9.474c2.288,0,10.604,0,13.277,0c2.474,0,10.31,0,12.426,0c5.265,0,9.533-4.208,9.533-9.474
			C53.74,67.947,49.472,63.737,44.207,63.737z"/>
	</g>
	<g>
		<path fill="#FFFFFF" d="M70.383,43.277c-0.112,0-0.224,0.004-0.334,0.009c-1.534-3.171-4.782-5.357-8.541-5.357
			c-3.781,0-7.045,2.212-8.568,5.413c-0.3-0.041-0.606-0.064-0.917-0.064c-3.759,0-6.809,2.944-6.809,6.705s3.049,6.703,6.809,6.703
			c1.635,0,7.574,0,9.485,0c1.767,0,7.364,0,8.875,0c3.761,0,6.81-2.942,6.81-6.703S74.144,43.277,70.383,43.277z"/>
	</g>
	<g>
		<path fill="#FFFFFF" d="M97.672,62.039c-0.112,0-0.224,0.004-0.334,0.01c-1.534-3.171-4.782-5.358-8.541-5.358
			c-3.78,0-7.044,2.213-8.567,5.413c-0.3-0.041-0.606-0.064-0.918-0.064c-3.76,0-6.809,3.063-6.809,6.823
			c0,3.763,3.049,6.823,6.809,6.823c1.635,0,7.574,0,9.485,0c1.769,0,7.364,0,8.875,0c3.762,0,6.81-3.061,6.81-6.823
			C104.481,65.103,101.434,62.039,97.672,62.039z"/>
	</g>
</g>
</svg>
