<?xml version="1.0" encoding="utf-8"?>
<!-- Generator: Adobe Illustrator 16.0.0, SVG Export Plug-In . SVG Version: 6.00 Build 0)  -->
<!DOCTYPE svg PUBLIC "-//W3C//DTD SVG 1.1//EN" "http://www.w3.org/Graphics/SVG/1.1/DTD/svg11.dtd">
<svg version="1.1" id="Layer_1" xmlns="http://www.w3.org/2000/svg" xmlns:xlink="http://www.w3.org/1999/xlink" x="0px" y="0px"
	 width="111px" height="128.375px" viewBox="0 0 111 128.375" enable-background="new 0 0 111 128.375" xml:space="preserve">
<g>
	<polygon fill="#9CBB1A" points="0,32.095 55.5,0 111,32.095 111,96.282 55.5,128.375 0,96.282 	"/>
	<g>
		<path fill="#FFFFFF" d="M72.496,53.02c-0.212,0-0.422,0.007-0.629,0.017c-2.889-5.968-9-10.083-16.073-10.083
			c-7.114,0-13.254,4.163-16.121,10.187c-0.564-0.077-1.14-0.12-1.725-0.12c-7.076,0-12.813,6.009-12.813,13.085
			c0,7.074,5.737,13.083,12.813,13.083c3.077,0,14.252,0,17.846,0c3.326,0,13.856,0,16.702,0c7.076,0,12.812-6.009,12.812-13.083
			C85.309,59.028,79.572,53.02,72.496,53.02z"/>
	</g>
</g>
</svg>
