<?xml version="1.0" encoding="utf-8"?>
<!-- Generator: Adobe Illustrator 16.0.0, SVG Export Plug-In . SVG Version: 6.00 Build 0)  -->
<!DOCTYPE svg PUBLIC "-//W3C//DTD SVG 1.1//EN" "http://www.w3.org/Graphics/SVG/1.1/DTD/svg11.dtd">
<svg version="1.1" id="Layer_1" xmlns="http://www.w3.org/2000/svg" xmlns:xlink="http://www.w3.org/1999/xlink" x="0px" y="0px"
	 width="111px" height="128.376px" viewBox="0 0 111 128.376" enable-background="new 0 0 111 128.376" xml:space="preserve">
<g>
	<polygon fill="#4EA9B1" points="0,32.177 55.5,0.081 111,32.177 111,96.37 55.5,128.467 0,96.37 	"/>
	<path fill="#FFFFFF" d="M41.961,64.404c-0.157,0-0.313,0.004-0.468,0.012c-2.146-4.413-6.693-7.455-11.954-7.455
		c-5.291,0-9.858,3.079-11.99,7.532c-0.421-0.057-0.849-0.088-1.283-0.088c-5.263,0-9.529,4.408-9.529,9.641
		s4.266,9.641,9.529,9.641c2.288,0,10.601,0,13.273,0c2.474,0,10.306,0,12.421,0c5.263,0,9.53-4.408,9.53-9.641
		S47.225,64.404,41.961,64.404z"/>
	<path fill="#FFFFFF" d="M68.128,44.07c-0.112,0-0.224,0.004-0.333,0.009c-1.535-3.151-4.782-5.325-8.54-5.325
		c-3.779,0-7.041,2.199-8.564,5.38c-0.3-0.041-0.606-0.063-0.917-0.063c-3.759,0-6.807,3.071-6.807,6.809
		c0,3.737,3.048,6.807,6.807,6.807c1.634,0,7.571,0,9.48,0c1.768,0,7.362,0,8.873,0c3.759,0,6.807-3.069,6.807-6.807
		C74.935,47.141,71.887,44.07,68.128,44.07z"/>
	<path fill="#FFFFFF" d="M95.407,62.716c-0.113,0-0.224,0.004-0.334,0.009c-1.534-3.152-4.781-5.326-8.539-5.326
		c-3.778,0-7.041,2.199-8.564,5.38c-0.299-0.041-0.605-0.064-0.916-0.064c-3.759,0-6.806,3.247-6.806,6.985
		c0,3.74,3.047,6.984,6.806,6.984c1.635,0,7.571,0,9.48,0c1.768,0,7.362,0,8.873,0c3.759,0,6.807-3.244,6.807-6.984
		C102.214,65.963,99.166,62.716,95.407,62.716z"/>
</g>
</svg>
