<?xml version="1.0" encoding="UTF-8" standalone="no"?>
<svg width="363px" height="335px" viewBox="0 0 363 335" version="1.1" xmlns="http://www.w3.org/2000/svg" xmlns:xlink="http://www.w3.org/1999/xlink" xmlns:sketch="http://www.bohemiancoding.com/sketch/ns">
    <!-- Generator: Sketch 3.0.3 (7892) - http://www.bohemiancoding.com/sketch -->
    <title>Imported Layers</title>
    <desc>Created with Sketch.</desc>
    <defs></defs>
    <g id="Page-1" stroke="none" stroke-width="1" fill="none" fill-rule="evenodd" sketch:type="MSPage">
        <g id="Landing-(Desktop)-2" sketch:type="MSArtboardGroup" transform="translate(-540.000000, -1674.000000)">
            <g id="Imported-Layers" sketch:type="MSLayerGroup" transform="translate(640.000000, 1719.000000)">
                <path d="M0,47.66375 L81.5,0.3275 L163,47.66375 L163,142.335 L81.5,189.67 L0,142.335 L0,47.66375" id="Fill-1" fill="#81C369" sketch:type="MSShapeGroup"></path>
                <path d="M105.175123,78.52625 C104.862915,78.52625 104.553215,78.535 104.244769,78.55 C99.9716615,69.74875 90.9301769,63.67875 80.4655769,63.67875 C69.9407923,63.67875 60.8566769,69.81875 56.6149154,78.7025 C55.7798538,78.59 54.9297462,78.52625 54.0633385,78.52625 C43.5949769,78.52625 35.1076923,86.95125 35.1076923,97.38875 C35.1076923,107.825 43.5949769,116.25 54.0633385,116.25 L80.4655769,116.25 L105.175123,116.25 C115.643485,116.25 124.130769,107.825 124.130769,97.38875 C124.130769,86.95125 115.643485,78.52625 105.175123,78.52625" id="Fill-2" fill="#FFFFFF" sketch:type="MSShapeGroup"></path>
            </g>
        </g>
    </g>
</svg>