<?xml version="1.0" encoding="utf-8"?>
<!-- Generator: Adobe Illustrator 16.0.0, SVG Export Plug-In . SVG Version: 6.00 Build 0)  -->
<!DOCTYPE svg PUBLIC "-//W3C//DTD SVG 1.1//EN" "http://www.w3.org/Graphics/SVG/1.1/DTD/svg11.dtd">
<svg version="1.1" id="Layer_1" xmlns="http://www.w3.org/2000/svg" xmlns:xlink="http://www.w3.org/1999/xlink" x="0px" y="0px"
	 width="111px" height="128.375px" viewBox="0 0 111 128.375" enable-background="new 0 0 111 128.375" xml:space="preserve">
<g>
	<polygon fill="#4EA9B1" points="0,32.095 55.5,0 111,32.095 111,96.282 55.5,128.375 0,96.282 	"/>
	<g>
		<path fill="#FFFFFF" d="M72.877,53.02c-0.211,0-0.421,0.007-0.629,0.017c-2.888-5.968-8.999-10.083-16.073-10.083
			c-7.113,0-13.253,4.163-16.12,10.187c-0.564-0.077-1.14-0.12-1.726-0.12c-7.075,0-12.813,5.509-12.813,12.585
			c0,7.074,5.738,12.583,12.813,12.583c3.077,0,14.253,0,17.846,0c3.327,0,13.856,0,16.702,0c7.076,0,12.812-5.509,12.812-12.583
			C85.689,58.528,79.953,53.02,72.877,53.02z"/>
	</g>
</g>
</svg>
