<?xml version="1.0" encoding="utf-8"?>
<!-- Generator: Adobe Illustrator 16.0.0, SVG Export Plug-In . SVG Version: 6.00 Build 0)  -->
<!DOCTYPE svg PUBLIC "-//W3C//DTD SVG 1.1//EN" "http://www.w3.org/Graphics/SVG/1.1/DTD/svg11.dtd">
<svg version="1.1" id="Layer_1" xmlns:sketch="http://www.bohemiancoding.com/sketch/ns"
	 xmlns="http://www.w3.org/2000/svg" xmlns:xlink="http://www.w3.org/1999/xlink" x="0px" y="0px" width="32.835px"
	 height="32.821px" viewBox="-1.148 -1.148 32.835 32.821" enable-background="new -1.148 -1.148 32.835 32.821"
	 xml:space="preserve">
<title>Oval 8 + facebook 2</title>
<desc>Created with Sketch.</desc>
<g>
	<g>
		<g>
			<defs>
				<circle id="SVGID_1_" cx="15.27" cy="15.263" r="16.436"/>
			</defs>
			<clipPath id="SVGID_2_">
				<use xlink:href="#SVGID_1_"  overflow="visible"/>
			</clipPath>
			<rect x="-5.927" y="-5.934" clip-path="url(#SVGID_2_)" fill="#09B0E8" width="42.392" height="42.393"/>
		</g>
	</g>
	<g>
		<g>
			<defs>
				<path id="SVGID_3_" d="M24.27,9.592c-0.511,0.76-1.127,1.407-1.85,1.943c0.006,0.108,0.011,0.271,0.011,0.486
					c0,1.009-0.146,2.012-0.434,3.017c-0.29,1.003-0.729,1.966-1.32,2.884c-0.591,0.923-1.293,1.737-2.108,2.447
					c-0.813,0.709-1.796,1.274-2.946,1.694c-1.15,0.423-2.38,0.633-3.69,0.636c-2.062,0-3.952-0.562-5.665-1.685
					c0.267,0.029,0.563,0.044,0.892,0.044c1.713,0,3.24-0.533,4.58-1.602c-0.799-0.017-1.515-0.265-2.147-0.749
					c-0.633-0.483-1.066-1.099-1.302-1.854c0.25,0.037,0.482,0.061,0.695,0.061c0.329,0,0.651-0.044,0.971-0.128
					c-0.854-0.179-1.558-0.61-2.12-1.297c-0.56-0.686-0.839-1.48-0.839-2.388v-0.046c0.518,0.294,1.074,0.454,1.669,0.477
					c-0.504-0.34-0.904-0.786-1.2-1.337c-0.297-0.55-0.446-1.146-0.446-1.789c0-0.68,0.168-1.313,0.503-1.894
					c0.921,1.153,2.043,2.076,3.364,2.77c1.322,0.694,2.736,1.079,4.244,1.156c-0.063-0.294-0.093-0.58-0.093-0.86
					c0-1.038,0.36-1.921,1.081-2.654c0.719-0.731,1.591-1.098,2.608-1.098c1.066,0,1.964,0.395,2.698,1.186
					c0.828-0.162,1.607-0.464,2.342-0.906c-0.284,0.891-0.824,1.58-1.623,2.068C22.853,10.097,23.562,9.903,24.27,9.592L24.27,9.592
					z"/>
			</defs>
			<clipPath id="SVGID_4_">
				<use xlink:href="#SVGID_3_"  overflow="visible"/>
			</clipPath>
			<rect x="1.509" y="3.067" clip-path="url(#SVGID_4_)" fill="#FFFFFF" width="27.521" height="24.394"/>
		</g>
	</g>
</g>
</svg>
