<?xml version="1.0" encoding="utf-8"?>
<!-- Generator: Adobe Illustrator 16.0.0, SVG Export Plug-In . SVG Version: 6.00 Build 0)  -->
<!DOCTYPE svg PUBLIC "-//W3C//DTD SVG 1.1//EN" "http://www.w3.org/Graphics/SVG/1.1/DTD/svg11.dtd">
<svg version="1.1" id="Layer_1" xmlns:sketch="http://www.bohemiancoding.com/sketch/ns"
	 xmlns="http://www.w3.org/2000/svg" xmlns:xlink="http://www.w3.org/1999/xlink" x="0px" y="0px" width="30.54px"
	 height="30.538px" viewBox="2.693 2.668 30.54 30.538" enable-background="new 2.693 2.668 30.54 30.538" xml:space="preserve">
<title>Oval 8 + facebook 2</title>
<desc>Created with Sketch.</desc>
<g>
	<defs>
		<circle id="SVGID_1_" cx="17.963" cy="17.937" r="15.269"/>
	</defs>
	<clipPath id="SVGID_2_">
		<use xlink:href="#SVGID_1_"  overflow="visible"/>
	</clipPath>
	
		<rect x="-1.729" y="-1.755" clip-path="url(#SVGID_2_)" fill-rule="evenodd" clip-rule="evenodd" fill="#09B0E8" width="39.382" height="39.383"/>
</g>
<g>
	<defs>
		<path id="SVGID_3_" d="M26.324,12.669c-0.474,0.706-1.047,1.307-1.718,1.804c0.006,0.101,0.01,0.252,0.01,0.452
			c0,0.937-0.135,1.869-0.403,2.802c-0.27,0.933-0.678,1.826-1.227,2.681c-0.548,0.857-1.2,1.613-1.958,2.273
			c-0.757,0.658-1.669,1.184-2.737,1.574c-1.068,0.393-2.211,0.588-3.428,0.59c-1.916,0-3.671-0.521-5.263-1.564
			c0.248,0.027,0.523,0.041,0.828,0.041c1.592,0,3.01-0.496,4.255-1.488c-0.742-0.016-1.407-0.246-1.994-0.697
			c-0.588-0.449-0.991-1.021-1.21-1.721c0.232,0.035,0.448,0.055,0.646,0.055c0.305,0,0.605-0.041,0.902-0.119
			c-0.793-0.166-1.448-0.566-1.97-1.204c-0.52-0.637-0.779-1.376-0.779-2.219v-0.043c0.481,0.274,0.998,0.422,1.55,0.443
			c-0.468-0.317-0.839-0.73-1.114-1.242c-0.276-0.511-0.414-1.064-0.414-1.662c0-0.632,0.156-1.22,0.467-1.759
			c0.856,1.071,1.898,1.929,3.125,2.573c1.228,0.645,2.542,1.002,3.942,1.074c-0.058-0.273-0.085-0.539-0.085-0.798
			c0-0.964,0.334-1.786,1.003-2.466s1.478-1.021,2.425-1.021c0.99,0,1.824,0.367,2.504,1.102c0.771-0.151,1.496-0.432,2.176-0.842
			c-0.263,0.827-0.765,1.468-1.508,1.921C25.009,13.138,25.666,12.958,26.324,12.669L26.324,12.669z"/>
	</defs>
	<clipPath id="SVGID_4_">
		<use xlink:href="#SVGID_3_"  overflow="visible"/>
	</clipPath>
	
		<rect x="5.179" y="6.607" clip-path="url(#SVGID_4_)" fill-rule="evenodd" clip-rule="evenodd" fill="#FFFFFF" width="25.568" height="22.661"/>
</g>
</svg>
