<?xml version="1.0" encoding="UTF-8" standalone="no"?>
<svg width="234px" height="234px" viewBox="0 0 234 234" version="1.1" xmlns="http://www.w3.org/2000/svg" xmlns:xlink="http://www.w3.org/1999/xlink" xmlns:sketch="http://www.bohemiancoding.com/sketch/ns">
    <!-- Generator: Sketch 3.0.3 (7892) - http://www.bohemiancoding.com/sketch -->
    <title>Oval 11 + twitter 3</title>
    <desc>Created with Sketch.</desc>
    <defs></defs>
    <g id="Page-1" stroke="none" stroke-width="1" fill="none" fill-rule="evenodd" sketch:type="MSPage">
        <g id="Landing-(Desktop)-2" sketch:type="MSArtboardGroup" transform="translate(-382.000000, -4465.000000)">
            <g id="Oval-11-+-twitter-3" sketch:type="MSLayerGroup" transform="translate(482.000000, 4565.000000)">
                <path d="M16.8443545,34.2666016 C26.3804353,34.2666016 34.1109561,26.5360807 34.1109561,17 C34.1109561,7.46391928 26.3804353,-0.266601562 16.8443545,-0.266601562 C7.30827381,-0.266601562 -0.422247024,7.46391928 -0.422247024,17 C-0.422247024,26.5360807 7.30827381,34.2666016 16.8443545,34.2666016 Z" id="Oval-11" fill="#00B2EA" sketch:type="MSShapeGroup"></path>
                <g id="twitter-3" transform="translate(7.799944, 9.600028)" fill="#FFFFFF" sketch:type="MSShapeGroup">
                    <path d="M18.9110398,1.85563168 C18.3752808,2.65301792 17.727308,3.33239099 16.9671215,3.8937509 C16.9751847,4.00766322 16.9792163,4.1785317 16.9792163,4.40635634 C16.9792163,5.46391832 16.8271342,6.51965769 16.52297,7.57357447 C16.2188058,8.62749125 15.7567361,9.63834918 15.1367607,10.6061482 C14.5167854,11.5739473 13.7787728,12.4303401 12.9227231,13.1753267 C12.0666733,13.9203133 11.0347996,14.5142521 9.82710195,14.9571432 C8.61940431,15.4000343 7.32749037,15.6217077 5.95136013,15.6221633 C3.78368623,15.6221633 1.79989952,15.0323253 0,13.8526493 C0.279974414,13.8850004 0.591977902,13.901176 0.936010462,13.901176 C2.73590998,13.901176 4.3398274,13.3398161 5.74776274,12.2170963 C4.90783949,12.2006929 4.15594021,11.9382389 3.49206488,11.4297343 C2.82818954,10.9212297 2.37216722,10.2723851 2.1239979,9.4832006 C2.38784579,9.52375338 2.6317595,9.54402978 2.85573903,9.54402978 C3.19977159,9.54402978 3.53977252,9.49937615 3.87574181,9.41006889 C2.97982369,9.22279703 2.2377795,8.76919818 1.64960925,8.04927232 C1.061439,7.32934646 0.767353875,6.49323004 0.767353875,5.54092304 L0.767353875,5.4923964 C1.31117618,5.80178226 1.89509082,5.96854989 2.51909779,5.9926993 C1.99095406,5.63455897 1.57099243,5.16660716 1.25921293,4.58884388 C0.947433418,4.01108059 0.791543664,3.38456284 0.791543664,2.70929061 C0.791543664,1.99346559 0.967591576,1.33026807 1.3196874,0.719698034 C2.28772694,1.93218076 3.46563529,2.9024859 4.85341247,3.63061345 C6.24118965,4.35874099 7.72706986,4.76358538 9.31105311,4.8451466 C9.24699496,4.53576074 9.21496589,4.23480439 9.21496589,3.94227755 C9.21496589,2.85190883 9.59304334,1.9223843 10.3491982,1.15370397 C11.1053531,0.38502364 12.0191896,0.000455649278 13.0907077,0 C14.2106054,0 15.1544551,0.414868668 15.9222569,1.244606 C16.7939853,1.07373752 17.6139743,0.756377801 18.3822241,0.292526836 C18.0861232,1.22843045 17.5181111,1.95268498 16.6781879,2.46529042 C17.4222479,2.3837292 18.1660839,2.18028179 18.9096959,1.85494821 L18.9110398,1.85563168 Z" id="Shape"></path>
                </g>
            </g>
        </g>
    </g>
</svg>