<?xml version="1.0" encoding="utf-8"?>
<!-- Generator: Adobe Illustrator 16.0.0, SVG Export Plug-In . SVG Version: 6.00 Build 0)  -->
<!DOCTYPE svg PUBLIC "-//W3C//DTD SVG 1.1//EN" "http://www.w3.org/Graphics/SVG/1.1/DTD/svg11.dtd">
<svg version="1.1" id="Layer_1" xmlns="http://www.w3.org/2000/svg" xmlns:xlink="http://www.w3.org/1999/xlink" x="0px" y="0px"
	 width="111px" height="128.376px" viewBox="0 0 111 128.376" enable-background="new 0 0 111 128.376" xml:space="preserve">
<g>
	<polygon fill="#99CF45" points="0,32.151 55.5,0 111,32.151 111,96.456 55.5,128.605 0,96.456 	"/>
	<g>
		<polygon opacity="0.4" fill="#FFFFFF" points="26,111.293 55.577,128.605 86,110.799 86,63.686 26,63.686 		"/>
		<rect x="33" y="68.686" fill="#FFFFFF" width="46" height="10"/>
		<rect x="64" y="70.686" fill="#99CF45" width="9" height="1"/>
		<rect x="33" y="83.686" fill="#FFFFFF" width="46" height="11"/>
		<rect x="64.241" y="86.686" fill="#99CF45" width="8.867" height="0"/>
	</g>
	<g opacity="0.8">
		<path fill="#FFFFFF" d="M57.323,50.366v-5.956H46.154v-2.431l10.079-15.117h4.017v14.977h3.312v2.572h-3.312v5.956H57.323z
			 M57.323,29.576L49.08,41.839h8.244V29.576z"/>
	</g>
</g>
</svg>
