<?xml version="1.0" encoding="utf-8"?>
<!-- Generator: Adobe Illustrator 16.0.0, SVG Export Plug-In . SVG Version: 6.00 Build 0)  -->
<!DOCTYPE svg PUBLIC "-//W3C//DTD SVG 1.1//EN" "http://www.w3.org/Graphics/SVG/1.1/DTD/svg11.dtd">
<svg version="1.1" id="Layer_1" xmlns="http://www.w3.org/2000/svg" xmlns:xlink="http://www.w3.org/1999/xlink" x="0px" y="0px"
	 width="111px" height="128.376px" viewBox="0 0 111 128.376" enable-background="new 0 0 111 128.376" xml:space="preserve">
<g>
	<polygon fill="#80C269" points="0,32.08 55.5,0 111,32.08 111,96.238 55.5,128.316 0,96.238 	"/>
	<g>
		<polygon opacity="0.4" fill="#FFFFFF" points="24,110.55 55.934,128.316 87,111.043 87,62.686 24,62.686 		"/>
		<rect x="31" y="67.686" fill="#FFFFFF" width="48" height="13"/>
		<rect x="64" y="70.686" fill="#80C269" width="10" height="2"/>
		<rect x="31" y="83.686" fill="#FFFFFF" width="48" height="11"/>
		<rect x="63.969" y="86.686" fill="#80C269" width="9.202" height="0"/>
	</g>
	<g opacity="0.8">
		<path fill="#FFFFFF" d="M45.915,46.808l1.757-1.828c1.398,1.828,3.836,3.094,6.668,3.094c3.478,0,5.594-1.723,5.594-4.396
			c0-2.917-2.439-4.148-5.952-4.148c-1.004,0-2.115,0-2.474,0.035v-2.672c0.395,0.035,1.506,0.035,2.474,0.035
			c3.013,0,5.557-1.16,5.557-3.867c0-2.602-2.438-4.009-5.342-4.009c-2.617,0-4.552,0.985-6.31,2.849l-1.649-1.829
			c1.721-2.074,4.481-3.621,8.211-3.621c4.59,0,8.068,2.285,8.068,6.223c0,3.411-2.904,5.098-5.128,5.45
			c2.15,0.21,5.521,2.004,5.521,5.801c0,3.903-3.227,6.75-8.498,6.75C50.361,50.674,47.385,48.917,45.915,46.808z"/>
	</g>
</g>
</svg>
